<svg xmlns="http://www.w3.org/2000/svg" viewBox="0 0 800 800" fill="none">
  <g stroke="#1A2332" stroke-width="1.25" fill="none" opacity="0.18">
    <path d="M 465.1,400.1 C 465.1,400.7 465.1,401.4 465.1,402.1 C 465.2,402.7 465.1,403.4 465.1,404.0 C 465.1,404.7 465.1,405.4 465.0,406.0 C 465.0,406.7 464.9,407.3 464.8,408.0 C 464.7,408.7 464.6,409.3 464.5,410.0 C 464.4,410.6 464.2,411.2 464.1,411.9 C 463.9,412.5 463.8,413.2 463.6,413.8 C 463.4,414.4 463.2,415.1 463.0,415.7 C 462.8,416.3 462.5,416.9 462.3,417.5 C 462.0,418.1 461.8,418.7 461.5,419.3 C 461.2,419.9 460.9,420.5 460.6,421.1 C 460.3,421.7 460.0,422.3 459.7,422.8 C 459.4,423.4 459.1,424.0 458.8,424.5 C 458.4,425.1 458.1,425.7 457.8,426.2 C 457.4,426.8 457.1,427.3 456.8,427.9 C 456.4,428.4 456.1,429.0 455.8,429.5 C 455.4,430.1 455.1,430.6 454.8,431.2 C 454.4,431.7 454.1,432.2 453.8,432.8 C 453.4,433.3 453.1,433.9 452.8,434.4 C 452.5,435.0 452.1,435.5 451.8,436.1 C 451.5,436.7 451.2,437.2 450.8,437.8 C 450.5,438.3 450.2,438.9 449.8,439.5 C 449.5,440.0 449.1,440.6 448.8,441.1 C 448.4,441.7 448.1,442.2 447.7,442.8 C 447.4,443.4 447.0,443.9 446.6,444.4 C 446.2,445.0 445.8,445.5 445.4,446.1 C 445.0,446.6 444.6,447.1 444.2,447.6 C 443.7,448.1 443.3,448.7 442.8,449.1 C 442.4,449.6 441.9,450.1 441.4,450.6 C 440.9,451.1 440.4,451.5 439.9,452.0 C 439.4,452.4 438.9,452.8 438.4,453.3 C 437.9,453.7 437.3,454.1 436.8,454.5 C 436.2,454.9 435.7,455.3 435.1,455.6 C 434.5,456.0 434.0,456.4 433.4,456.7 C 432.8,457.1 432.2,457.4 431.6,457.7 C 431.0,458.1 430.4,458.4 429.8,458.7 C 429.2,459.0 428.6,459.3 428.0,459.6 C 427.4,459.8 426.7,460.1 426.1,460.4 C 425.5,460.7 424.9,460.9 424.2,461.2 C 423.6,461.4 423.0,461.6 422.3,461.9 C 421.7,462.1 421.0,462.3 420.4,462.5 C 419.7,462.7 419.1,462.9 418.4,463.1 C 417.8,463.3 417.1,463.4 416.4,463.6 C 415.8,463.8 415.1,463.9 414.4,464.0 C 413.8,464.2 413.1,464.3 412.4,464.4 C 411.8,464.5 411.1,464.6 410.4,464.7 C 409.7,464.8 409.1,464.9 408.4,464.9 C 407.7,465.0 407.0,465.0 406.3,465.1 C 405.7,465.1 405.0,465.2 404.3,465.2 C 403.6,465.2 402.9,465.2 402.2,465.2 C 401.6,465.3 400.9,465.3 400.2,465.3 C 399.5,465.3 398.8,465.3 398.1,465.3 C 397.5,465.3 396.8,465.2 396.1,465.2 C 395.4,465.2 394.7,465.2 394.0,465.2 C 393.3,465.2 392.6,465.2 391.9,465.2 C 391.2,465.1 390.5,465.1 389.8,465.1 C 389.1,465.1 388.4,465.1 387.7,465.0 C 387.0,465.0 386.3,465.0 385.6,465.0 C 384.9,464.9 384.2,464.9 383.4,464.8 C 382.7,464.8 382.0,464.7 381.3,464.7 C 380.5,464.6 379.8,464.5 379.1,464.4 C 378.3,464.3 377.6,464.3 376.9,464.1 C 376.2,464.0 375.4,463.9 374.7,463.8 C 374.0,463.6 373.2,463.5 372.5,463.3 C 371.8,463.2 371.0,463.0 370.3,462.8 C 369.6,462.6 368.9,462.4 368.1,462.1 C 367.4,461.9 366.7,461.7 366.0,461.4 C 365.3,461.2 364.6,460.9 363.9,460.6 C 363.1,460.3 362.4,460.0 361.7,459.7 C 361.1,459.4 360.4,459.0 359.7,458.7 C 359.0,458.3 358.3,458.0 357.6,457.6 C 357.0,457.2 356.3,456.8 355.6,456.4 C 355.0,456.0 354.3,455.6 353.7,455.2 C 353.0,454.7 352.4,454.3 351.8,453.8 C 351.2,453.4 350.6,452.9 350.0,452.4 C 349.4,451.9 348.8,451.4 348.2,450.8 C 347.6,450.3 347.1,449.8 346.6,449.2 C 346.0,448.6 345.5,448.0 345.0,447.4 C 344.5,446.8 344.0,446.2 343.6,445.6 C 343.2,444.9 342.7,444.3 342.3,443.6 C 341.9,442.9 341.6,442.3 341.2,441.6 C 340.9,440.8 340.6,440.1 340.3,439.4 C 340.0,438.7 339.8,437.9 339.6,437.2 C 339.4,436.4 339.2,435.6 339.0,434.9 C 338.9,434.1 338.7,433.3 338.6,432.5 C 338.5,431.7 338.5,430.9 338.4,430.1 C 338.4,429.3 338.4,428.5 338.4,427.7 C 338.4,426.9 338.5,426.1 338.5,425.3 C 338.6,424.5 338.6,423.7 338.7,423.0 C 338.8,422.2 339.0,421.4 339.1,420.6 C 339.2,419.8 339.4,419.1 339.5,418.3 C 339.7,417.6 339.8,416.8 340.0,416.1 C 340.2,415.3 340.4,414.6 340.6,413.9 C 340.8,413.2 341.0,412.4 341.2,411.7 C 341.4,411.0 341.6,410.3 341.8,409.7 C 342.0,409.0 342.2,408.3 342.4,407.6 C 342.7,407.0 342.9,406.3 343.1,405.7 C 343.3,405.0 343.5,404.4 343.7,403.8 C 344.0,403.1 344.2,402.5 344.4,401.9 C 344.6,401.3 344.8,400.7 345.1,400.1 C 345.3,399.5 345.5,398.9 345.7,398.3 C 345.9,397.7 346.1,397.1 346.3,396.6 C 346.5,396.0 346.7,395.4 346.9,394.9 C 347.1,394.3 347.3,393.7 347.5,393.2 C 347.7,392.6 347.9,392.1 348.0,391.5 C 348.2,390.9 348.4,390.4 348.5,389.8 C 348.7,389.3 348.8,388.7 349.0,388.2 C 349.1,387.6 349.3,387.1 349.4,386.5 C 349.6,386.0 349.7,385.4 349.8,384.9 C 349.9,384.3 350.1,383.7 350.2,383.2 C 350.3,382.6 350.4,382.0 350.5,381.5 C 350.7,380.9 350.8,380.3 350.9,379.8 C 351.0,379.2 351.2,378.6 351.3,378.0 C 351.4,377.5 351.6,376.9 351.7,376.3 C 351.9,375.7 352.0,375.2 352.2,374.6 C 352.3,374.0 352.5,373.4 352.7,372.9 C 352.9,372.3 353.1,371.7 353.3,371.1 C 353.5,370.6 353.7,370.0 354.0,369.5 C 354.2,368.9 354.5,368.3 354.7,367.8 C 355.0,367.2 355.3,366.7 355.5,366.2 C 355.8,365.6 356.1,365.1 356.4,364.6 C 356.7,364.0 357.1,363.5 357.4,363.0 C 357.7,362.5 358.1,362.0 358.4,361.4 C 358.8,360.9 359.1,360.4 359.5,359.9 C 359.8,359.4 360.2,358.9 360.6,358.4 C 360.9,357.9 361.3,357.4 361.7,356.9 C 362.1,356.4 362.4,355.9 362.8,355.4 C 363.2,354.9 363.6,354.4 364.0,353.8 C 364.4,353.3 364.8,352.8 365.2,352.3 C 365.6,351.8 366.0,351.2 366.4,350.7 C 366.8,350.2 367.2,349.6 367.6,349.1 C 368.0,348.6 368.4,348.0 368.9,347.5 C 369.3,347.0 369.7,346.4 370.2,345.9 C 370.6,345.3 371.1,344.8 371.6,344.3 C 372.0,343.7 372.5,343.2 373.0,342.7 C 373.5,342.1 374.0,341.6 374.5,341.1 C 375.0,340.6 375.5,340.1 376.0,339.5 C 376.6,339.0 377.1,338.5 377.7,338.0 C 378.2,337.6 378.8,337.1 379.4,336.6 C 380.0,336.1 380.6,335.6 381.2,335.2 C 381.8,334.7 382.4,334.3 383.0,333.9 C 383.6,333.4 384.3,333.0 384.9,332.6 C 385.6,332.2 386.2,331.8 386.9,331.4 C 387.6,331.0 388.2,330.6 388.9,330.2 C 389.6,329.9 390.3,329.5 391.0,329.2 C 391.7,328.8 392.4,328.5 393.2,328.2 C 393.9,327.9 394.6,327.6 395.4,327.3 C 396.1,327.0 396.9,326.7 397.6,326.5 C 398.4,326.2 399.1,326.0 399.9,325.8 C 400.7,325.6 401.5,325.4 402.2,325.3 C 403.0,325.1 403.8,325.0 404.6,324.8 C 405.4,324.7 406.2,324.6 407.0,324.6 C 407.8,324.5 408.6,324.5 409.4,324.5 C 410.2,324.5 411.0,324.5 411.8,324.6 C 412.6,324.6 413.4,324.7 414.2,324.8 C 415.0,325.0 415.7,325.1 416.5,325.3 C 417.3,325.5 418.1,325.7 418.8,325.9 C 419.6,326.1 420.3,326.4 421.1,326.7 C 421.8,327.0 422.6,327.3 423.3,327.6 C 424.0,327.9 424.7,328.3 425.4,328.7 C 426.1,329.1 426.8,329.5 427.5,329.9 C 428.2,330.3 428.9,330.8 429.5,331.2 C 430.2,331.7 430.8,332.1 431.4,332.6 C 432.1,333.1 432.7,333.6 433.3,334.1 C 433.9,334.6 434.5,335.2 435.0,335.7 C 435.6,336.3 436.2,336.8 436.7,337.4 C 437.3,337.9 437.8,338.5 438.3,339.1 C 438.8,339.7 439.3,340.3 439.8,340.9 C 440.3,341.5 440.8,342.1 441.2,342.7 C 441.7,343.3 442.1,344.0 442.6,344.6 C 443.0,345.2 443.4,345.9 443.8,346.5 C 444.2,347.2 444.5,347.9 444.9,348.5 C 445.3,349.2 445.6,349.9 445.9,350.5 C 446.3,351.2 446.6,351.9 446.9,352.5 C 447.2,353.2 447.5,353.9 447.8,354.6 C 448.0,355.2 448.3,355.9 448.6,356.6 C 448.8,357.3 449.1,357.9 449.3,358.6 C 449.6,359.2 449.8,359.9 450.0,360.6 C 450.3,361.2 450.5,361.8 450.7,362.5 C 451.0,363.1 451.2,363.7 451.4,364.4 C 451.6,365.0 451.9,365.6 452.1,366.2 C 452.4,366.8 452.6,367.4 452.8,368.0 C 453.1,368.6 453.3,369.1 453.6,369.7 C 453.9,370.3 454.1,370.9 454.4,371.4 C 454.7,372.0 455.0,372.5 455.2,373.1 C 455.5,373.6 455.8,374.2 456.1,374.7 C 456.4,375.3 456.7,375.8 457.0,376.4 C 457.3,376.9 457.6,377.5 457.9,378.1 C 458.2,378.6 458.5,379.2 458.8,379.7 C 459.1,380.3 459.4,380.9 459.7,381.4 C 460.0,382.0 460.3,382.6 460.5,383.2 C 460.8,383.7 461.1,384.3 461.3,384.9 C 461.6,385.5 461.9,386.1 462.1,386.7 C 462.3,387.3 462.6,387.9 462.8,388.5 C 463.0,389.2 463.2,389.8 463.4,390.4 C 463.5,391.0 463.7,391.7 463.9,392.3 C 464.0,392.9 464.2,393.6 464.3,394.2 C 464.4,394.9 464.5,395.5 464.6,396.2 C 464.7,396.8 464.8,397.5 464.9,398.1 C 465.0,398.8 465.0,399.4 465.1,400.1 Z"/>
    <path d="M 501.9,398.0 C 502.0,399.0 502.1,400.1 502.1,401.1 C 502.1,402.2 502.2,403.2 502.1,404.3 C 502.1,405.3 502.1,406.4 502.1,407.5 C 502.0,408.5 501.9,409.6 501.9,410.6 C 501.8,411.7 501.6,412.7 501.5,413.8 C 501.3,414.8 501.2,415.9 501.0,416.9 C 500.8,418.0 500.5,419.0 500.3,420.0 C 500.0,421.1 499.8,422.1 499.5,423.1 C 499.2,424.1 498.8,425.1 498.5,426.1 C 498.1,427.1 497.8,428.1 497.4,429.1 C 497.0,430.1 496.6,431.1 496.2,432.0 C 495.8,433.0 495.3,434.0 494.9,434.9 C 494.4,435.9 494.0,436.8 493.5,437.7 C 493.0,438.7 492.5,439.6 492.0,440.5 C 491.5,441.5 491.0,442.4 490.5,443.3 C 490.0,444.2 489.5,445.1 489.0,446.0 C 488.5,446.9 487.9,447.8 487.4,448.7 C 486.9,449.6 486.3,450.5 485.8,451.4 C 485.2,452.3 484.7,453.2 484.1,454.1 C 483.6,455.0 483.0,455.8 482.4,456.7 C 481.8,457.6 481.2,458.5 480.6,459.3 C 480.0,460.2 479.4,461.0 478.8,461.9 C 478.2,462.7 477.5,463.6 476.9,464.4 C 476.2,465.2 475.6,466.1 474.9,466.9 C 474.2,467.7 473.6,468.5 472.9,469.3 C 472.2,470.1 471.4,470.9 470.7,471.6 C 470.0,472.4 469.3,473.2 468.5,473.9 C 467.8,474.7 467.0,475.4 466.2,476.2 C 465.5,476.9 464.7,477.6 463.9,478.4 C 463.1,479.1 462.3,479.8 461.5,480.5 C 460.7,481.2 459.9,481.9 459.0,482.6 C 458.2,483.3 457.4,484.0 456.5,484.6 C 455.7,485.3 454.8,486.0 454.0,486.7 C 453.1,487.3 452.2,488.0 451.4,488.6 C 450.5,489.3 449.6,489.9 448.7,490.5 C 447.8,491.2 446.9,491.8 446.0,492.4 C 445.0,493.0 444.1,493.6 443.1,494.1 C 442.2,494.7 441.2,495.3 440.3,495.8 C 439.3,496.3 438.3,496.9 437.3,497.3 C 436.3,497.8 435.3,498.3 434.3,498.7 C 433.2,499.2 432.2,499.6 431.2,499.9 C 430.1,500.3 429.0,500.7 428.0,501.0 C 426.9,501.3 425.8,501.6 424.7,501.8 C 423.7,502.1 422.6,502.3 421.5,502.5 C 420.4,502.7 419.3,502.8 418.2,503.0 C 417.0,503.1 415.9,503.2 414.8,503.3 C 413.7,503.4 412.6,503.4 411.5,503.4 C 410.4,503.5 409.3,503.5 408.2,503.5 C 407.1,503.5 405.9,503.4 404.8,503.4 C 403.7,503.4 402.6,503.3 401.5,503.3 C 400.4,503.2 399.3,503.2 398.2,503.1 C 397.1,503.0 396.0,503.0 394.9,502.9 C 393.8,502.9 392.7,502.8 391.6,502.7 C 390.5,502.7 389.4,502.6 388.3,502.5 C 387.2,502.5 386.1,502.4 385.0,502.4 C 383.9,502.3 382.8,502.2 381.6,502.2 C 380.5,502.1 379.4,502.1 378.3,502.0 C 377.1,502.0 376.0,501.9 374.8,501.8 C 373.7,501.8 372.6,501.7 371.4,501.6 C 370.2,501.5 369.1,501.4 367.9,501.4 C 366.8,501.3 365.6,501.1 364.4,501.0 C 363.2,500.9 362.1,500.8 360.9,500.6 C 359.7,500.5 358.5,500.3 357.3,500.1 C 356.1,499.9 354.9,499.7 353.7,499.5 C 352.5,499.3 351.3,499.1 350.1,498.8 C 348.9,498.6 347.7,498.3 346.5,498.0 C 345.3,497.7 344.1,497.4 342.9,497.0 C 341.7,496.7 340.5,496.3 339.3,495.9 C 338.1,495.5 337.0,495.1 335.8,494.7 C 334.6,494.2 333.4,493.8 332.3,493.3 C 331.1,492.8 329.9,492.3 328.8,491.7 C 327.7,491.1 326.5,490.6 325.4,489.9 C 324.3,489.3 323.2,488.7 322.2,488.0 C 321.1,487.3 320.0,486.6 319.0,485.8 C 318.0,485.0 317.0,484.2 316.1,483.4 C 315.1,482.6 314.2,481.7 313.3,480.8 C 312.4,479.9 311.6,478.9 310.8,478.0 C 310.0,477.0 309.2,476.0 308.5,474.9 C 307.7,473.9 307.1,472.8 306.4,471.7 C 305.8,470.6 305.2,469.5 304.7,468.3 C 304.2,467.1 303.7,466.0 303.2,464.7 C 302.8,463.5 302.4,462.3 302.0,461.1 C 301.7,459.8 301.4,458.6 301.1,457.3 C 300.9,456.1 300.7,454.8 300.5,453.5 C 300.3,452.2 300.2,450.9 300.0,449.7 C 299.9,448.4 299.9,447.1 299.8,445.8 C 299.8,444.5 299.8,443.3 299.8,442.0 C 299.8,440.7 299.8,439.4 299.9,438.2 C 299.9,436.9 300.0,435.7 300.1,434.5 C 300.2,433.2 300.3,432.0 300.4,430.8 C 300.6,429.6 300.7,428.4 300.9,427.2 C 301.0,426.0 301.2,424.8 301.4,423.7 C 301.6,422.5 301.8,421.3 302.0,420.2 C 302.2,419.1 302.4,417.9 302.6,416.8 C 302.9,415.7 303.1,414.6 303.4,413.5 C 303.6,412.4 303.9,411.3 304.2,410.2 C 304.5,409.2 304.8,408.1 305.1,407.1 C 305.4,406.0 305.7,405.0 306.0,404.0 C 306.4,402.9 306.7,401.9 307.0,400.9 C 307.4,399.9 307.7,398.9 308.1,398.0 C 308.4,397.0 308.8,396.0 309.1,395.0 C 309.5,394.1 309.9,393.1 310.2,392.2 C 310.6,391.3 310.9,390.3 311.3,389.4 C 311.6,388.5 312.0,387.6 312.3,386.7 C 312.7,385.8 313.0,384.9 313.3,384.0 C 313.7,383.1 314.0,382.2 314.3,381.3 C 314.6,380.4 314.9,379.5 315.2,378.7 C 315.5,377.8 315.7,376.9 316.0,376.0 C 316.3,375.1 316.6,374.2 316.8,373.3 C 317.1,372.5 317.3,371.6 317.6,370.7 C 317.9,369.8 318.1,368.9 318.4,368.0 C 318.6,367.1 318.9,366.2 319.1,365.3 C 319.4,364.4 319.6,363.5 319.9,362.6 C 320.1,361.7 320.4,360.8 320.7,359.9 C 321.0,359.0 321.3,358.1 321.6,357.2 C 321.9,356.3 322.2,355.4 322.5,354.5 C 322.8,353.6 323.1,352.7 323.5,351.8 C 323.8,350.9 324.2,350.0 324.5,349.1 C 324.9,348.2 325.3,347.3 325.7,346.4 C 326.1,345.5 326.5,344.6 326.9,343.7 C 327.3,342.8 327.7,341.9 328.2,341.0 C 328.6,340.2 329.0,339.3 329.5,338.4 C 330.0,337.5 330.4,336.6 330.9,335.7 C 331.4,334.8 331.9,333.9 332.3,333.0 C 332.8,332.1 333.4,331.2 333.9,330.3 C 334.4,329.4 334.9,328.5 335.5,327.6 C 336.0,326.7 336.5,325.8 337.1,324.9 C 337.7,324.0 338.3,323.1 338.9,322.2 C 339.5,321.3 340.1,320.4 340.7,319.5 C 341.3,318.7 342.0,317.8 342.6,316.9 C 343.3,316.0 344.0,315.2 344.7,314.3 C 345.4,313.5 346.1,312.6 346.9,311.8 C 347.6,311.0 348.3,310.2 349.1,309.3 C 349.9,308.5 350.7,307.7 351.5,307.0 C 352.3,306.2 353.1,305.4 354.0,304.7 C 354.8,303.9 355.7,303.2 356.6,302.4 C 357.5,301.7 358.3,301.0 359.3,300.3 C 360.2,299.6 361.1,298.9 362.0,298.2 C 363.0,297.5 363.9,296.8 364.9,296.1 C 365.8,295.4 366.8,294.8 367.8,294.1 C 368.8,293.4 369.8,292.8 370.8,292.1 C 371.8,291.5 372.8,290.8 373.8,290.2 C 374.9,289.5 375.9,288.9 377.0,288.2 C 378.1,287.6 379.1,287.0 380.2,286.3 C 381.3,285.7 382.4,285.1 383.6,284.5 C 384.7,283.9 385.8,283.3 387.0,282.8 C 388.1,282.2 389.3,281.6 390.5,281.1 C 391.7,280.6 392.9,280.1 394.1,279.6 C 395.3,279.1 396.5,278.7 397.8,278.3 C 399.0,277.9 400.3,277.5 401.5,277.1 C 402.8,276.8 404.1,276.5 405.3,276.3 C 406.6,276.0 407.9,275.8 409.2,275.7 C 410.5,275.5 411.8,275.4 413.1,275.4 C 414.4,275.3 415.7,275.3 417.0,275.4 C 418.3,275.4 419.6,275.5 420.9,275.7 C 422.2,275.8 423.5,276.1 424.7,276.3 C 426.0,276.6 427.3,276.9 428.5,277.2 C 429.7,277.6 431.0,278.0 432.2,278.5 C 433.4,278.9 434.6,279.4 435.8,280.0 C 437.0,280.5 438.1,281.1 439.3,281.7 C 440.4,282.3 441.6,283.0 442.7,283.7 C 443.8,284.4 444.8,285.1 445.9,285.9 C 446.9,286.6 448.0,287.4 449.0,288.3 C 450.0,289.1 451.0,290.0 451.9,290.8 C 452.9,291.7 453.8,292.6 454.7,293.6 C 455.6,294.5 456.5,295.5 457.3,296.4 C 458.2,297.4 459.0,298.4 459.8,299.4 C 460.6,300.5 461.3,301.5 462.1,302.6 C 462.8,303.6 463.5,304.7 464.2,305.7 C 464.9,306.8 465.5,307.9 466.1,309.0 C 466.8,310.1 467.4,311.2 468.0,312.3 C 468.5,313.4 469.1,314.5 469.6,315.6 C 470.2,316.7 470.7,317.8 471.2,318.9 C 471.7,320.0 472.2,321.1 472.7,322.2 C 473.1,323.3 473.6,324.3 474.1,325.4 C 474.5,326.5 475.0,327.5 475.4,328.5 C 475.9,329.6 476.3,330.6 476.8,331.6 C 477.2,332.6 477.7,333.6 478.1,334.6 C 478.6,335.6 479.0,336.5 479.5,337.5 C 480.0,338.4 480.4,339.4 480.9,340.3 C 481.4,341.2 481.9,342.1 482.3,343.0 C 482.8,343.9 483.3,344.8 483.8,345.7 C 484.3,346.6 484.8,347.5 485.3,348.4 C 485.9,349.3 486.4,350.1 486.9,351.0 C 487.4,351.9 487.9,352.8 488.4,353.7 C 488.9,354.6 489.4,355.5 489.9,356.4 C 490.4,357.3 490.9,358.2 491.4,359.1 C 491.8,360.0 492.3,360.9 492.7,361.8 C 493.2,362.8 493.6,363.7 494.0,364.6 C 494.5,365.6 494.9,366.5 495.3,367.5 C 495.6,368.5 496.0,369.4 496.4,370.4 C 496.7,371.4 497.0,372.4 497.4,373.3 C 497.7,374.3 498.0,375.3 498.3,376.3 C 498.5,377.3 498.8,378.3 499.0,379.3 C 499.3,380.4 499.5,381.4 499.7,382.4 C 500.0,383.4 500.2,384.4 500.4,385.5 C 500.5,386.5 500.7,387.5 500.9,388.6 C 501.0,389.6 501.2,390.6 501.3,391.7 C 501.5,392.7 501.6,393.8 501.7,394.8 C 501.8,395.8 501.9,396.9 501.9,398.0 Z"/>
    <path d="M 545.1,402.6 C 545.2,404.1 545.2,405.6 545.2,407.0 C 545.2,408.5 545.2,410.0 545.1,411.4 C 545.0,412.9 544.9,414.4 544.8,415.9 C 544.6,417.3 544.4,418.8 544.2,420.2 C 544.0,421.7 543.7,423.1 543.4,424.6 C 543.1,426.0 542.8,427.5 542.5,428.9 C 542.1,430.3 541.7,431.7 541.3,433.2 C 540.9,434.6 540.5,436.0 540.0,437.4 C 539.6,438.8 539.1,440.1 538.6,441.5 C 538.1,442.9 537.6,444.3 537.0,445.6 C 536.5,447.0 535.9,448.3 535.3,449.6 C 534.7,451.0 534.1,452.3 533.4,453.6 C 532.8,454.9 532.1,456.2 531.5,457.5 C 530.8,458.8 530.1,460.0 529.4,461.3 C 528.6,462.5 527.9,463.8 527.2,465.0 C 526.4,466.3 525.6,467.5 524.9,468.7 C 524.1,469.9 523.3,471.1 522.5,472.3 C 521.7,473.5 520.9,474.7 520.1,475.9 C 519.3,477.0 518.5,478.2 517.6,479.4 C 516.8,480.6 516.0,481.7 515.2,482.9 C 514.3,484.1 513.5,485.2 512.7,486.4 C 511.8,487.5 511.0,488.7 510.2,489.9 C 509.3,491.1 508.5,492.2 507.7,493.4 C 506.8,494.6 506.0,495.8 505.1,497.0 C 504.3,498.1 503.4,499.3 502.6,500.5 C 501.7,501.7 500.9,502.9 500.0,504.1 C 499.1,505.3 498.2,506.5 497.3,507.7 C 496.4,508.9 495.5,510.1 494.5,511.2 C 493.6,512.4 492.6,513.6 491.6,514.7 C 490.6,515.9 489.6,517.0 488.6,518.1 C 487.5,519.2 486.5,520.3 485.4,521.3 C 484.3,522.4 483.1,523.4 482.0,524.4 C 480.8,525.4 479.6,526.4 478.4,527.3 C 477.2,528.2 475.9,529.1 474.7,529.9 C 473.4,530.8 472.1,531.6 470.8,532.3 C 469.5,533.1 468.1,533.8 466.7,534.5 C 465.4,535.2 464.0,535.8 462.6,536.4 C 461.2,537.0 459.8,537.6 458.3,538.1 C 456.9,538.7 455.4,539.2 454.0,539.6 C 452.5,540.1 451.1,540.5 449.6,540.9 C 448.1,541.3 446.7,541.7 445.2,542.1 C 443.7,542.4 442.2,542.7 440.7,543.1 C 439.2,543.4 437.8,543.7 436.3,543.9 C 434.8,544.2 433.3,544.5 431.8,544.7 C 430.3,545.0 428.8,545.2 427.3,545.4 C 425.8,545.7 424.3,545.9 422.8,546.1 C 421.3,546.3 419.8,546.4 418.3,546.6 C 416.8,546.8 415.3,546.9 413.8,547.1 C 412.2,547.2 410.7,547.3 409.2,547.4 C 407.7,547.5 406.2,547.6 404.7,547.7 C 403.2,547.8 401.6,547.9 400.1,547.9 C 398.6,547.9 397.1,548.0 395.5,548.0 C 394.0,548.0 392.5,548.0 390.9,548.0 C 389.4,548.0 387.9,547.9 386.3,547.9 C 384.8,547.9 383.2,547.8 381.7,547.8 C 380.1,547.7 378.6,547.6 377.0,547.5 C 375.5,547.4 373.9,547.4 372.3,547.3 C 370.8,547.2 369.2,547.0 367.6,546.9 C 366.0,546.8 364.4,546.7 362.8,546.6 C 361.3,546.4 359.6,546.3 358.0,546.1 C 356.4,546.0 354.8,545.8 353.2,545.7 C 351.5,545.5 349.9,545.3 348.3,545.1 C 346.6,544.9 345.0,544.7 343.3,544.4 C 341.6,544.2 340.0,543.9 338.3,543.6 C 336.7,543.3 335.0,543.0 333.3,542.6 C 331.7,542.3 330.0,541.9 328.3,541.5 C 326.7,541.0 325.0,540.6 323.4,540.1 C 321.7,539.6 320.1,539.0 318.5,538.4 C 316.9,537.8 315.2,537.2 313.7,536.5 C 312.1,535.8 310.5,535.1 309.0,534.3 C 307.4,533.6 305.9,532.7 304.4,531.9 C 302.9,531.0 301.5,530.1 300.0,529.1 C 298.6,528.2 297.2,527.1 295.8,526.1 C 294.4,525.0 293.1,523.9 291.8,522.8 C 290.5,521.7 289.2,520.5 288.0,519.3 C 286.7,518.1 285.5,516.9 284.4,515.6 C 283.2,514.3 282.1,513.0 281.0,511.7 C 279.9,510.3 278.8,509.0 277.8,507.6 C 276.8,506.2 275.8,504.7 274.9,503.3 C 274.0,501.8 273.1,500.3 272.2,498.8 C 271.4,497.3 270.6,495.8 269.8,494.3 C 269.0,492.7 268.3,491.1 267.7,489.6 C 267.0,488.0 266.4,486.3 265.9,484.7 C 265.3,483.1 264.8,481.4 264.4,479.8 C 263.9,478.1 263.5,476.4 263.2,474.7 C 262.9,473.0 262.6,471.3 262.4,469.6 C 262.2,467.8 262.1,466.1 262.0,464.4 C 261.9,462.6 261.9,460.9 261.9,459.1 C 262.0,457.4 262.1,455.6 262.2,453.9 C 262.4,452.2 262.6,450.4 262.8,448.7 C 263.1,447.0 263.4,445.3 263.7,443.6 C 264.1,441.9 264.5,440.2 264.9,438.5 C 265.3,436.8 265.8,435.2 266.3,433.6 C 266.7,431.9 267.2,430.3 267.8,428.7 C 268.3,427.1 268.8,425.6 269.4,424.0 C 269.9,422.5 270.5,421.0 271.0,419.5 C 271.6,418.0 272.1,416.5 272.7,415.1 C 273.2,413.6 273.8,412.2 274.3,410.8 C 274.8,409.4 275.4,408.0 275.9,406.7 C 276.4,405.3 276.9,403.9 277.4,402.6 C 277.8,401.3 278.3,400.0 278.8,398.7 C 279.2,397.4 279.7,396.1 280.1,394.8 C 280.5,393.5 280.9,392.2 281.3,391.0 C 281.7,389.7 282.1,388.4 282.5,387.2 C 282.9,385.9 283.2,384.7 283.6,383.4 C 284.0,382.2 284.3,381.0 284.7,379.7 C 285.0,378.5 285.4,377.3 285.7,376.0 C 286.0,374.8 286.4,373.6 286.7,372.3 C 287.1,371.1 287.4,369.9 287.7,368.6 C 288.1,367.4 288.4,366.2 288.7,364.9 C 289.1,363.7 289.4,362.5 289.7,361.2 C 290.0,360.0 290.4,358.7 290.7,357.5 C 291.0,356.2 291.4,355.0 291.7,353.7 C 292.1,352.5 292.4,351.2 292.8,349.9 C 293.1,348.7 293.5,347.4 293.8,346.1 C 294.2,344.9 294.6,343.6 294.9,342.3 C 295.3,341.0 295.7,339.7 296.1,338.4 C 296.5,337.1 297.0,335.8 297.4,334.6 C 297.9,333.3 298.3,332.0 298.8,330.7 C 299.3,329.4 299.8,328.1 300.4,326.9 C 300.9,325.6 301.5,324.3 302.1,323.1 C 302.7,321.8 303.3,320.6 304.0,319.3 C 304.6,318.1 305.3,316.9 306.0,315.7 C 306.8,314.5 307.5,313.3 308.3,312.1 C 309.0,310.9 309.8,309.7 310.7,308.6 C 311.5,307.5 312.3,306.3 313.2,305.2 C 314.1,304.1 315.0,303.0 315.9,301.9 C 316.8,300.8 317.7,299.7 318.6,298.6 C 319.6,297.5 320.5,296.5 321.5,295.4 C 322.5,294.3 323.5,293.3 324.4,292.2 C 325.4,291.1 326.4,290.1 327.4,289.0 C 328.5,287.9 329.5,286.8 330.5,285.7 C 331.5,284.6 332.6,283.5 333.6,282.4 C 334.6,281.3 335.7,280.2 336.8,279.1 C 337.8,278.0 338.9,276.8 340.0,275.7 C 341.1,274.5 342.2,273.4 343.3,272.2 C 344.4,271.0 345.6,269.9 346.7,268.7 C 347.9,267.5 349.1,266.4 350.3,265.2 C 351.5,264.1 352.7,262.9 354.0,261.7 C 355.2,260.6 356.5,259.5 357.8,258.4 C 359.1,257.2 360.4,256.1 361.8,255.1 C 363.2,254.0 364.6,252.9 366.0,251.9 C 367.4,250.9 368.9,249.9 370.3,249.0 C 371.8,248.0 373.3,247.1 374.8,246.2 C 376.4,245.4 377.9,244.5 379.5,243.8 C 381.1,243.0 382.7,242.2 384.3,241.5 C 385.9,240.8 387.6,240.2 389.3,239.6 C 390.9,239.0 392.6,238.4 394.3,237.9 C 396.0,237.4 397.7,236.9 399.4,236.5 C 401.2,236.1 402.9,235.7 404.7,235.4 C 406.4,235.1 408.2,234.9 409.9,234.7 C 411.7,234.4 413.5,234.3 415.3,234.2 C 417.0,234.1 418.8,234.0 420.6,234.0 C 422.4,234.0 424.2,234.1 425.9,234.2 C 427.7,234.3 429.5,234.5 431.3,234.7 C 433.0,235.0 434.8,235.3 436.5,235.6 C 438.3,236.0 440.0,236.4 441.7,236.9 C 443.4,237.3 445.1,237.9 446.8,238.5 C 448.5,239.1 450.2,239.7 451.8,240.5 C 453.4,241.2 455.0,242.0 456.6,242.8 C 458.2,243.7 459.7,244.6 461.2,245.5 C 462.7,246.5 464.2,247.5 465.7,248.5 C 467.1,249.6 468.5,250.7 469.9,251.8 C 471.3,253.0 472.6,254.2 473.9,255.4 C 475.2,256.6 476.5,257.9 477.7,259.2 C 479.0,260.5 480.2,261.8 481.3,263.1 C 482.5,264.5 483.6,265.9 484.7,267.2 C 485.8,268.6 486.9,270.0 487.9,271.4 C 489.0,272.8 490.0,274.2 491.0,275.6 C 492.0,277.0 492.9,278.4 493.8,279.9 C 494.8,281.3 495.7,282.7 496.6,284.1 C 497.5,285.6 498.3,287.0 499.2,288.4 C 500.0,289.8 500.8,291.2 501.6,292.6 C 502.4,294.1 503.2,295.5 503.9,296.9 C 504.7,298.3 505.4,299.7 506.2,301.1 C 506.9,302.5 507.6,303.9 508.3,305.3 C 508.9,306.7 509.6,308.1 510.2,309.5 C 510.9,310.9 511.5,312.3 512.1,313.7 C 512.7,315.1 513.3,316.5 513.9,317.9 C 514.4,319.3 515.0,320.7 515.5,322.1 C 516.1,323.4 516.6,324.8 517.2,326.2 C 517.7,327.5 518.2,328.9 518.7,330.2 C 519.2,331.6 519.7,332.9 520.2,334.3 C 520.7,335.6 521.2,336.9 521.8,338.2 C 522.3,339.6 522.8,340.9 523.3,342.2 C 523.8,343.5 524.4,344.7 524.9,346.0 C 525.5,347.3 526.0,348.6 526.6,349.9 C 527.1,351.1 527.7,352.4 528.3,353.7 C 528.9,354.9 529.5,356.2 530.1,357.5 C 530.7,358.7 531.3,360.0 531.9,361.3 C 532.5,362.6 533.1,363.8 533.7,365.1 C 534.3,366.4 534.9,367.7 535.5,369.0 C 536.1,370.3 536.7,371.6 537.3,373.0 C 537.9,374.3 538.5,375.6 539.0,377.0 C 539.5,378.3 540.1,379.7 540.5,381.1 C 541.0,382.5 541.5,383.9 541.9,385.3 C 542.3,386.7 542.7,388.1 543.1,389.5 C 543.4,391.0 543.7,392.4 544.0,393.8 C 544.3,395.3 544.5,396.8 544.7,398.2 C 544.9,399.7 545.0,401.1 545.1,402.6 Z"/>
    <path d="M 582.4,404.9 C 582.6,406.8 582.7,408.7 582.8,410.6 C 582.9,412.4 582.9,414.3 582.8,416.2 C 582.8,418.1 582.7,420.0 582.5,421.9 C 582.4,423.7 582.1,425.6 581.9,427.5 C 581.6,429.3 581.2,431.2 580.8,433.0 C 580.5,434.9 580.0,436.7 579.5,438.5 C 579.1,440.4 578.5,442.2 578.0,444.0 C 577.4,445.8 576.8,447.5 576.1,449.3 C 575.5,451.1 574.8,452.8 574.1,454.6 C 573.4,456.3 572.7,458.0 572.0,459.7 C 571.2,461.4 570.5,463.1 569.7,464.8 C 568.9,466.5 568.1,468.2 567.3,469.9 C 566.4,471.5 565.6,473.2 564.8,474.8 C 563.9,476.4 563.0,478.1 562.2,479.7 C 561.3,481.3 560.4,482.9 559.5,484.5 C 558.6,486.1 557.6,487.7 556.7,489.3 C 555.8,490.8 554.8,492.4 553.8,494.0 C 552.9,495.5 551.9,497.1 550.9,498.6 C 549.9,500.1 548.9,501.7 547.8,503.2 C 546.8,504.7 545.8,506.2 544.7,507.7 C 543.7,509.2 542.6,510.7 541.5,512.2 C 540.4,513.6 539.4,515.1 538.3,516.6 C 537.2,518.1 536.1,519.5 534.9,521.0 C 533.8,522.5 532.7,523.9 531.6,525.4 C 530.4,526.8 529.3,528.3 528.1,529.8 C 527.0,531.2 525.8,532.7 524.6,534.1 C 523.4,535.6 522.2,537.1 521.0,538.5 C 519.8,540.0 518.6,541.4 517.4,542.9 C 516.1,544.3 514.9,545.8 513.6,547.2 C 512.3,548.6 511.1,550.0 509.7,551.5 C 508.4,552.9 507.1,554.3 505.7,555.6 C 504.3,557.0 502.9,558.3 501.5,559.7 C 500.0,561.0 498.6,562.3 497.1,563.5 C 495.6,564.8 494.0,566.0 492.5,567.1 C 490.9,568.3 489.3,569.4 487.6,570.5 C 486.0,571.6 484.3,572.6 482.6,573.6 C 480.9,574.5 479.2,575.4 477.4,576.3 C 475.7,577.1 473.9,577.9 472.1,578.7 C 470.2,579.4 468.4,580.1 466.6,580.7 C 464.7,581.3 462.8,581.9 460.9,582.4 C 459.1,582.9 457.2,583.4 455.2,583.8 C 453.3,584.2 451.4,584.6 449.5,585.0 C 447.6,585.3 445.6,585.6 443.7,585.9 C 441.8,586.2 439.9,586.4 437.9,586.6 C 436.0,586.8 434.1,587.0 432.1,587.2 C 430.2,587.4 428.3,587.6 426.4,587.7 C 424.4,587.9 422.5,588.0 420.6,588.2 C 418.7,588.3 416.7,588.4 414.8,588.6 C 412.9,588.7 411.0,588.8 409.1,588.9 C 407.1,589.0 405.2,589.2 403.3,589.3 C 401.3,589.4 399.4,589.5 397.5,589.6 C 395.5,589.7 393.6,589.7 391.6,589.8 C 389.7,589.9 387.7,590.0 385.8,590.0 C 383.8,590.1 381.9,590.1 379.9,590.1 C 377.9,590.1 375.9,590.1 373.9,590.1 C 372.0,590.1 370.0,590.1 368.0,590.0 C 366.0,589.9 364.0,589.9 362.0,589.8 C 359.9,589.7 357.9,589.5 355.9,589.4 C 353.9,589.3 351.9,589.1 349.8,588.9 C 347.8,588.7 345.7,588.5 343.7,588.3 C 341.6,588.1 339.6,587.9 337.5,587.6 C 335.4,587.3 333.4,587.0 331.3,586.7 C 329.2,586.4 327.1,586.1 325.0,585.7 C 322.9,585.4 320.8,585.0 318.7,584.6 C 316.6,584.2 314.5,583.7 312.4,583.3 C 310.3,582.8 308.2,582.3 306.1,581.7 C 304.0,581.2 301.8,580.6 299.7,580.0 C 297.6,579.4 295.5,578.7 293.4,578.0 C 291.4,577.3 289.3,576.5 287.2,575.7 C 285.2,574.8 283.1,574.0 281.1,573.0 C 279.1,572.1 277.1,571.1 275.2,570.0 C 273.2,569.0 271.3,567.9 269.4,566.7 C 267.6,565.5 265.7,564.3 263.9,563.0 C 262.2,561.7 260.4,560.3 258.7,558.9 C 257.0,557.4 255.4,555.9 253.8,554.4 C 252.2,552.9 250.7,551.2 249.2,549.6 C 247.7,547.9 246.3,546.2 245.0,544.5 C 243.6,542.7 242.3,540.9 241.1,539.1 C 239.8,537.3 238.7,535.4 237.5,533.5 C 236.4,531.6 235.4,529.6 234.4,527.6 C 233.4,525.7 232.4,523.7 231.5,521.6 C 230.7,519.6 229.8,517.5 229.1,515.5 C 228.3,513.4 227.6,511.3 227.0,509.2 C 226.3,507.1 225.7,505.0 225.2,502.8 C 224.6,500.7 224.2,498.5 223.8,496.4 C 223.3,494.2 223.0,492.1 222.7,489.9 C 222.4,487.7 222.2,485.5 222.0,483.4 C 221.9,481.2 221.8,479.0 221.7,476.8 C 221.7,474.6 221.7,472.4 221.8,470.2 C 221.9,468.1 222.1,465.9 222.3,463.7 C 222.5,461.6 222.8,459.4 223.2,457.2 C 223.5,455.1 223.9,453.0 224.4,450.9 C 224.8,448.7 225.3,446.6 225.9,444.6 C 226.4,442.5 227.1,440.4 227.7,438.4 C 228.3,436.4 229.0,434.4 229.7,432.4 C 230.4,430.4 231.1,428.5 231.9,426.6 C 232.6,424.7 233.4,422.8 234.1,420.9 C 234.9,419.1 235.6,417.2 236.4,415.4 C 237.1,413.6 237.9,411.8 238.6,410.1 C 239.4,408.3 240.1,406.6 240.8,404.9 C 241.5,403.2 242.2,401.5 242.8,399.9 C 243.5,398.2 244.1,396.6 244.7,394.9 C 245.3,393.3 245.8,391.7 246.4,390.1 C 246.9,388.5 247.4,386.9 247.9,385.3 C 248.4,383.7 248.9,382.1 249.3,380.5 C 249.8,379.0 250.2,377.4 250.6,375.8 C 251.0,374.2 251.4,372.6 251.8,371.1 C 252.2,369.5 252.6,367.9 252.9,366.3 C 253.3,364.7 253.7,363.2 254.1,361.6 C 254.4,360.0 254.8,358.4 255.2,356.8 C 255.6,355.2 256.0,353.6 256.4,352.0 C 256.8,350.4 257.2,348.8 257.6,347.2 C 258.0,345.6 258.4,344.0 258.9,342.4 C 259.3,340.8 259.8,339.2 260.3,337.6 C 260.8,336.0 261.3,334.4 261.8,332.8 C 262.3,331.2 262.8,329.6 263.3,328.0 C 263.9,326.4 264.4,324.8 265.0,323.2 C 265.6,321.5 266.2,319.9 266.8,318.3 C 267.4,316.7 268.0,315.1 268.7,313.5 C 269.3,311.8 270.0,310.2 270.7,308.6 C 271.4,307.0 272.1,305.4 272.9,303.8 C 273.6,302.2 274.4,300.6 275.2,299.0 C 276.0,297.4 276.8,295.8 277.7,294.2 C 278.6,292.6 279.4,291.1 280.4,289.5 C 281.3,288.0 282.2,286.4 283.2,284.9 C 284.2,283.4 285.2,281.8 286.3,280.4 C 287.3,278.9 288.4,277.4 289.5,275.9 C 290.7,274.5 291.8,273.0 293.0,271.6 C 294.1,270.2 295.4,268.8 296.6,267.4 C 297.8,266.0 299.1,264.6 300.3,263.2 C 301.6,261.9 302.9,260.5 304.2,259.2 C 305.5,257.8 306.9,256.5 308.2,255.1 C 309.6,253.8 310.9,252.5 312.3,251.1 C 313.7,249.8 315.1,248.4 316.5,247.1 C 317.9,245.7 319.3,244.4 320.8,243.0 C 322.2,241.7 323.7,240.3 325.1,238.9 C 326.6,237.5 328.1,236.1 329.6,234.7 C 331.1,233.3 332.6,231.9 334.2,230.5 C 335.7,229.0 337.3,227.6 338.9,226.2 C 340.5,224.8 342.1,223.3 343.8,221.9 C 345.5,220.5 347.1,219.1 348.9,217.7 C 350.6,216.3 352.3,214.9 354.1,213.5 C 355.9,212.2 357.7,210.8 359.6,209.5 C 361.5,208.2 363.4,207.0 365.3,205.8 C 367.2,204.6 369.2,203.4 371.2,202.3 C 373.2,201.2 375.2,200.2 377.3,199.2 C 379.3,198.2 381.4,197.3 383.6,196.4 C 385.7,195.6 387.8,194.8 390.0,194.1 C 392.2,193.4 394.4,192.8 396.6,192.2 C 398.8,191.7 401.0,191.2 403.3,190.8 C 405.5,190.5 407.8,190.1 410.0,189.9 C 412.3,189.7 414.6,189.5 416.8,189.4 C 419.1,189.4 421.4,189.4 423.6,189.4 C 425.9,189.5 428.2,189.6 430.4,189.9 C 432.7,190.1 435.0,190.4 437.2,190.7 C 439.4,191.1 441.7,191.5 443.9,192.0 C 446.1,192.5 448.3,193.1 450.5,193.7 C 452.7,194.4 454.8,195.1 457.0,195.9 C 459.1,196.6 461.2,197.5 463.3,198.4 C 465.4,199.3 467.4,200.3 469.4,201.3 C 471.4,202.4 473.4,203.5 475.4,204.7 C 477.3,205.8 479.2,207.1 481.1,208.4 C 483.0,209.7 484.8,211.0 486.6,212.5 C 488.3,213.9 490.1,215.4 491.8,216.9 C 493.4,218.4 495.1,220.0 496.7,221.6 C 498.3,223.2 499.8,224.9 501.3,226.6 C 502.8,228.3 504.2,230.1 505.6,231.9 C 507.0,233.6 508.4,235.4 509.7,237.3 C 511.0,239.1 512.2,240.9 513.5,242.8 C 514.7,244.6 515.9,246.5 517.0,248.4 C 518.2,250.2 519.3,252.1 520.4,254.0 C 521.4,255.8 522.5,257.7 523.5,259.6 C 524.5,261.4 525.5,263.3 526.5,265.1 C 527.5,267.0 528.5,268.8 529.4,270.6 C 530.3,272.4 531.3,274.2 532.2,276.0 C 533.1,277.8 534.0,279.6 534.9,281.4 C 535.7,283.1 536.6,284.9 537.5,286.6 C 538.3,288.4 539.2,290.1 540.0,291.8 C 540.8,293.5 541.6,295.3 542.5,297.0 C 543.3,298.7 544.0,300.4 544.8,302.1 C 545.6,303.8 546.4,305.5 547.1,307.2 C 547.9,308.8 548.6,310.5 549.4,312.2 C 550.1,313.9 550.8,315.6 551.5,317.3 C 552.2,318.9 552.9,320.6 553.6,322.3 C 554.3,324.0 554.9,325.6 555.6,327.3 C 556.3,329.0 557.0,330.6 557.6,332.3 C 558.3,334.0 558.9,335.6 559.6,337.3 C 560.2,338.9 560.9,340.6 561.6,342.3 C 562.2,343.9 562.9,345.6 563.6,347.2 C 564.2,348.9 564.9,350.5 565.6,352.2 C 566.3,353.8 566.9,355.5 567.6,357.2 C 568.3,358.8 569.0,360.5 569.7,362.2 C 570.4,363.9 571.1,365.6 571.7,367.3 C 572.4,369.0 573.1,370.7 573.7,372.4 C 574.4,374.1 575.1,375.9 575.7,377.6 C 576.3,379.4 576.9,381.1 577.5,382.9 C 578.0,384.7 578.6,386.5 579.1,388.3 C 579.6,390.1 580.1,391.9 580.5,393.8 C 580.9,395.6 581.3,397.5 581.6,399.3 C 581.9,401.2 582.2,403.0 582.4,404.9 Z"/>
    <path d="M 626.8,409.5 C 626.9,411.8 627.0,414.1 627.0,416.3 C 627.0,418.6 626.9,420.9 626.8,423.2 C 626.6,425.4 626.5,427.7 626.2,430.0 C 626.0,432.2 625.6,434.5 625.3,436.7 C 624.9,439.0 624.5,441.2 624.0,443.4 C 623.5,445.6 623.0,447.9 622.4,450.1 C 621.8,452.2 621.2,454.4 620.5,456.6 C 619.8,458.8 619.1,460.9 618.4,463.0 C 617.6,465.2 616.8,467.3 616.0,469.4 C 615.2,471.5 614.4,473.6 613.5,475.7 C 612.7,477.8 611.8,479.8 610.9,481.9 C 610.0,484.0 609.1,486.0 608.2,488.0 C 607.3,490.1 606.4,492.1 605.5,494.2 C 604.5,496.2 603.6,498.2 602.7,500.2 C 601.7,502.3 600.8,504.3 599.8,506.3 C 598.8,508.3 597.9,510.3 596.9,512.3 C 595.9,514.3 594.9,516.3 593.8,518.3 C 592.8,520.3 591.8,522.3 590.7,524.3 C 589.6,526.2 588.5,528.2 587.4,530.2 C 586.3,532.1 585.1,534.0 583.9,536.0 C 582.7,537.9 581.5,539.8 580.3,541.7 C 579.0,543.6 577.7,545.4 576.4,547.3 C 575.0,549.1 573.7,550.9 572.3,552.7 C 570.9,554.5 569.4,556.2 568.0,558.0 C 566.5,559.7 565.0,561.4 563.5,563.1 C 561.9,564.8 560.4,566.5 558.8,568.1 C 557.2,569.7 555.6,571.3 553.9,572.9 C 552.3,574.5 550.6,576.1 549.0,577.6 C 547.3,579.2 545.6,580.7 543.8,582.2 C 542.1,583.8 540.4,585.3 538.6,586.7 C 536.9,588.2 535.1,589.7 533.3,591.1 C 531.5,592.6 529.7,594.0 527.9,595.5 C 526.1,596.9 524.2,598.3 522.3,599.7 C 520.5,601.1 518.6,602.5 516.7,603.8 C 514.8,605.2 512.9,606.5 510.9,607.8 C 509.0,609.1 507.0,610.4 505.0,611.6 C 503.0,612.9 500.9,614.1 498.9,615.2 C 496.8,616.4 494.8,617.5 492.7,618.6 C 490.5,619.7 488.4,620.7 486.3,621.7 C 484.1,622.7 481.9,623.6 479.7,624.5 C 477.5,625.3 475.3,626.1 473.0,626.9 C 470.8,627.7 468.5,628.4 466.2,629.0 C 463.9,629.6 461.6,630.2 459.3,630.8 C 457.0,631.3 454.7,631.8 452.4,632.2 C 450.0,632.6 447.7,633.0 445.3,633.3 C 443.0,633.7 440.6,634.0 438.3,634.2 C 435.9,634.5 433.5,634.7 431.2,634.9 C 428.8,635.1 426.4,635.2 424.1,635.3 C 421.7,635.5 419.3,635.6 417.0,635.6 C 414.6,635.7 412.2,635.8 409.9,635.8 C 407.5,635.9 405.1,635.9 402.8,635.9 C 400.4,635.9 398.0,635.9 395.6,635.9 C 393.3,635.8 390.9,635.8 388.5,635.7 C 386.1,635.7 383.7,635.6 381.3,635.5 C 378.9,635.4 376.5,635.3 374.1,635.2 C 371.7,635.1 369.3,634.9 366.9,634.7 C 364.5,634.6 362.1,634.4 359.7,634.2 C 357.2,633.9 354.8,633.7 352.4,633.4 C 350.0,633.2 347.5,632.9 345.1,632.6 C 342.6,632.2 340.2,631.9 337.7,631.5 C 335.3,631.2 332.8,630.8 330.4,630.4 C 327.9,630.0 325.4,629.5 322.9,629.1 C 320.5,628.6 318.0,628.1 315.5,627.6 C 313.0,627.1 310.5,626.6 308.0,626.0 C 305.5,625.5 302.9,624.9 300.4,624.3 C 297.9,623.7 295.3,623.1 292.8,622.5 C 290.3,621.8 287.7,621.1 285.1,620.4 C 282.6,619.7 280.0,619.0 277.5,618.2 C 274.9,617.4 272.3,616.6 269.8,615.7 C 267.2,614.8 264.7,613.9 262.1,612.9 C 259.6,611.9 257.1,610.8 254.6,609.7 C 252.1,608.6 249.6,607.4 247.2,606.2 C 244.7,604.9 242.3,603.6 240.0,602.2 C 237.6,600.8 235.3,599.3 233.1,597.7 C 230.9,596.2 228.7,594.5 226.6,592.8 C 224.5,591.0 222.5,589.2 220.5,587.3 C 218.6,585.4 216.8,583.4 215.0,581.3 C 213.2,579.2 211.6,577.1 210.0,574.9 C 208.4,572.6 207.0,570.3 205.6,568.0 C 204.2,565.6 203.0,563.2 201.8,560.7 C 200.7,558.2 199.6,555.6 198.6,553.1 C 197.7,550.5 196.8,547.8 196.1,545.2 C 195.3,542.5 194.7,539.8 194.1,537.1 C 193.5,534.4 193.0,531.7 192.6,529.0 C 192.2,526.2 191.9,523.5 191.6,520.7 C 191.4,518.0 191.2,515.2 191.1,512.4 C 191.0,509.7 191.0,507.0 191.0,504.2 C 191.0,501.5 191.1,498.8 191.3,496.1 C 191.4,493.4 191.6,490.7 191.8,488.0 C 192.1,485.3 192.4,482.7 192.7,480.1 C 193.0,477.5 193.4,474.9 193.8,472.3 C 194.3,469.7 194.7,467.2 195.2,464.6 C 195.7,462.1 196.2,459.6 196.8,457.1 C 197.4,454.7 198.0,452.2 198.6,449.8 C 199.2,447.4 199.9,445.0 200.5,442.7 C 201.2,440.3 201.9,438.0 202.6,435.7 C 203.3,433.4 204.0,431.1 204.8,428.9 C 205.5,426.7 206.2,424.5 207.0,422.3 C 207.7,420.1 208.4,417.9 209.2,415.8 C 209.9,413.7 210.6,411.6 211.4,409.5 C 212.1,407.4 212.8,405.4 213.5,403.3 C 214.2,401.3 214.8,399.3 215.5,397.3 C 216.1,395.3 216.8,393.3 217.4,391.3 C 218.0,389.3 218.6,387.4 219.2,385.4 C 219.7,383.5 220.3,381.5 220.8,379.6 C 221.3,377.6 221.8,375.7 222.4,373.7 C 222.9,371.8 223.3,369.9 223.8,367.9 C 224.3,366.0 224.8,364.1 225.3,362.1 C 225.8,360.2 226.2,358.2 226.7,356.3 C 227.2,354.4 227.7,352.4 228.2,350.5 C 228.8,348.6 229.3,346.6 229.9,344.7 C 230.4,342.8 231.0,340.8 231.6,338.9 C 232.2,337.0 232.8,335.1 233.5,333.2 C 234.1,331.3 234.8,329.4 235.5,327.5 C 236.2,325.6 237.0,323.7 237.7,321.8 C 238.5,319.9 239.3,318.0 240.1,316.2 C 240.9,314.3 241.7,312.4 242.6,310.6 C 243.4,308.7 244.3,306.9 245.2,305.0 C 246.1,303.1 247.0,301.3 247.9,299.4 C 248.8,297.6 249.7,295.7 250.7,293.8 C 251.6,292.0 252.6,290.1 253.5,288.2 C 254.5,286.4 255.5,284.5 256.4,282.6 C 257.4,280.7 258.4,278.8 259.4,276.9 C 260.4,275.0 261.4,273.0 262.5,271.1 C 263.5,269.2 264.6,267.2 265.6,265.3 C 266.7,263.3 267.8,261.4 268.9,259.4 C 270.1,257.5 271.2,255.5 272.4,253.6 C 273.6,251.6 274.8,249.7 276.0,247.7 C 277.3,245.8 278.6,243.8 279.9,241.9 C 281.2,240.0 282.6,238.1 284.0,236.2 C 285.4,234.3 286.8,232.4 288.3,230.6 C 289.8,228.7 291.3,226.9 292.8,225.1 C 294.4,223.3 296.0,221.5 297.7,219.8 C 299.3,218.0 301.0,216.3 302.7,214.6 C 304.4,212.9 306.2,211.2 308.0,209.5 C 309.8,207.8 311.6,206.2 313.4,204.6 C 315.3,203.0 317.2,201.4 319.1,199.8 C 321.0,198.2 323.0,196.7 325.0,195.1 C 327.0,193.6 329.0,192.0 331.0,190.5 C 333.1,189.0 335.1,187.5 337.2,186.0 C 339.3,184.5 341.5,183.0 343.6,181.6 C 345.8,180.1 348.0,178.7 350.2,177.2 C 352.5,175.8 354.7,174.4 357.0,173.0 C 359.3,171.7 361.6,170.3 364.0,169.0 C 366.4,167.7 368.7,166.4 371.2,165.2 C 373.6,164.0 376.1,162.8 378.6,161.7 C 381.1,160.5 383.6,159.5 386.1,158.4 C 388.7,157.4 391.3,156.5 393.9,155.6 C 396.5,154.7 399.2,153.9 401.8,153.2 C 404.5,152.5 407.2,151.8 409.9,151.3 C 412.6,150.7 415.3,150.2 418.0,149.8 C 420.8,149.4 423.5,149.1 426.3,148.9 C 429.0,148.7 431.8,148.6 434.5,148.6 C 437.3,148.5 440.1,148.6 442.8,148.7 C 445.6,148.9 448.3,149.1 451.1,149.5 C 453.8,149.8 456.5,150.2 459.2,150.7 C 462.0,151.2 464.7,151.8 467.3,152.5 C 470.0,153.2 472.7,153.9 475.3,154.8 C 477.9,155.6 480.5,156.6 483.1,157.6 C 485.6,158.6 488.2,159.7 490.7,160.9 C 493.2,162.0 495.6,163.3 498.0,164.6 C 500.4,166.0 502.8,167.4 505.1,168.9 C 507.5,170.4 509.7,172.0 511.9,173.6 C 514.2,175.3 516.3,177.0 518.4,178.8 C 520.5,180.7 522.5,182.6 524.5,184.5 C 526.5,186.5 528.4,188.5 530.2,190.6 C 532.1,192.7 533.8,194.8 535.5,197.0 C 537.2,199.2 538.9,201.5 540.4,203.8 C 542.0,206.1 543.5,208.4 544.9,210.8 C 546.3,213.2 547.7,215.6 549.0,218.0 C 550.3,220.4 551.5,222.9 552.7,225.3 C 553.9,227.8 555.1,230.2 556.2,232.7 C 557.3,235.1 558.3,237.6 559.3,240.0 C 560.4,242.4 561.3,244.8 562.3,247.2 C 563.3,249.5 564.2,251.9 565.2,254.2 C 566.1,256.5 567.0,258.8 568.0,261.1 C 568.9,263.3 569.8,265.5 570.7,267.7 C 571.7,269.9 572.6,272.0 573.5,274.1 C 574.5,276.2 575.5,278.3 576.4,280.3 C 577.4,282.4 578.4,284.4 579.4,286.3 C 580.4,288.3 581.4,290.3 582.5,292.2 C 583.5,294.2 584.5,296.1 585.6,298.0 C 586.7,299.9 587.7,301.8 588.8,303.7 C 589.9,305.6 591.0,307.5 592.0,309.4 C 593.1,311.3 594.2,313.2 595.3,315.1 C 596.3,317.0 597.4,318.9 598.4,320.8 C 599.5,322.7 600.5,324.6 601.6,326.6 C 602.6,328.5 603.6,330.5 604.6,332.4 C 605.6,334.4 606.5,336.4 607.5,338.4 C 608.4,340.4 609.3,342.4 610.2,344.4 C 611.1,346.5 611.9,348.5 612.8,350.6 C 613.6,352.6 614.4,354.7 615.2,356.8 C 616.0,358.9 616.7,361.0 617.4,363.1 C 618.1,365.2 618.8,367.4 619.5,369.5 C 620.1,371.7 620.7,373.8 621.3,376.0 C 621.9,378.2 622.4,380.4 622.9,382.6 C 623.4,384.8 623.9,387.0 624.3,389.2 C 624.7,391.5 625.1,393.7 625.4,396.0 C 625.8,398.2 626.1,400.5 626.3,402.7 C 626.5,405.0 626.7,407.2 626.8,409.5 Z"/>
    <path d="M 658.8,404.0 C 658.9,406.6 659.0,409.3 659.0,412.0 C 659.0,414.7 659.0,417.4 658.9,420.1 C 658.7,422.8 658.6,425.4 658.3,428.1 C 658.1,430.8 657.8,433.5 657.4,436.1 C 657.1,438.8 656.6,441.5 656.1,444.1 C 655.7,446.8 655.1,449.4 654.5,452.0 C 653.9,454.6 653.2,457.2 652.5,459.8 C 651.8,462.4 651.0,465.0 650.1,467.5 C 649.3,470.0 648.3,472.6 647.4,475.1 C 646.4,477.6 645.4,480.0 644.3,482.5 C 643.2,484.9 642.1,487.4 640.9,489.8 C 639.8,492.2 638.6,494.5 637.3,496.9 C 636.1,499.2 634.8,501.6 633.5,503.9 C 632.2,506.2 630.8,508.4 629.5,510.7 C 628.1,513.0 626.7,515.2 625.3,517.4 C 623.9,519.7 622.5,521.9 621.1,524.1 C 619.7,526.3 618.3,528.5 616.9,530.7 C 615.5,532.9 614.1,535.1 612.7,537.3 C 611.3,539.5 609.9,541.7 608.6,543.9 C 607.2,546.1 605.8,548.4 604.4,550.6 C 603.0,552.8 601.6,555.0 600.3,557.3 C 598.9,559.5 597.5,561.8 596.1,564.0 C 594.7,566.3 593.3,568.5 591.8,570.8 C 590.4,573.1 589.0,575.3 587.5,577.6 C 586.0,579.9 584.5,582.1 583.0,584.3 C 581.4,586.6 579.9,588.8 578.2,591.0 C 576.6,593.2 574.9,595.4 573.2,597.5 C 571.5,599.7 569.8,601.8 567.9,603.8 C 566.1,605.9 564.3,607.9 562.3,609.9 C 560.4,611.9 558.4,613.8 556.4,615.7 C 554.4,617.5 552.3,619.4 550.2,621.1 C 548.0,622.9 545.9,624.6 543.6,626.2 C 541.4,627.9 539.1,629.4 536.8,631.0 C 534.5,632.5 532.2,634.0 529.8,635.4 C 527.4,636.8 525.0,638.1 522.6,639.4 C 520.1,640.7 517.7,642.0 515.2,643.2 C 512.7,644.4 510.2,645.6 507.6,646.7 C 505.1,647.8 502.5,648.9 500.0,649.9 C 497.4,650.9 494.8,651.9 492.2,652.9 C 489.6,653.8 487.0,654.7 484.4,655.6 C 481.7,656.5 479.1,657.3 476.4,658.1 C 473.8,658.9 471.1,659.7 468.4,660.4 C 465.8,661.2 463.1,661.9 460.4,662.5 C 457.7,663.1 455.0,663.7 452.2,664.3 C 449.5,664.9 446.8,665.4 444.1,665.9 C 441.3,666.3 438.6,666.8 435.8,667.1 C 433.1,667.5 430.3,667.9 427.6,668.2 C 424.8,668.5 422.0,668.7 419.3,668.9 C 416.5,669.1 413.7,669.3 410.9,669.4 C 408.1,669.6 405.4,669.7 402.6,669.7 C 399.8,669.8 397.0,669.8 394.2,669.9 C 391.4,669.9 388.6,669.9 385.9,669.8 C 383.1,669.8 380.3,669.7 377.5,669.7 C 374.7,669.6 371.9,669.5 369.0,669.5 C 366.2,669.4 363.4,669.3 360.6,669.2 C 357.7,669.1 354.9,669.0 352.1,668.8 C 349.2,668.7 346.3,668.6 343.5,668.5 C 340.6,668.3 337.7,668.2 334.8,668.0 C 331.9,667.9 328.9,667.7 326.0,667.5 C 323.1,667.3 320.1,667.1 317.2,666.8 C 314.2,666.6 311.2,666.3 308.2,666.0 C 305.3,665.7 302.3,665.3 299.3,664.9 C 296.3,664.5 293.2,664.1 290.2,663.5 C 287.2,663.0 284.2,662.5 281.2,661.8 C 278.2,661.2 275.2,660.5 272.2,659.8 C 269.2,659.0 266.3,658.2 263.3,657.3 C 260.3,656.4 257.4,655.5 254.5,654.4 C 251.5,653.4 248.6,652.3 245.7,651.1 C 242.8,649.9 240.0,648.7 237.1,647.4 C 234.3,646.1 231.5,644.7 228.7,643.3 C 225.9,641.8 223.2,640.3 220.5,638.7 C 217.7,637.2 215.0,635.5 212.4,633.8 C 209.8,632.1 207.1,630.4 204.6,628.6 C 202.0,626.7 199.5,624.9 197.0,622.9 C 194.5,621.0 192.0,619.0 189.6,616.9 C 187.3,614.8 184.9,612.7 182.6,610.5 C 180.4,608.3 178.1,606.0 176.0,603.7 C 173.8,601.4 171.8,599.0 169.8,596.6 C 167.8,594.1 165.9,591.6 164.0,589.0 C 162.2,586.4 160.5,583.7 158.9,581.0 C 157.2,578.3 155.7,575.5 154.3,572.7 C 152.9,569.9 151.6,567.0 150.4,564.0 C 149.2,561.0 148.1,558.0 147.2,555.0 C 146.3,551.9 145.5,548.8 144.8,545.7 C 144.1,542.5 143.5,539.4 143.1,536.2 C 142.6,533.0 142.3,529.7 142.1,526.5 C 141.9,523.3 141.9,520.0 141.9,516.8 C 141.9,513.5 142.0,510.3 142.3,507.0 C 142.5,503.8 142.8,500.5 143.2,497.3 C 143.6,494.1 144.1,490.9 144.7,487.7 C 145.2,484.6 145.9,481.4 146.5,478.3 C 147.2,475.2 148.0,472.2 148.7,469.1 C 149.5,466.1 150.3,463.1 151.1,460.2 C 151.9,457.2 152.8,454.3 153.7,451.4 C 154.5,448.6 155.4,445.7 156.3,443.0 C 157.2,440.2 158.1,437.4 159.0,434.7 C 159.9,432.0 160.8,429.4 161.7,426.7 C 162.6,424.1 163.5,421.5 164.3,418.9 C 165.2,416.4 166.1,413.9 167.0,411.4 C 167.8,408.9 168.7,406.4 169.5,404.0 C 170.4,401.5 171.2,399.1 172.0,396.7 C 172.8,394.3 173.7,391.9 174.5,389.6 C 175.3,387.3 176.0,384.9 176.8,382.6 C 177.6,380.3 178.3,378.0 179.1,375.7 C 179.8,373.4 180.6,371.2 181.3,368.9 C 182.0,366.6 182.7,364.4 183.3,362.1 C 184.0,359.9 184.7,357.6 185.3,355.4 C 185.9,353.1 186.5,350.9 187.1,348.6 C 187.7,346.4 188.3,344.1 188.9,341.9 C 189.5,339.6 190.0,337.3 190.5,335.1 C 191.1,332.8 191.6,330.5 192.1,328.2 C 192.7,325.9 193.2,323.6 193.7,321.3 C 194.3,318.9 194.8,316.6 195.3,314.3 C 195.9,311.9 196.4,309.6 197.0,307.2 C 197.6,304.9 198.2,302.5 198.9,300.2 C 199.5,297.8 200.2,295.4 200.9,293.1 C 201.6,290.7 202.4,288.4 203.2,286.0 C 204.0,283.7 204.9,281.4 205.8,279.1 C 206.7,276.8 207.7,274.5 208.7,272.2 C 209.7,269.9 210.8,267.6 211.9,265.4 C 213.0,263.2 214.2,261.0 215.4,258.8 C 216.7,256.6 217.9,254.4 219.3,252.3 C 220.6,250.2 222.0,248.0 223.4,246.0 C 224.8,243.9 226.2,241.8 227.7,239.7 C 229.2,237.7 230.7,235.6 232.2,233.6 C 233.7,231.5 235.3,229.5 236.9,227.5 C 238.4,225.4 240.0,223.4 241.6,221.4 C 243.2,219.3 244.9,217.3 246.5,215.3 C 248.1,213.2 249.8,211.2 251.4,209.1 C 253.1,207.0 254.8,204.9 256.5,202.8 C 258.1,200.7 259.8,198.6 261.6,196.5 C 263.3,194.3 265.0,192.2 266.8,190.0 C 268.6,187.8 270.4,185.7 272.2,183.5 C 274.0,181.3 275.9,179.1 277.8,176.9 C 279.7,174.7 281.6,172.5 283.5,170.3 C 285.5,168.2 287.5,166.0 289.6,163.8 C 291.6,161.7 293.7,159.5 295.9,157.4 C 298.0,155.3 300.2,153.2 302.5,151.1 C 304.7,149.1 307.0,147.0 309.4,145.0 C 311.7,143.1 314.1,141.1 316.6,139.2 C 319.0,137.3 321.5,135.4 324.0,133.6 C 326.6,131.8 329.2,130.1 331.8,128.4 C 334.5,126.7 337.1,125.0 339.9,123.4 C 342.6,121.8 345.4,120.3 348.2,118.8 C 351.0,117.3 353.8,115.9 356.7,114.5 C 359.6,113.1 362.6,111.8 365.5,110.6 C 368.5,109.3 371.5,108.1 374.5,107.0 C 377.5,105.9 380.6,104.9 383.7,103.9 C 386.8,102.9 389.9,102.0 393.1,101.2 C 396.2,100.4 399.4,99.7 402.6,99.0 C 405.8,98.4 409.0,97.8 412.2,97.4 C 415.4,96.9 418.7,96.6 421.9,96.3 C 425.2,96.1 428.4,95.9 431.7,95.9 C 435.0,95.9 438.2,95.9 441.5,96.1 C 444.7,96.3 448.0,96.7 451.2,97.1 C 454.4,97.5 457.6,98.1 460.8,98.8 C 464.0,99.5 467.1,100.3 470.3,101.2 C 473.4,102.1 476.5,103.1 479.5,104.3 C 482.6,105.4 485.6,106.7 488.5,108.1 C 491.5,109.4 494.4,110.9 497.3,112.5 C 500.1,114.1 503.0,115.7 505.7,117.5 C 508.5,119.2 511.2,121.0 513.8,122.9 C 516.5,124.8 519.1,126.8 521.6,128.9 C 524.2,130.9 526.6,133.0 529.1,135.2 C 531.5,137.3 533.9,139.5 536.2,141.8 C 538.5,144.0 540.7,146.3 542.9,148.6 C 545.1,151.0 547.3,153.3 549.4,155.8 C 551.5,158.2 553.5,160.6 555.5,163.1 C 557.4,165.5 559.3,168.0 561.2,170.6 C 563.1,173.1 564.9,175.6 566.6,178.2 C 568.3,180.8 570.0,183.4 571.6,186.0 C 573.3,188.6 574.8,191.3 576.3,193.9 C 577.9,196.6 579.3,199.2 580.7,201.9 C 582.1,204.6 583.4,207.3 584.7,210.0 C 586.0,212.7 587.2,215.4 588.4,218.1 C 589.6,220.8 590.7,223.6 591.8,226.3 C 592.9,229.0 593.9,231.7 595.0,234.3 C 596.0,237.0 597.0,239.7 597.9,242.3 C 598.9,245.0 599.8,247.6 600.8,250.2 C 601.7,252.8 602.6,255.4 603.6,257.9 C 604.5,260.5 605.4,263.0 606.3,265.5 C 607.3,268.0 608.2,270.4 609.2,272.8 C 610.1,275.3 611.1,277.7 612.1,280.0 C 613.1,282.4 614.1,284.7 615.2,287.1 C 616.3,289.4 617.3,291.7 618.5,294.0 C 619.6,296.2 620.7,298.5 621.9,300.8 C 623.0,303.0 624.2,305.3 625.4,307.5 C 626.6,309.8 627.8,312.0 629.0,314.3 C 630.3,316.5 631.5,318.8 632.7,321.1 C 634.0,323.4 635.2,325.7 636.4,328.0 C 637.6,330.3 638.8,332.6 639.9,335.0 C 641.1,337.4 642.2,339.7 643.3,342.1 C 644.4,344.5 645.5,347.0 646.5,349.4 C 647.5,351.9 648.5,354.4 649.4,356.9 C 650.3,359.4 651.1,361.9 651.9,364.5 C 652.7,367.0 653.4,369.6 654.1,372.2 C 654.7,374.8 655.3,377.4 655.8,380.0 C 656.4,382.6 656.8,385.3 657.2,387.9 C 657.6,390.6 657.9,393.2 658.2,395.9 C 658.5,398.6 658.7,401.3 658.8,404.0 Z"/>
    <path d="M 695.9,395.8 C 696.0,398.9 696.0,401.9 695.9,405.0 C 695.8,408.1 695.6,411.2 695.3,414.3 C 695.0,417.3 694.6,420.4 694.2,423.4 C 693.8,426.5 693.3,429.5 692.7,432.6 C 692.1,435.6 691.5,438.6 690.8,441.6 C 690.1,444.6 689.3,447.6 688.5,450.5 C 687.7,453.5 686.9,456.4 686.0,459.4 C 685.1,462.3 684.2,465.2 683.3,468.1 C 682.4,471.0 681.4,473.9 680.4,476.8 C 679.4,479.7 678.4,482.6 677.4,485.4 C 676.4,488.3 675.3,491.1 674.3,494.0 C 673.2,496.8 672.1,499.6 671.0,502.5 C 669.9,505.3 668.8,508.1 667.6,510.9 C 666.5,513.7 665.3,516.5 664.1,519.3 C 662.8,522.1 661.6,524.9 660.3,527.6 C 659.0,530.4 657.7,533.1 656.3,535.9 C 655.0,538.6 653.5,541.3 652.1,544.0 C 650.6,546.6 649.1,549.3 647.6,551.9 C 646.0,554.5 644.4,557.1 642.8,559.7 C 641.1,562.3 639.4,564.8 637.7,567.3 C 635.9,569.9 634.1,572.3 632.3,574.8 C 630.5,577.2 628.6,579.7 626.7,582.1 C 624.8,584.5 622.9,586.8 620.9,589.2 C 618.9,591.5 616.9,593.8 614.9,596.1 C 612.8,598.4 610.8,600.7 608.7,602.9 C 606.6,605.2 604.5,607.4 602.4,609.7 C 600.3,611.9 598.1,614.1 596.0,616.3 C 593.8,618.5 591.6,620.7 589.4,622.9 C 587.2,625.1 585.0,627.2 582.7,629.4 C 580.5,631.5 578.2,633.7 575.9,635.8 C 573.6,637.9 571.3,640.1 569.0,642.1 C 566.6,644.2 564.2,646.3 561.8,648.3 C 559.4,650.3 556.9,652.4 554.4,654.3 C 551.9,656.3 549.4,658.2 546.8,660.1 C 544.2,661.9 541.6,663.8 539.0,665.5 C 536.3,667.3 533.6,669.0 530.9,670.6 C 528.1,672.3 525.3,673.9 522.5,675.4 C 519.7,676.9 516.8,678.3 513.9,679.7 C 511.1,681.1 508.1,682.4 505.2,683.6 C 502.2,684.8 499.2,686.0 496.2,687.1 C 493.2,688.1 490.1,689.2 487.0,690.1 C 484.0,691.1 480.9,691.9 477.8,692.8 C 474.7,693.6 471.6,694.3 468.4,695.0 C 465.3,695.7 462.1,696.4 459.0,697.0 C 455.8,697.6 452.7,698.1 449.5,698.7 C 446.3,699.2 443.2,699.6 440.0,700.1 C 436.8,700.5 433.6,700.9 430.4,701.2 C 427.2,701.5 424.0,701.9 420.8,702.1 C 417.6,702.4 414.4,702.6 411.2,702.8 C 408.0,703.0 404.8,703.2 401.5,703.3 C 398.3,703.4 395.1,703.5 391.9,703.5 C 388.6,703.5 385.4,703.5 382.2,703.5 C 378.9,703.4 375.7,703.3 372.5,703.2 C 369.2,703.1 366.0,702.9 362.8,702.7 C 359.5,702.5 356.3,702.2 353.0,701.9 C 349.8,701.6 346.6,701.3 343.3,701.0 C 340.1,700.6 336.8,700.2 333.6,699.8 C 330.3,699.4 327.1,698.9 323.8,698.5 C 320.6,698.0 317.3,697.5 314.0,697.0 C 310.7,696.5 307.5,696.0 304.2,695.5 C 300.9,695.0 297.5,694.4 294.2,693.9 C 290.9,693.3 287.5,692.8 284.2,692.2 C 280.8,691.7 277.4,691.1 274.0,690.5 C 270.6,689.9 267.1,689.3 263.7,688.7 C 260.2,688.1 256.8,687.5 253.3,686.8 C 249.8,686.1 246.2,685.4 242.7,684.7 C 239.2,683.9 235.6,683.1 232.1,682.3 C 228.5,681.4 225.0,680.5 221.4,679.6 C 217.9,678.6 214.3,677.5 210.8,676.4 C 207.3,675.3 203.8,674.0 200.3,672.7 C 196.9,671.4 193.4,670.0 190.1,668.4 C 186.7,666.9 183.3,665.2 180.1,663.5 C 176.8,661.7 173.6,659.8 170.5,657.8 C 167.4,655.8 164.4,653.7 161.4,651.5 C 158.5,649.2 155.6,646.9 152.9,644.4 C 150.2,641.9 147.5,639.3 145.0,636.7 C 142.5,634.0 140.1,631.2 137.8,628.3 C 135.6,625.4 133.4,622.4 131.3,619.3 C 129.3,616.2 127.4,613.1 125.6,609.8 C 123.8,606.6 122.1,603.3 120.6,599.9 C 119.0,596.6 117.6,593.1 116.3,589.7 C 114.9,586.2 113.7,582.7 112.7,579.1 C 111.6,575.6 110.6,572.0 109.7,568.4 C 108.9,564.7 108.1,561.1 107.5,557.4 C 106.8,553.8 106.3,550.1 105.8,546.5 C 105.4,542.8 105.0,539.1 104.8,535.4 C 104.6,531.7 104.4,528.0 104.4,524.4 C 104.3,520.7 104.4,517.0 104.5,513.4 C 104.7,509.7 104.9,506.1 105.2,502.5 C 105.5,498.8 105.9,495.2 106.4,491.7 C 106.9,488.1 107.4,484.6 108.1,481.0 C 108.7,477.5 109.4,474.0 110.1,470.6 C 110.9,467.2 111.7,463.7 112.6,460.4 C 113.4,457.0 114.3,453.7 115.2,450.4 C 116.2,447.1 117.2,443.9 118.1,440.7 C 119.1,437.5 120.1,434.3 121.1,431.2 C 122.1,428.1 123.2,425.0 124.2,422.0 C 125.2,419.0 126.2,416.0 127.2,413.0 C 128.1,410.1 129.1,407.2 130.0,404.3 C 131.0,401.4 131.9,398.6 132.8,395.8 C 133.7,393.0 134.5,390.2 135.4,387.4 C 136.2,384.6 137.0,381.9 137.8,379.2 C 138.6,376.5 139.3,373.8 140.0,371.1 C 140.8,368.4 141.5,365.7 142.2,363.0 C 142.9,360.3 143.5,357.7 144.2,355.0 C 144.9,352.4 145.6,349.7 146.3,347.1 C 146.9,344.4 147.6,341.8 148.3,339.2 C 149.0,336.6 149.7,333.9 150.5,331.3 C 151.2,328.7 151.9,326.1 152.7,323.5 C 153.5,320.9 154.3,318.3 155.1,315.7 C 156.0,313.1 156.8,310.6 157.7,308.0 C 158.6,305.4 159.5,302.9 160.5,300.3 C 161.4,297.8 162.4,295.2 163.4,292.7 C 164.3,290.2 165.4,287.6 166.4,285.1 C 167.4,282.6 168.4,280.1 169.5,277.5 C 170.5,275.0 171.6,272.5 172.7,270.0 C 173.8,267.4 174.8,264.9 175.9,262.4 C 177.0,259.8 178.1,257.3 179.2,254.7 C 180.3,252.1 181.4,249.5 182.5,247.0 C 183.7,244.4 184.8,241.8 185.9,239.1 C 187.1,236.5 188.2,233.9 189.4,231.2 C 190.6,228.6 191.8,225.9 193.0,223.3 C 194.2,220.6 195.5,217.9 196.8,215.3 C 198.1,212.6 199.4,209.9 200.8,207.2 C 202.1,204.6 203.5,201.9 205.0,199.2 C 206.4,196.6 207.9,193.9 209.5,191.3 C 211.0,188.6 212.6,186.0 214.3,183.4 C 216.0,180.8 217.7,178.2 219.4,175.7 C 221.2,173.1 223.0,170.6 224.9,168.1 C 226.8,165.6 228.7,163.1 230.7,160.6 C 232.7,158.2 234.7,155.8 236.8,153.4 C 238.9,151.0 241.0,148.6 243.2,146.3 C 245.4,143.9 247.6,141.6 249.8,139.3 C 252.1,137.0 254.4,134.7 256.7,132.4 C 259.1,130.1 261.5,127.9 263.9,125.6 C 266.3,123.4 268.8,121.1 271.2,118.9 C 273.7,116.7 276.3,114.4 278.8,112.2 C 281.4,110.0 284.0,107.8 286.7,105.6 C 289.3,103.4 292.0,101.3 294.7,99.1 C 297.5,96.9 300.2,94.8 303.1,92.7 C 305.9,90.6 308.7,88.5 311.7,86.4 C 314.6,84.4 317.5,82.3 320.6,80.4 C 323.6,78.4 326.6,76.5 329.7,74.6 C 332.9,72.7 336.0,70.9 339.2,69.1 C 342.4,67.4 345.7,65.7 349.0,64.1 C 352.3,62.5 355.7,60.9 359.0,59.5 C 362.4,58.0 365.9,56.6 369.4,55.4 C 372.8,54.1 376.3,52.9 379.9,51.8 C 383.4,50.7 387.0,49.7 390.6,48.8 C 394.2,47.9 397.9,47.1 401.5,46.4 C 405.2,45.7 408.9,45.1 412.6,44.6 C 416.3,44.1 420.0,43.7 423.7,43.4 C 427.4,43.1 431.2,42.9 434.9,42.8 C 438.6,42.7 442.4,42.7 446.1,42.8 C 449.9,42.9 453.6,43.2 457.3,43.5 C 461.1,43.8 464.8,44.3 468.5,44.8 C 472.2,45.4 475.9,46.1 479.5,46.9 C 483.2,47.7 486.8,48.6 490.4,49.6 C 494.0,50.7 497.6,51.9 501.1,53.2 C 504.6,54.5 508.1,55.9 511.5,57.5 C 514.9,59.0 518.2,60.7 521.5,62.6 C 524.8,64.4 528.0,66.4 531.1,68.4 C 534.3,70.5 537.3,72.8 540.3,75.1 C 543.3,77.5 546.2,79.9 548.9,82.5 C 551.7,85.1 554.4,87.8 557.0,90.6 C 559.6,93.4 562.2,96.3 564.6,99.2 C 567.0,102.2 569.3,105.2 571.5,108.3 C 573.7,111.4 575.9,114.6 577.9,117.8 C 580.0,121.0 581.9,124.3 583.8,127.6 C 585.7,130.8 587.5,134.1 589.2,137.4 C 591.0,140.7 592.6,144.0 594.3,147.3 C 595.9,150.6 597.4,153.9 599.0,157.1 C 600.5,160.4 602.0,163.6 603.4,166.8 C 604.9,170.0 606.3,173.1 607.7,176.2 C 609.1,179.4 610.5,182.4 611.9,185.5 C 613.2,188.5 614.6,191.5 616.0,194.4 C 617.3,197.4 618.7,200.3 620.1,203.1 C 621.4,206.0 622.8,208.8 624.2,211.6 C 625.5,214.4 626.9,217.2 628.3,219.9 C 629.6,222.6 631.0,225.4 632.4,228.0 C 633.8,230.7 635.2,233.4 636.5,236.1 C 637.9,238.7 639.3,241.4 640.7,244.0 C 642.1,246.7 643.4,249.3 644.8,251.9 C 646.2,254.5 647.5,257.2 648.9,259.8 C 650.3,262.4 651.6,265.0 652.9,267.7 C 654.3,270.3 655.6,272.9 657.0,275.6 C 658.3,278.2 659.6,280.9 660.9,283.5 C 662.2,286.2 663.5,288.9 664.8,291.6 C 666.1,294.2 667.3,296.9 668.6,299.6 C 669.9,302.3 671.1,305.1 672.3,307.8 C 673.5,310.5 674.8,313.3 675.9,316.1 C 677.1,318.8 678.3,321.6 679.4,324.4 C 680.5,327.2 681.6,330.1 682.7,332.9 C 683.8,335.8 684.8,338.7 685.8,341.6 C 686.7,344.5 687.7,347.4 688.5,350.3 C 689.4,353.3 690.2,356.2 690.9,359.2 C 691.7,362.2 692.3,365.2 692.9,368.2 C 693.5,371.3 694.0,374.3 694.4,377.4 C 694.9,380.4 695.2,383.5 695.5,386.5 C 695.7,389.6 695.9,392.7 695.9,395.8 Z"/>
    <path d="M 739.6,394.5 C 739.7,397.9 739.8,401.4 739.8,404.9 C 739.8,408.3 739.7,411.8 739.6,415.3 C 739.5,418.7 739.4,422.2 739.1,425.7 C 738.9,429.1 738.6,432.6 738.2,436.0 C 737.8,439.5 737.4,442.9 736.9,446.4 C 736.4,449.8 735.8,453.2 735.1,456.6 C 734.5,460.0 733.7,463.4 732.9,466.8 C 732.1,470.2 731.2,473.6 730.2,476.9 C 729.3,480.2 728.2,483.5 727.1,486.8 C 726.0,490.1 724.8,493.4 723.6,496.6 C 722.4,499.9 721.1,503.1 719.7,506.2 C 718.3,509.4 716.9,512.6 715.5,515.7 C 714.0,518.9 712.5,522.0 711.0,525.0 C 709.4,528.1 707.9,531.2 706.3,534.2 C 704.6,537.3 703.0,540.3 701.4,543.3 C 699.7,546.3 698.0,549.3 696.3,552.3 C 694.6,555.3 692.9,558.2 691.2,561.2 C 689.4,564.2 687.7,567.1 685.9,570.0 C 684.1,573.0 682.3,575.9 680.5,578.8 C 678.7,581.8 676.9,584.7 675.0,587.6 C 673.1,590.5 671.2,593.3 669.3,596.2 C 667.4,599.1 665.4,601.9 663.4,604.8 C 661.4,607.6 659.4,610.4 657.3,613.2 C 655.3,616.0 653.1,618.8 651.0,621.5 C 648.8,624.2 646.6,626.9 644.3,629.6 C 642.1,632.2 639.8,634.9 637.4,637.5 C 635.0,640.0 632.6,642.6 630.2,645.1 C 627.7,647.6 625.2,650.1 622.7,652.5 C 620.1,654.9 617.5,657.3 614.9,659.6 C 612.3,662.0 609.6,664.3 606.9,666.5 C 604.2,668.8 601.4,671.0 598.6,673.2 C 595.9,675.4 593.0,677.5 590.2,679.7 C 587.4,681.8 584.5,683.9 581.6,685.9 C 578.7,688.0 575.8,690.0 572.8,692.0 C 569.9,694.0 566.9,696.0 563.9,698.0 C 560.8,699.9 557.8,701.8 554.7,703.7 C 551.7,705.6 548.6,707.4 545.4,709.2 C 542.3,711.0 539.1,712.8 535.9,714.5 C 532.7,716.2 529.5,717.9 526.2,719.4 C 523.0,721.0 519.6,722.6 516.3,724.0 C 513.0,725.5 509.6,726.9 506.2,728.2 C 502.8,729.5 499.3,730.7 495.8,731.9 C 492.4,733.0 488.9,734.0 485.3,735.0 C 481.8,735.9 478.2,736.8 474.7,737.5 C 471.1,738.3 467.5,739.0 463.9,739.5 C 460.3,740.1 456.6,740.5 453.0,740.9 C 449.4,741.3 445.7,741.6 442.1,741.8 C 438.4,742.0 434.7,742.1 431.1,742.2 C 427.4,742.3 423.8,742.2 420.1,742.2 C 416.5,742.1 412.9,742.0 409.2,741.8 C 405.6,741.7 402.0,741.5 398.3,741.3 C 394.7,741.1 391.1,740.8 387.4,740.6 C 383.8,740.3 380.2,740.1 376.6,739.8 C 373.0,739.5 369.3,739.2 365.7,739.0 C 362.1,738.7 358.4,738.4 354.8,738.2 C 351.1,737.9 347.5,737.6 343.8,737.4 C 340.1,737.1 336.4,736.9 332.7,736.6 C 329.0,736.4 325.3,736.1 321.6,735.8 C 317.8,735.6 314.1,735.3 310.3,735.0 C 306.5,734.7 302.7,734.4 298.9,734.0 C 295.1,733.7 291.2,733.3 287.4,732.9 C 283.5,732.5 279.7,732.0 275.8,731.5 C 271.9,731.0 268.0,730.5 264.1,729.9 C 260.2,729.3 256.3,728.6 252.3,727.9 C 248.4,727.2 244.5,726.4 240.5,725.5 C 236.6,724.7 232.7,723.7 228.8,722.7 C 224.8,721.7 220.9,720.7 217.0,719.5 C 213.1,718.4 209.1,717.2 205.3,715.9 C 201.4,714.6 197.5,713.2 193.6,711.7 C 189.8,710.2 185.9,708.7 182.1,707.0 C 178.3,705.4 174.5,703.7 170.8,701.8 C 167.1,700.0 163.4,698.1 159.7,696.0 C 156.1,694.0 152.5,691.9 149.0,689.6 C 145.5,687.4 142.0,685.1 138.7,682.6 C 135.3,680.1 132.0,677.6 128.8,674.9 C 125.6,672.2 122.5,669.4 119.5,666.5 C 116.6,663.6 113.7,660.6 111.0,657.4 C 108.2,654.3 105.6,651.0 103.2,647.7 C 100.7,644.3 98.4,640.8 96.2,637.2 C 94.1,633.7 92.1,630.0 90.2,626.2 C 88.4,622.5 86.7,618.6 85.2,614.7 C 83.7,610.8 82.3,606.7 81.1,602.7 C 79.9,598.6 78.9,594.5 78.0,590.3 C 77.1,586.2 76.4,582.0 75.9,577.7 C 75.3,573.5 74.8,569.3 74.5,565.0 C 74.2,560.8 74.0,556.5 74.0,552.2 C 73.9,548.0 74.0,543.7 74.1,539.5 C 74.2,535.3 74.5,531.1 74.8,526.9 C 75.1,522.7 75.5,518.6 75.9,514.5 C 76.4,510.4 76.9,506.3 77.5,502.3 C 78.0,498.2 78.6,494.3 79.3,490.3 C 79.9,486.4 80.6,482.5 81.3,478.7 C 82.0,474.8 82.8,471.0 83.5,467.3 C 84.3,463.5 85.1,459.8 85.9,456.2 C 86.7,452.5 87.5,448.9 88.3,445.3 C 89.2,441.7 90.1,438.2 90.9,434.7 C 91.8,431.2 92.7,427.7 93.7,424.3 C 94.6,420.9 95.6,417.5 96.5,414.1 C 97.5,410.8 98.5,407.5 99.5,404.2 C 100.5,400.9 101.6,397.7 102.6,394.5 C 103.6,391.3 104.7,388.1 105.8,384.9 C 106.8,381.8 107.9,378.7 109.0,375.6 C 110.1,372.5 111.2,369.4 112.3,366.4 C 113.3,363.4 114.4,360.4 115.5,357.4 C 116.5,354.4 117.6,351.4 118.6,348.4 C 119.7,345.5 120.7,342.6 121.7,339.6 C 122.7,336.7 123.7,333.8 124.7,330.9 C 125.6,328.0 126.6,325.0 127.5,322.1 C 128.4,319.2 129.3,316.3 130.2,313.4 C 131.1,310.5 132.0,307.6 132.8,304.7 C 133.7,301.7 134.6,298.8 135.4,295.9 C 136.3,293.0 137.1,290.0 138.0,287.1 C 138.8,284.1 139.7,281.2 140.6,278.2 C 141.5,275.3 142.4,272.3 143.3,269.3 C 144.2,266.4 145.2,263.4 146.2,260.4 C 147.2,257.5 148.2,254.5 149.2,251.5 C 150.3,248.6 151.4,245.6 152.5,242.7 C 153.7,239.7 154.9,236.8 156.1,233.8 C 157.3,230.9 158.6,228.0 159.9,225.1 C 161.2,222.1 162.6,219.2 164.0,216.3 C 165.4,213.4 166.9,210.5 168.3,207.6 C 169.8,204.7 171.3,201.8 172.9,198.9 C 174.4,196.1 176.0,193.2 177.6,190.3 C 179.2,187.4 180.9,184.5 182.5,181.6 C 184.2,178.7 185.9,175.8 187.7,172.9 C 189.4,170.0 191.2,167.1 193.0,164.2 C 194.8,161.3 196.6,158.3 198.5,155.4 C 200.3,152.5 202.2,149.5 204.2,146.6 C 206.1,143.7 208.1,140.7 210.1,137.8 C 212.2,134.9 214.2,131.9 216.4,129.0 C 218.5,126.1 220.7,123.2 222.9,120.3 C 225.2,117.5 227.5,114.6 229.8,111.8 C 232.2,108.9 234.6,106.1 237.1,103.4 C 239.5,100.6 242.1,97.9 244.7,95.2 C 247.3,92.5 250.0,89.8 252.7,87.2 C 255.4,84.7 258.2,82.1 261.1,79.6 C 263.9,77.1 266.8,74.6 269.8,72.2 C 272.7,69.8 275.8,67.5 278.8,65.1 C 281.9,62.8 285.0,60.5 288.2,58.3 C 291.4,56.1 294.6,53.9 297.9,51.7 C 301.1,49.6 304.4,47.4 307.8,45.3 C 311.1,43.3 314.5,41.2 318.0,39.2 C 321.4,37.1 324.9,35.1 328.5,33.2 C 332.0,31.2 335.6,29.2 339.2,27.3 C 342.8,25.4 346.5,23.5 350.2,21.7 C 353.9,19.9 357.6,18.1 361.5,16.3 C 365.3,14.6 369.1,12.9 373.0,11.3 C 376.9,9.6 380.8,8.1 384.8,6.6 C 388.8,5.1 392.8,3.7 396.9,2.4 C 401.0,1.1 405.1,-0.1 409.2,-1.2 C 413.4,-2.2 417.5,-3.2 421.7,-4.0 C 425.9,-4.8 430.2,-5.5 434.4,-6.1 C 438.7,-6.6 442.9,-7.0 447.2,-7.2 C 451.5,-7.5 455.7,-7.5 460.0,-7.4 C 464.3,-7.3 468.5,-7.1 472.7,-6.6 C 477.0,-6.2 481.2,-5.6 485.4,-4.8 C 489.6,-4.0 493.7,-3.0 497.8,-1.9 C 501.9,-0.8 506.0,0.5 510.0,1.9 C 514.0,3.3 518.0,4.9 521.9,6.7 C 525.8,8.4 529.6,10.3 533.4,12.3 C 537.2,14.3 540.9,16.5 544.5,18.8 C 548.1,21.0 551.7,23.4 555.1,25.9 C 558.6,28.4 562.0,31.0 565.3,33.8 C 568.6,36.5 571.9,39.3 575.0,42.2 C 578.1,45.1 581.2,48.1 584.2,51.1 C 587.1,54.2 590.0,57.3 592.8,60.5 C 595.6,63.7 598.3,67.0 600.9,70.3 C 603.5,73.7 606.1,77.0 608.5,80.5 C 610.9,83.9 613.3,87.4 615.5,90.9 C 617.8,94.4 619.9,98.0 622.0,101.6 C 624.1,105.2 626.1,108.8 628.0,112.4 C 629.9,116.0 631.8,119.7 633.6,123.3 C 635.3,126.9 637.0,130.6 638.7,134.2 C 640.3,137.8 641.9,141.5 643.4,145.0 C 645.0,148.6 646.5,152.2 647.9,155.8 C 649.4,159.3 650.8,162.8 652.2,166.3 C 653.7,169.7 655.0,173.1 656.4,176.5 C 657.8,179.9 659.2,183.2 660.6,186.5 C 662.0,189.8 663.4,193.0 664.8,196.2 C 666.3,199.4 667.7,202.5 669.2,205.6 C 670.7,208.7 672.2,211.7 673.7,214.7 C 675.2,217.7 676.8,220.7 678.4,223.6 C 680.0,226.6 681.6,229.5 683.3,232.4 C 684.9,235.3 686.6,238.2 688.3,241.0 C 690.0,243.9 691.7,246.8 693.4,249.7 C 695.1,252.6 696.8,255.4 698.5,258.3 C 700.2,261.2 701.9,264.1 703.6,267.1 C 705.3,270.0 706.9,273.0 708.5,276.0 C 710.1,279.0 711.7,282.0 713.2,285.0 C 714.7,288.1 716.2,291.2 717.6,294.3 C 719.0,297.4 720.4,300.5 721.6,303.7 C 722.9,306.9 724.1,310.1 725.2,313.3 C 726.4,316.6 727.4,319.8 728.4,323.1 C 729.4,326.4 730.4,329.7 731.2,333.0 C 732.0,336.4 732.8,339.7 733.5,343.1 C 734.2,346.5 734.9,349.9 735.5,353.3 C 736.0,356.7 736.6,360.1 737.0,363.5 C 737.5,366.9 737.9,370.3 738.2,373.8 C 738.6,377.2 738.8,380.7 739.1,384.1 C 739.3,387.6 739.5,391.0 739.6,394.5 Z"/>
  </g>
</svg>