<svg xmlns="http://www.w3.org/2000/svg" viewBox="0 0 800 800" fill="none">
  <g stroke="#1A2332" stroke-width="1.25" fill="none" opacity="0.18">
    <path d="M 499.4,403.3 C 499.2,404.3 498.9,405.3 498.5,406.4 C 498.2,407.4 497.8,408.4 497.4,409.4 C 497.0,410.4 496.5,411.4 496.1,412.3 C 495.6,413.3 495.1,414.2 494.5,415.2 C 494.0,416.1 493.4,417.0 492.8,417.9 C 492.2,418.8 491.6,419.7 490.9,420.6 C 490.3,421.4 489.6,422.3 488.9,423.1 C 488.2,423.9 487.5,424.7 486.8,425.5 C 486.0,426.2 485.3,427.0 484.5,427.7 C 483.8,428.5 483.0,429.2 482.2,429.9 C 481.5,430.6 480.7,431.3 479.9,431.9 C 479.1,432.6 478.3,433.2 477.6,433.8 C 476.8,434.5 476.0,435.1 475.2,435.7 C 474.5,436.3 473.7,436.9 472.9,437.4 C 472.2,438.0 471.4,438.6 470.7,439.1 C 469.9,439.7 469.2,440.2 468.5,440.7 C 467.8,441.3 467.1,441.8 466.3,442.3 C 465.6,442.8 464.9,443.3 464.3,443.8 C 463.6,444.3 462.9,444.8 462.2,445.3 C 461.6,445.8 460.9,446.3 460.2,446.8 C 459.6,447.3 458.9,447.8 458.3,448.2 C 457.7,448.7 457.0,449.2 456.4,449.6 C 455.8,450.1 455.2,450.6 454.6,451.1 C 453.9,451.5 453.3,452.0 452.7,452.5 C 452.1,452.9 451.5,453.4 451.0,453.9 C 450.4,454.4 449.8,454.8 449.2,455.3 C 448.6,455.8 448.1,456.3 447.5,456.8 C 447.0,457.3 446.4,457.8 445.8,458.3 C 445.3,458.8 444.7,459.3 444.2,459.8 C 443.7,460.3 443.1,460.9 442.6,461.4 C 442.1,461.9 441.5,462.5 441.0,463.1 C 440.4,463.6 439.9,464.2 439.4,464.8 C 438.8,465.3 438.3,465.9 437.8,466.5 C 437.2,467.1 436.7,467.7 436.1,468.3 C 435.5,468.9 435.0,469.5 434.4,470.1 C 433.8,470.7 433.2,471.3 432.6,471.8 C 432.0,472.4 431.4,473.0 430.8,473.6 C 430.1,474.1 429.5,474.7 428.8,475.2 C 428.2,475.8 427.5,476.3 426.8,476.8 C 426.1,477.3 425.4,477.8 424.7,478.2 C 424.0,478.7 423.3,479.1 422.5,479.5 C 421.8,479.9 421.0,480.3 420.2,480.7 C 419.5,481.0 418.7,481.4 417.9,481.7 C 417.1,482.0 416.3,482.3 415.5,482.5 C 414.7,482.8 413.8,483.0 413.0,483.2 C 412.2,483.4 411.4,483.6 410.5,483.8 C 409.7,483.9 408.9,484.1 408.0,484.2 C 407.2,484.3 406.3,484.5 405.5,484.6 C 404.6,484.7 403.8,484.7 402.9,484.8 C 402.1,484.9 401.2,485.0 400.4,485.0 C 399.5,485.1 398.6,485.1 397.8,485.1 C 396.9,485.2 396.1,485.2 395.2,485.2 C 394.3,485.3 393.5,485.3 392.6,485.3 C 391.7,485.3 390.9,485.3 390.0,485.3 C 389.1,485.3 388.3,485.3 387.4,485.3 C 386.5,485.2 385.6,485.2 384.7,485.2 C 383.9,485.1 383.0,485.1 382.1,485.0 C 381.2,485.0 380.3,484.9 379.4,484.8 C 378.5,484.7 377.6,484.7 376.7,484.5 C 375.9,484.4 375.0,484.3 374.1,484.2 C 373.2,484.1 372.3,483.9 371.4,483.8 C 370.5,483.6 369.6,483.5 368.7,483.3 C 367.8,483.1 366.9,482.9 366.0,482.7 C 365.1,482.5 364.2,482.3 363.3,482.1 C 362.4,481.9 361.5,481.6 360.6,481.4 C 359.7,481.1 358.8,480.9 357.9,480.6 C 356.9,480.3 356.0,480.0 355.1,479.7 C 354.2,479.4 353.3,479.1 352.4,478.8 C 351.6,478.4 350.7,478.1 349.8,477.7 C 348.9,477.3 348.0,477.0 347.1,476.6 C 346.2,476.1 345.4,475.7 344.5,475.3 C 343.7,474.8 342.8,474.3 342.0,473.8 C 341.2,473.3 340.3,472.8 339.5,472.3 C 338.7,471.7 338.0,471.1 337.2,470.5 C 336.4,469.9 335.7,469.3 335.0,468.7 C 334.3,468.0 333.6,467.3 332.9,466.6 C 332.2,465.9 331.6,465.2 331.0,464.4 C 330.4,463.7 329.8,462.9 329.2,462.1 C 328.7,461.3 328.2,460.5 327.7,459.7 C 327.2,458.8 326.7,458.0 326.2,457.1 C 325.8,456.3 325.4,455.4 325.0,454.5 C 324.6,453.6 324.2,452.7 323.9,451.8 C 323.5,450.9 323.2,450.0 322.9,449.1 C 322.5,448.2 322.2,447.3 322.0,446.4 C 321.7,445.5 321.4,444.6 321.1,443.6 C 320.9,442.7 320.6,441.8 320.4,440.9 C 320.1,440.0 319.9,439.1 319.7,438.2 C 319.5,437.3 319.2,436.4 319.0,435.5 C 318.8,434.6 318.6,433.7 318.4,432.8 C 318.2,431.9 318.0,431.0 317.8,430.1 C 317.6,429.2 317.4,428.3 317.2,427.4 C 317.0,426.6 316.8,425.7 316.6,424.8 C 316.5,423.9 316.3,423.0 316.1,422.1 C 316.0,421.2 315.8,420.3 315.7,419.4 C 315.5,418.5 315.4,417.7 315.2,416.8 C 315.1,415.9 315.0,415.0 314.9,414.1 C 314.8,413.2 314.7,412.3 314.6,411.4 C 314.5,410.5 314.4,409.6 314.3,408.7 C 314.2,407.8 314.2,406.9 314.1,406.0 C 314.0,405.1 314.0,404.2 313.9,403.3 C 313.9,402.4 313.8,401.5 313.8,400.6 C 313.7,399.6 313.7,398.7 313.7,397.8 C 313.6,396.9 313.6,396.0 313.6,395.1 C 313.6,394.2 313.6,393.2 313.5,392.3 C 313.5,391.4 313.5,390.5 313.5,389.5 C 313.5,388.6 313.5,387.7 313.6,386.7 C 313.6,385.8 313.6,384.8 313.6,383.9 C 313.7,383.0 313.7,382.0 313.8,381.1 C 313.9,380.1 314.0,379.2 314.1,378.2 C 314.2,377.3 314.3,376.3 314.4,375.4 C 314.6,374.4 314.8,373.5 315.0,372.5 C 315.2,371.6 315.4,370.7 315.6,369.7 C 315.9,368.8 316.1,367.9 316.4,367.0 C 316.7,366.1 317.1,365.2 317.4,364.3 C 317.8,363.4 318.2,362.5 318.6,361.6 C 319.0,360.8 319.5,359.9 320.0,359.1 C 320.4,358.2 320.9,357.4 321.5,356.6 C 322.0,355.8 322.5,355.0 323.1,354.3 C 323.7,353.5 324.3,352.7 324.9,352.0 C 325.6,351.3 326.2,350.6 326.9,349.9 C 327.5,349.2 328.2,348.5 328.9,347.9 C 329.6,347.2 330.3,346.6 331.1,346.0 C 331.8,345.4 332.6,344.8 333.3,344.2 C 334.1,343.6 334.9,343.1 335.7,342.6 C 336.5,342.0 337.3,341.5 338.1,341.1 C 339.0,340.6 339.8,340.1 340.6,339.7 C 341.5,339.3 342.4,338.9 343.2,338.5 C 344.1,338.1 345.0,337.7 345.9,337.4 C 346.8,337.1 347.7,336.8 348.6,336.5 C 349.5,336.2 350.4,336.0 351.3,335.8 C 352.2,335.6 353.2,335.4 354.1,335.2 C 355.0,335.0 356.0,334.9 356.9,334.8 C 357.8,334.7 358.7,334.6 359.7,334.5 C 360.6,334.4 361.5,334.4 362.4,334.3 C 363.4,334.3 364.3,334.3 365.2,334.2 C 366.1,334.2 367.0,334.2 367.9,334.2 C 368.8,334.2 369.6,334.3 370.5,334.3 C 371.4,334.3 372.2,334.3 373.1,334.3 C 373.9,334.3 374.7,334.3 375.5,334.3 C 376.4,334.3 377.2,334.3 378.0,334.3 C 378.7,334.3 379.5,334.3 380.3,334.2 C 381.1,334.2 381.8,334.1 382.6,334.1 C 383.3,334.0 384.1,333.9 384.8,333.8 C 385.6,333.7 386.3,333.6 387.0,333.5 C 387.8,333.3 388.5,333.2 389.2,333.1 C 390.0,332.9 390.7,332.8 391.4,332.6 C 392.2,332.4 392.9,332.3 393.6,332.1 C 394.4,331.9 395.1,331.7 395.8,331.6 C 396.6,331.4 397.3,331.2 398.1,331.0 C 398.8,330.9 399.6,330.7 400.4,330.5 C 401.1,330.4 401.9,330.2 402.7,330.1 C 403.4,329.9 404.2,329.8 405.0,329.6 C 405.8,329.5 406.6,329.4 407.4,329.3 C 408.1,329.2 408.9,329.1 409.7,329.0 C 410.5,328.9 411.4,328.8 412.2,328.7 C 413.0,328.7 413.8,328.6 414.6,328.6 C 415.4,328.5 416.3,328.5 417.1,328.5 C 417.9,328.5 418.7,328.5 419.6,328.5 C 420.4,328.5 421.2,328.5 422.1,328.5 C 422.9,328.5 423.8,328.6 424.6,328.6 C 425.5,328.7 426.3,328.7 427.2,328.8 C 428.0,328.9 428.9,329.0 429.7,329.1 C 430.6,329.2 431.4,329.3 432.3,329.5 C 433.2,329.6 434.0,329.8 434.9,329.9 C 435.7,330.1 436.6,330.3 437.4,330.5 C 438.3,330.7 439.1,330.9 440.0,331.2 C 440.8,331.4 441.7,331.7 442.5,332.0 C 443.4,332.2 444.2,332.5 445.1,332.8 C 445.9,333.2 446.7,333.5 447.6,333.8 C 448.4,334.2 449.2,334.5 450.1,334.9 C 450.9,335.2 451.7,335.6 452.5,336.0 C 453.4,336.4 454.2,336.8 455.0,337.2 C 455.9,337.6 456.7,338.0 457.5,338.4 C 458.4,338.9 459.2,339.3 460.0,339.7 C 460.9,340.2 461.7,340.6 462.6,341.1 C 463.4,341.5 464.3,342.0 465.1,342.5 C 466.0,342.9 466.9,343.4 467.7,343.9 C 468.6,344.4 469.5,344.9 470.4,345.4 C 471.2,345.9 472.1,346.4 473.0,346.9 C 473.9,347.5 474.8,348.0 475.7,348.6 C 476.6,349.1 477.5,349.7 478.3,350.3 C 479.2,350.9 480.1,351.5 480.9,352.1 C 481.8,352.8 482.7,353.4 483.5,354.1 C 484.3,354.8 485.1,355.5 485.9,356.2 C 486.7,357.0 487.5,357.7 488.3,358.5 C 489.0,359.3 489.7,360.1 490.4,360.9 C 491.1,361.7 491.8,362.6 492.4,363.4 C 493.1,364.3 493.7,365.2 494.2,366.1 C 494.8,367.0 495.3,368.0 495.8,368.9 C 496.3,369.9 496.8,370.8 497.2,371.8 C 497.7,372.8 498.0,373.8 498.4,374.8 C 498.7,375.8 499.1,376.8 499.3,377.9 C 499.6,378.9 499.9,379.9 500.1,381.0 C 500.3,382.0 500.5,383.1 500.6,384.2 C 500.7,385.2 500.8,386.3 500.9,387.4 C 501.0,388.4 501.0,389.5 501.0,390.6 C 501.0,391.6 501.0,392.7 500.9,393.8 C 500.9,394.8 500.8,395.9 500.6,397.0 C 500.5,398.0 500.3,399.1 500.1,400.1 C 499.9,401.2 499.7,402.2 499.4,403.3 Z"/>
    <path d="M 554.5,398.9 C 554.0,400.6 553.4,402.3 552.7,403.9 C 552.1,405.5 551.3,407.1 550.6,408.7 C 549.8,410.3 549.0,411.9 548.2,413.4 C 547.3,415.0 546.4,416.5 545.5,418.0 C 544.5,419.5 543.6,420.9 542.6,422.4 C 541.6,423.8 540.6,425.2 539.5,426.6 C 538.5,428.0 537.4,429.3 536.3,430.6 C 535.2,431.9 534.1,433.2 533.0,434.5 C 531.9,435.8 530.8,437.0 529.6,438.2 C 528.5,439.4 527.3,440.6 526.2,441.7 C 525.0,442.9 523.9,444.0 522.7,445.1 C 521.6,446.2 520.4,447.3 519.2,448.3 C 518.0,449.4 516.8,450.4 515.7,451.4 C 514.5,452.4 513.3,453.3 512.1,454.3 C 510.9,455.2 509.7,456.1 508.5,457.0 C 507.3,457.9 506.1,458.8 504.9,459.7 C 503.7,460.5 502.5,461.3 501.3,462.2 C 500.2,463.0 499.0,463.7 497.8,464.5 C 496.6,465.3 495.5,466.0 494.3,466.8 C 493.2,467.5 492.0,468.3 490.9,469.0 C 489.8,469.7 488.6,470.4 487.6,471.2 C 486.5,471.9 485.4,472.6 484.3,473.3 C 483.3,474.0 482.3,474.7 481.3,475.5 C 480.3,476.2 479.3,476.9 478.3,477.7 C 477.3,478.4 476.4,479.2 475.5,480.0 C 474.6,480.8 473.7,481.5 472.8,482.4 C 471.9,483.2 471.0,484.0 470.2,484.9 C 469.3,485.7 468.5,486.6 467.7,487.4 C 466.8,488.3 466.0,489.2 465.2,490.1 C 464.4,491.1 463.6,492.0 462.7,492.9 C 461.9,493.9 461.1,494.8 460.2,495.8 C 459.4,496.7 458.6,497.7 457.7,498.6 C 456.8,499.6 456.0,500.5 455.1,501.5 C 454.2,502.4 453.3,503.4 452.4,504.3 C 451.4,505.2 450.5,506.2 449.5,507.1 C 448.6,508.0 447.6,508.9 446.6,509.7 C 445.6,510.6 444.5,511.4 443.5,512.3 C 442.4,513.1 441.4,513.9 440.3,514.7 C 439.2,515.5 438.0,516.2 436.9,516.9 C 435.8,517.7 434.6,518.4 433.5,519.0 C 432.3,519.7 431.1,520.4 429.9,521.0 C 428.7,521.6 427.5,522.2 426.2,522.8 C 425.0,523.4 423.7,523.9 422.5,524.4 C 421.2,525.0 419.9,525.5 418.7,525.9 C 417.4,526.4 416.1,526.9 414.8,527.3 C 413.4,527.7 412.1,528.1 410.8,528.5 C 409.5,528.8 408.1,529.2 406.8,529.5 C 405.4,529.8 404.1,530.1 402.7,530.4 C 401.3,530.6 400.0,530.8 398.6,531.0 C 397.2,531.2 395.8,531.4 394.4,531.5 C 393.0,531.6 391.6,531.7 390.2,531.8 C 388.9,531.9 387.5,531.9 386.1,531.9 C 384.7,531.9 383.3,531.9 381.9,531.9 C 380.5,531.8 379.1,531.8 377.7,531.7 C 376.3,531.6 374.9,531.5 373.5,531.3 C 372.0,531.2 370.6,531.1 369.2,530.9 C 367.8,530.7 366.4,530.6 365.0,530.4 C 363.6,530.2 362.2,530.0 360.8,529.8 C 359.4,529.6 358.0,529.4 356.6,529.2 C 355.2,529.0 353.7,528.7 352.3,528.5 C 350.9,528.3 349.4,528.1 348.0,527.9 C 346.6,527.6 345.1,527.4 343.7,527.2 C 342.2,526.9 340.7,526.7 339.2,526.4 C 337.8,526.2 336.3,525.9 334.8,525.6 C 333.3,525.4 331.8,525.1 330.3,524.7 C 328.8,524.4 327.3,524.1 325.8,523.7 C 324.3,523.4 322.8,523.0 321.3,522.5 C 319.8,522.1 318.3,521.7 316.9,521.1 C 315.4,520.6 313.9,520.1 312.5,519.5 C 311.0,518.9 309.6,518.3 308.2,517.6 C 306.8,517.0 305.4,516.2 304.0,515.5 C 302.7,514.7 301.3,513.9 300.0,513.0 C 298.7,512.2 297.4,511.3 296.2,510.3 C 295.0,509.4 293.8,508.4 292.6,507.3 C 291.4,506.3 290.3,505.2 289.2,504.1 C 288.1,503.0 287.1,501.9 286.0,500.7 C 285.0,499.5 284.0,498.3 283.1,497.1 C 282.2,495.8 281.2,494.6 280.4,493.3 C 279.5,492.0 278.6,490.7 277.8,489.4 C 277.0,488.0 276.2,486.7 275.5,485.3 C 274.7,484.0 274.0,482.6 273.3,481.2 C 272.6,479.9 271.9,478.5 271.3,477.1 C 270.7,475.7 270.0,474.2 269.4,472.8 C 268.9,471.4 268.3,470.0 267.8,468.5 C 267.2,467.1 266.7,465.7 266.2,464.2 C 265.8,462.8 265.3,461.3 264.9,459.9 C 264.4,458.4 264.0,457.0 263.6,455.5 C 263.3,454.1 262.9,452.6 262.6,451.1 C 262.2,449.7 261.9,448.2 261.6,446.7 C 261.3,445.3 261.1,443.8 260.8,442.3 C 260.6,440.9 260.4,439.4 260.1,437.9 C 259.9,436.5 259.7,435.0 259.5,433.6 C 259.3,432.1 259.2,430.6 259.0,429.2 C 258.8,427.7 258.7,426.3 258.5,424.8 C 258.3,423.4 258.2,422.0 258.0,420.5 C 257.9,419.1 257.7,417.6 257.5,416.2 C 257.4,414.8 257.2,413.3 257.1,411.9 C 256.9,410.5 256.7,409.0 256.5,407.6 C 256.4,406.2 256.2,404.7 256.0,403.3 C 255.8,401.8 255.7,400.4 255.5,398.9 C 255.3,397.5 255.1,396.0 255.0,394.5 C 254.8,393.1 254.6,391.6 254.5,390.1 C 254.3,388.6 254.2,387.1 254.1,385.6 C 253.9,384.2 253.8,382.7 253.8,381.1 C 253.7,379.6 253.6,378.1 253.6,376.6 C 253.6,375.1 253.6,373.6 253.6,372.1 C 253.6,370.5 253.7,369.0 253.8,367.5 C 253.9,366.0 254.1,364.4 254.2,362.9 C 254.4,361.4 254.6,359.9 254.9,358.4 C 255.1,356.9 255.4,355.4 255.8,353.9 C 256.1,352.4 256.5,350.9 256.9,349.4 C 257.3,347.9 257.7,346.4 258.2,345.0 C 258.7,343.5 259.2,342.1 259.7,340.6 C 260.3,339.2 260.9,337.8 261.5,336.4 C 262.1,334.9 262.7,333.5 263.4,332.2 C 264.1,330.8 264.8,329.4 265.5,328.1 C 266.3,326.7 267.0,325.4 267.8,324.0 C 268.6,322.7 269.5,321.4 270.3,320.2 C 271.2,318.9 272.1,317.6 273.0,316.4 C 273.9,315.2 274.9,314.0 275.9,312.8 C 276.9,311.6 277.9,310.5 279.0,309.4 C 280.1,308.3 281.2,307.2 282.3,306.2 C 283.5,305.2 284.7,304.2 285.9,303.2 C 287.1,302.3 288.4,301.4 289.7,300.5 C 291.0,299.7 292.3,298.9 293.6,298.1 C 295.0,297.4 296.4,296.7 297.8,296.0 C 299.2,295.4 300.6,294.7 302.1,294.2 C 303.6,293.6 305.0,293.1 306.5,292.7 C 308.0,292.2 309.5,291.8 311.1,291.4 C 312.6,291.1 314.1,290.7 315.6,290.5 C 317.1,290.2 318.7,289.9 320.2,289.7 C 321.7,289.5 323.2,289.3 324.8,289.1 C 326.3,289.0 327.8,288.8 329.2,288.7 C 330.7,288.6 332.2,288.5 333.7,288.4 C 335.1,288.3 336.6,288.2 338.0,288.2 C 339.4,288.1 340.8,288.0 342.2,288.0 C 343.6,287.9 345.0,287.8 346.3,287.8 C 347.7,287.7 349.0,287.6 350.3,287.6 C 351.7,287.5 353.0,287.4 354.3,287.3 C 355.6,287.3 356.8,287.2 358.1,287.1 C 359.4,287.0 360.6,286.9 361.9,286.8 C 363.1,286.7 364.3,286.6 365.6,286.5 C 366.8,286.4 368.0,286.2 369.2,286.1 C 370.4,286.0 371.6,285.9 372.8,285.7 C 374.0,285.6 375.2,285.4 376.4,285.3 C 377.6,285.1 378.8,285.0 380.0,284.8 C 381.2,284.7 382.4,284.5 383.6,284.3 C 384.8,284.1 386.0,284.0 387.2,283.8 C 388.4,283.6 389.6,283.4 390.8,283.2 C 392.0,283.0 393.2,282.7 394.4,282.5 C 395.6,282.3 396.9,282.1 398.1,281.8 C 399.3,281.6 400.6,281.4 401.8,281.1 C 403.1,280.9 404.4,280.7 405.6,280.4 C 406.9,280.2 408.2,279.9 409.5,279.7 C 410.8,279.5 412.1,279.3 413.4,279.1 C 414.7,278.9 416.1,278.7 417.4,278.5 C 418.7,278.3 420.1,278.2 421.4,278.1 C 422.8,277.9 424.2,277.8 425.5,277.8 C 426.9,277.7 428.3,277.7 429.7,277.7 C 431.0,277.7 432.4,277.7 433.8,277.8 C 435.2,277.8 436.5,277.9 437.9,278.1 C 439.3,278.2 440.7,278.4 442.0,278.6 C 443.4,278.9 444.8,279.1 446.1,279.4 C 447.5,279.7 448.8,280.0 450.2,280.4 C 451.5,280.8 452.9,281.2 454.2,281.6 C 455.5,282.0 456.9,282.4 458.2,282.9 C 459.5,283.4 460.8,283.9 462.2,284.4 C 463.5,284.9 464.8,285.4 466.1,285.9 C 467.4,286.5 468.8,287.0 470.1,287.6 C 471.4,288.1 472.7,288.7 474.1,289.3 C 475.4,289.8 476.8,290.4 478.1,291.0 C 479.5,291.6 480.8,292.2 482.2,292.8 C 483.6,293.4 485.0,294.0 486.4,294.6 C 487.8,295.2 489.2,295.9 490.6,296.5 C 492.0,297.2 493.4,297.8 494.9,298.5 C 496.3,299.2 497.7,299.8 499.2,300.6 C 500.6,301.3 502.1,302.0 503.5,302.8 C 504.9,303.5 506.4,304.3 507.8,305.1 C 509.3,305.9 510.7,306.8 512.1,307.6 C 513.5,308.5 514.9,309.4 516.3,310.3 C 517.7,311.3 519.1,312.3 520.5,313.3 C 521.8,314.3 523.2,315.3 524.5,316.4 C 525.8,317.5 527.1,318.6 528.4,319.7 C 529.6,320.9 530.9,322.0 532.1,323.2 C 533.3,324.5 534.5,325.7 535.6,327.0 C 536.7,328.3 537.9,329.6 538.9,330.9 C 540.0,332.3 541.1,333.6 542.1,335.0 C 543.1,336.4 544.1,337.9 545.0,339.3 C 545.9,340.8 546.8,342.2 547.7,343.8 C 548.5,345.3 549.3,346.8 550.1,348.3 C 550.8,349.9 551.5,351.5 552.2,353.1 C 552.8,354.7 553.5,356.3 554.0,357.9 C 554.5,359.6 555.0,361.2 555.5,362.9 C 555.9,364.6 556.3,366.3 556.6,368.0 C 556.9,369.7 557.1,371.4 557.3,373.1 C 557.4,374.8 557.5,376.6 557.6,378.3 C 557.6,380.0 557.6,381.8 557.4,383.5 C 557.3,385.2 557.1,387.0 556.9,388.7 C 556.6,390.4 556.3,392.1 555.9,393.8 C 555.5,395.5 555.0,397.2 554.5,398.9 Z"/>
    <path d="M 614.3,404.8 C 613.6,407.1 612.8,409.4 611.9,411.7 C 611.0,414.0 610.0,416.2 609.0,418.5 C 607.9,420.7 606.8,422.9 605.6,425.0 C 604.4,427.2 603.2,429.3 601.9,431.3 C 600.6,433.4 599.2,435.4 597.8,437.4 C 596.4,439.4 594.9,441.3 593.4,443.2 C 591.9,445.1 590.3,447.0 588.7,448.8 C 587.1,450.6 585.5,452.4 583.8,454.1 C 582.2,455.8 580.5,457.5 578.8,459.1 C 577.1,460.7 575.3,462.3 573.6,463.8 C 571.8,465.4 570.0,466.8 568.3,468.3 C 566.5,469.7 564.7,471.1 562.9,472.5 C 561.1,473.9 559.3,475.2 557.5,476.5 C 555.7,477.8 554.0,479.0 552.2,480.2 C 550.4,481.4 548.7,482.6 546.9,483.8 C 545.2,485.0 543.5,486.1 541.8,487.2 C 540.1,488.3 538.5,489.4 536.9,490.5 C 535.3,491.6 533.7,492.7 532.1,493.8 C 530.6,494.9 529.1,495.9 527.6,497.0 C 526.2,498.1 524.7,499.2 523.3,500.3 C 522.0,501.4 520.6,502.5 519.3,503.6 C 518.0,504.7 516.7,505.9 515.5,507.0 C 514.3,508.2 513.1,509.4 511.9,510.6 C 510.7,511.7 509.5,513.0 508.4,514.2 C 507.2,515.4 506.1,516.6 505.0,517.9 C 503.9,519.2 502.8,520.4 501.7,521.7 C 500.6,523.0 499.5,524.3 498.4,525.5 C 497.2,526.8 496.1,528.1 495.0,529.4 C 493.9,530.7 492.7,532.0 491.5,533.2 C 490.4,534.5 489.2,535.8 488.0,537.0 C 486.8,538.3 485.5,539.5 484.3,540.7 C 483.0,541.9 481.7,543.1 480.4,544.3 C 479.1,545.5 477.8,546.6 476.4,547.7 C 475.1,548.9 473.7,550.0 472.3,551.0 C 470.9,552.1 469.5,553.2 468.1,554.2 C 466.6,555.3 465.2,556.3 463.7,557.3 C 462.2,558.3 460.7,559.3 459.2,560.2 C 457.7,561.2 456.1,562.1 454.6,563.1 C 453.0,564.0 451.5,564.9 449.9,565.8 C 448.3,566.8 446.7,567.6 445.1,568.5 C 443.5,569.4 441.9,570.3 440.2,571.1 C 438.6,572.0 436.9,572.8 435.3,573.6 C 433.6,574.4 431.9,575.2 430.2,576.0 C 428.5,576.8 426.8,577.5 425.0,578.3 C 423.3,579.0 421.5,579.7 419.7,580.3 C 417.9,581.0 416.1,581.6 414.3,582.2 C 412.5,582.8 410.7,583.4 408.9,583.9 C 407.0,584.4 405.2,584.9 403.3,585.3 C 401.4,585.8 399.5,586.2 397.6,586.5 C 395.7,586.9 393.8,587.2 391.9,587.4 C 390.0,587.7 388.1,587.9 386.2,588.1 C 384.2,588.3 382.3,588.4 380.4,588.5 C 378.4,588.6 376.5,588.7 374.5,588.7 C 372.6,588.7 370.6,588.7 368.7,588.7 C 366.7,588.7 364.8,588.6 362.8,588.6 C 360.9,588.5 358.9,588.4 356.9,588.3 C 355.0,588.1 353.0,588.0 351.0,587.8 C 349.0,587.7 347.1,587.5 345.1,587.3 C 343.1,587.1 341.1,586.8 339.1,586.6 C 337.1,586.4 335.1,586.1 333.1,585.8 C 331.1,585.5 329.1,585.2 327.1,584.9 C 325.1,584.5 323.1,584.2 321.1,583.8 C 319.1,583.4 317.0,583.0 315.0,582.5 C 313.0,582.0 311.0,581.5 309.0,581.0 C 307.0,580.5 305.0,579.9 303.0,579.3 C 301.1,578.6 299.1,578.0 297.1,577.3 C 295.2,576.5 293.2,575.8 291.3,575.0 C 289.3,574.2 287.4,573.4 285.5,572.5 C 283.6,571.6 281.7,570.6 279.9,569.7 C 278.0,568.7 276.2,567.7 274.4,566.6 C 272.6,565.5 270.8,564.4 269.0,563.3 C 267.2,562.2 265.5,561.0 263.7,559.8 C 262.0,558.6 260.3,557.3 258.6,556.0 C 256.9,554.7 255.3,553.4 253.6,552.1 C 252.0,550.7 250.4,549.4 248.8,548.0 C 247.2,546.6 245.6,545.1 244.1,543.7 C 242.5,542.2 241.0,540.7 239.5,539.2 C 238.1,537.6 236.6,536.1 235.2,534.5 C 233.8,532.9 232.4,531.3 231.0,529.6 C 229.7,527.9 228.4,526.2 227.2,524.5 C 225.9,522.8 224.7,521.0 223.6,519.2 C 222.4,517.4 221.3,515.6 220.3,513.7 C 219.2,511.9 218.2,510.0 217.3,508.1 C 216.4,506.2 215.5,504.2 214.7,502.2 C 213.9,500.2 213.2,498.2 212.5,496.2 C 211.9,494.2 211.2,492.1 210.7,490.1 C 210.1,488.0 209.7,486.0 209.2,483.9 C 208.8,481.8 208.4,479.7 208.1,477.6 C 207.7,475.5 207.5,473.4 207.2,471.3 C 207.0,469.2 206.8,467.1 206.6,465.0 C 206.4,462.9 206.2,460.9 206.1,458.8 C 206.0,456.7 205.8,454.7 205.7,452.6 C 205.6,450.6 205.5,448.5 205.4,446.5 C 205.3,444.5 205.2,442.5 205.1,440.5 C 205.0,438.4 204.8,436.4 204.7,434.5 C 204.6,432.5 204.4,430.5 204.3,428.5 C 204.1,426.5 203.9,424.6 203.8,422.6 C 203.6,420.6 203.4,418.7 203.2,416.7 C 203.0,414.7 202.7,412.7 202.5,410.8 C 202.3,408.8 202.0,406.8 201.8,404.8 C 201.6,402.8 201.4,400.8 201.1,398.8 C 200.9,396.8 200.7,394.8 200.5,392.8 C 200.3,390.7 200.1,388.7 199.9,386.7 C 199.7,384.6 199.6,382.6 199.4,380.5 C 199.3,378.4 199.2,376.4 199.1,374.3 C 199.0,372.2 199.0,370.1 199.0,368.0 C 198.9,365.9 198.9,363.8 199.0,361.7 C 199.0,359.6 199.1,357.5 199.3,355.3 C 199.4,353.2 199.5,351.1 199.7,349.0 C 200.0,346.9 200.2,344.7 200.5,342.6 C 200.8,340.5 201.1,338.4 201.5,336.3 C 201.9,334.1 202.3,332.0 202.8,329.9 C 203.3,327.8 203.9,325.8 204.5,323.7 C 205.1,321.6 205.7,319.6 206.4,317.5 C 207.2,315.5 207.9,313.5 208.8,311.5 C 209.6,309.5 210.6,307.6 211.5,305.6 C 212.5,303.7 213.6,301.8 214.7,300.0 C 215.8,298.2 217.0,296.4 218.3,294.6 C 219.6,292.9 220.9,291.2 222.3,289.5 C 223.7,287.9 225.2,286.3 226.8,284.8 C 228.3,283.3 229.9,281.8 231.6,280.5 C 233.3,279.1 235.0,277.8 236.8,276.5 C 238.6,275.2 240.5,274.1 242.4,272.9 C 244.2,271.8 246.2,270.8 248.1,269.8 C 250.1,268.8 252.1,267.9 254.1,267.0 C 256.2,266.2 258.2,265.4 260.3,264.6 C 262.3,263.9 264.4,263.2 266.5,262.5 C 268.5,261.9 270.6,261.3 272.7,260.7 C 274.8,260.1 276.8,259.6 278.9,259.1 C 281.0,258.6 283.0,258.1 285.0,257.7 C 287.1,257.2 289.1,256.8 291.1,256.4 C 293.1,256.0 295.1,255.6 297.0,255.3 C 299.0,254.9 300.9,254.5 302.8,254.2 C 304.8,253.8 306.7,253.5 308.6,253.2 C 310.4,252.8 312.3,252.5 314.2,252.2 C 316.0,251.9 317.9,251.6 319.7,251.3 C 321.5,251.1 323.4,250.8 325.2,250.5 C 327.0,250.3 328.8,250.0 330.5,249.8 C 332.3,249.5 334.1,249.3 335.9,249.1 C 337.6,248.9 339.4,248.7 341.1,248.5 C 342.9,248.4 344.6,248.2 346.4,248.0 C 348.1,247.9 349.8,247.7 351.6,247.6 C 353.3,247.5 355.0,247.3 356.7,247.2 C 358.4,247.1 360.1,247.0 361.8,246.8 C 363.5,246.7 365.2,246.6 366.8,246.5 C 368.5,246.4 370.2,246.2 371.9,246.1 C 373.5,245.9 375.2,245.8 376.9,245.6 C 378.5,245.5 380.2,245.3 381.9,245.1 C 383.5,245.0 385.2,244.8 386.9,244.6 C 388.6,244.4 390.2,244.1 391.9,243.9 C 393.6,243.7 395.3,243.5 397.0,243.2 C 398.7,243.0 400.4,242.7 402.1,242.5 C 403.9,242.3 405.6,242.0 407.3,241.8 C 409.1,241.6 410.8,241.3 412.6,241.1 C 414.4,240.9 416.2,240.7 417.9,240.5 C 419.7,240.4 421.5,240.2 423.4,240.1 C 425.2,239.9 427.0,239.8 428.8,239.7 C 430.7,239.7 432.5,239.6 434.3,239.6 C 436.2,239.6 438.0,239.6 439.9,239.6 C 441.8,239.7 443.6,239.8 445.5,239.9 C 447.4,240.0 449.3,240.1 451.1,240.3 C 453.0,240.5 454.9,240.7 456.8,240.9 C 458.7,241.2 460.6,241.4 462.5,241.7 C 464.4,242.0 466.3,242.3 468.2,242.7 C 470.1,243.0 472.0,243.4 474.0,243.8 C 475.9,244.2 477.8,244.6 479.8,245.0 C 481.7,245.5 483.6,245.9 485.6,246.4 C 487.5,246.9 489.5,247.4 491.5,248.0 C 493.4,248.5 495.4,249.1 497.3,249.7 C 499.3,250.3 501.3,250.9 503.3,251.6 C 505.2,252.2 507.2,252.9 509.2,253.6 C 511.2,254.4 513.1,255.1 515.1,255.9 C 517.0,256.7 519.0,257.6 520.9,258.5 C 522.9,259.3 524.8,260.3 526.7,261.2 C 528.7,262.2 530.6,263.2 532.5,264.3 C 534.4,265.3 536.2,266.4 538.1,267.6 C 539.9,268.7 541.8,269.9 543.6,271.1 C 545.4,272.3 547.2,273.6 549.0,274.9 C 550.8,276.2 552.5,277.5 554.3,278.9 C 556.0,280.3 557.7,281.7 559.4,283.1 C 561.2,284.5 562.9,286.0 564.5,287.5 C 566.2,289.0 567.9,290.5 569.5,292.1 C 571.2,293.6 572.9,295.2 574.5,296.8 C 576.1,298.5 577.7,300.1 579.3,301.8 C 581.0,303.4 582.5,305.1 584.1,306.9 C 585.7,308.6 587.3,310.4 588.8,312.2 C 590.3,314.0 591.9,315.8 593.3,317.6 C 594.8,319.5 596.3,321.4 597.7,323.3 C 599.1,325.3 600.5,327.2 601.8,329.3 C 603.1,331.3 604.4,333.3 605.6,335.4 C 606.8,337.5 607.9,339.6 609.0,341.7 C 610.1,343.9 611.1,346.1 612.0,348.3 C 612.9,350.5 613.7,352.8 614.4,355.1 C 615.1,357.4 615.8,359.7 616.3,362.0 C 616.8,364.3 617.2,366.7 617.5,369.1 C 617.9,371.4 618.1,373.8 618.2,376.2 C 618.3,378.6 618.3,381.0 618.1,383.4 C 618.0,385.8 617.8,388.2 617.5,390.6 C 617.2,393.0 616.7,395.4 616.2,397.8 C 615.7,400.1 615.0,402.5 614.3,404.8 Z"/>
    <path d="M 672.5,396.1 C 671.6,399.0 670.6,402.0 669.5,404.8 C 668.4,407.7 667.2,410.6 665.9,413.4 C 664.6,416.2 663.3,419.0 661.8,421.7 C 660.4,424.4 658.8,427.1 657.2,429.7 C 655.6,432.3 654.0,434.9 652.3,437.4 C 650.6,440.0 648.8,442.5 647.0,444.9 C 645.2,447.3 643.3,449.7 641.4,452.0 C 639.5,454.4 637.6,456.6 635.7,458.9 C 633.7,461.1 631.7,463.3 629.7,465.4 C 627.7,467.5 625.7,469.6 623.7,471.6 C 621.6,473.7 619.5,475.6 617.5,477.6 C 615.4,479.5 613.3,481.4 611.2,483.2 C 609.0,485.0 606.9,486.8 604.8,488.5 C 602.6,490.3 600.5,491.9 598.3,493.6 C 596.2,495.2 594.0,496.8 591.8,498.4 C 589.7,499.9 587.5,501.4 585.3,502.9 C 583.2,504.3 581.0,505.7 578.9,507.1 C 576.7,508.5 574.6,509.9 572.5,511.2 C 570.4,512.5 568.3,513.8 566.2,515.1 C 564.2,516.4 562.1,517.6 560.1,518.9 C 558.1,520.1 556.2,521.4 554.3,522.6 C 552.3,523.9 550.5,525.1 548.6,526.4 C 546.8,527.6 545.0,528.9 543.3,530.2 C 541.5,531.5 539.8,532.8 538.1,534.1 C 536.5,535.5 534.9,536.9 533.3,538.3 C 531.7,539.7 530.2,541.1 528.7,542.6 C 527.2,544.0 525.7,545.5 524.2,547.1 C 522.8,548.6 521.3,550.2 519.9,551.8 C 518.5,553.4 517.1,555.0 515.7,556.7 C 514.3,558.3 512.9,560.0 511.4,561.7 C 510.0,563.4 508.6,565.1 507.1,566.8 C 505.7,568.5 504.2,570.2 502.7,572.0 C 501.2,573.7 499.7,575.4 498.2,577.1 C 496.6,578.8 495.0,580.4 493.4,582.1 C 491.7,583.7 490.1,585.4 488.4,587.0 C 486.7,588.5 484.9,590.1 483.1,591.6 C 481.3,593.1 479.5,594.6 477.7,596.1 C 475.8,597.5 473.9,598.9 471.9,600.2 C 470.0,601.6 468.0,602.9 466.0,604.1 C 464.0,605.4 462.0,606.6 459.9,607.7 C 457.8,608.9 455.7,610.0 453.6,611.1 C 451.5,612.2 449.3,613.2 447.1,614.2 C 444.9,615.1 442.7,616.1 440.5,616.9 C 438.3,617.8 436.0,618.7 433.7,619.5 C 431.5,620.3 429.2,621.0 426.9,621.7 C 424.5,622.4 422.2,623.1 419.9,623.7 C 417.5,624.3 415.2,624.9 412.8,625.4 C 410.4,625.9 408.0,626.4 405.6,626.8 C 403.2,627.2 400.8,627.6 398.4,627.9 C 396.0,628.2 393.6,628.5 391.1,628.7 C 388.7,628.9 386.2,629.1 383.8,629.2 C 381.3,629.3 378.9,629.4 376.4,629.4 C 374.0,629.4 371.5,629.4 369.1,629.3 C 366.6,629.3 364.2,629.2 361.7,629.0 C 359.2,628.9 356.8,628.7 354.3,628.5 C 351.8,628.3 349.4,628.1 346.9,627.9 C 344.4,627.6 342.0,627.4 339.5,627.1 C 337.0,626.8 334.5,626.5 332.0,626.2 C 329.5,625.9 327.0,625.6 324.5,625.3 C 322.0,625.0 319.5,624.7 317.0,624.4 C 314.4,624.0 311.9,623.7 309.3,623.3 C 306.7,623.0 304.2,622.6 301.6,622.3 C 299.0,621.9 296.4,621.5 293.8,621.1 C 291.1,620.7 288.5,620.2 285.9,619.8 C 283.2,619.3 280.6,618.8 277.9,618.2 C 275.3,617.7 272.6,617.1 270.0,616.4 C 267.4,615.7 264.7,615.0 262.1,614.2 C 259.5,613.5 256.9,612.6 254.3,611.7 C 251.7,610.8 249.2,609.8 246.6,608.7 C 244.1,607.6 241.6,606.4 239.2,605.2 C 236.7,604.0 234.3,602.6 232.0,601.2 C 229.6,599.8 227.3,598.3 225.1,596.8 C 222.8,595.2 220.7,593.6 218.5,591.9 C 216.4,590.1 214.3,588.3 212.3,586.5 C 210.3,584.6 208.4,582.7 206.5,580.7 C 204.6,578.8 202.8,576.7 201.0,574.6 C 199.2,572.5 197.5,570.4 195.9,568.2 C 194.2,566.0 192.6,563.8 191.1,561.6 C 189.5,559.3 188.1,557.0 186.6,554.7 C 185.2,552.4 183.8,550.1 182.4,547.7 C 181.1,545.3 179.8,543.0 178.5,540.5 C 177.3,538.1 176.1,535.7 174.9,533.3 C 173.8,530.8 172.7,528.4 171.6,525.9 C 170.5,523.5 169.5,521.0 168.5,518.5 C 167.5,516.0 166.6,513.5 165.7,511.0 C 164.8,508.4 163.9,505.9 163.1,503.4 C 162.3,500.8 161.6,498.3 160.9,495.7 C 160.2,493.2 159.5,490.6 158.9,488.0 C 158.2,485.5 157.7,482.9 157.1,480.3 C 156.6,477.8 156.1,475.2 155.6,472.6 C 155.2,470.0 154.8,467.4 154.4,464.9 C 154.0,462.3 153.6,459.7 153.3,457.2 C 152.9,454.6 152.6,452.0 152.3,449.5 C 152.0,446.9 151.7,444.4 151.4,441.8 C 151.1,439.3 150.9,436.7 150.6,434.2 C 150.3,431.6 150.1,429.1 149.8,426.6 C 149.5,424.0 149.3,421.5 149.0,419.0 C 148.7,416.4 148.5,413.9 148.2,411.4 C 147.9,408.8 147.6,406.3 147.3,403.7 C 147.1,401.2 146.8,398.6 146.5,396.1 C 146.2,393.5 146.0,391.0 145.7,388.4 C 145.5,385.8 145.2,383.2 145.0,380.6 C 144.8,378.0 144.6,375.4 144.4,372.8 C 144.3,370.1 144.1,367.5 144.1,364.9 C 144.0,362.2 143.9,359.6 143.9,356.9 C 143.9,354.3 143.9,351.6 144.0,349.0 C 144.1,346.3 144.3,343.6 144.5,341.0 C 144.7,338.3 145.0,335.6 145.3,333.0 C 145.6,330.3 146.0,327.6 146.4,325.0 C 146.9,322.3 147.4,319.7 147.9,317.1 C 148.5,314.4 149.1,311.8 149.8,309.2 C 150.5,306.6 151.2,304.0 152.0,301.4 C 152.8,298.8 153.7,296.3 154.6,293.7 C 155.5,291.2 156.4,288.6 157.4,286.1 C 158.5,283.6 159.5,281.1 160.7,278.7 C 161.8,276.2 163.0,273.7 164.2,271.3 C 165.4,268.9 166.7,266.5 168.1,264.2 C 169.4,261.8 170.8,259.5 172.3,257.2 C 173.8,255.0 175.3,252.7 176.9,250.5 C 178.5,248.3 180.2,246.2 182.0,244.1 C 183.7,242.0 185.5,240.0 187.4,238.1 C 189.3,236.1 191.3,234.2 193.3,232.4 C 195.3,230.6 197.4,228.9 199.6,227.2 C 201.8,225.6 204.0,224.0 206.3,222.5 C 208.6,221.0 211.0,219.7 213.4,218.4 C 215.8,217.1 218.3,215.9 220.8,214.7 C 223.4,213.6 225.9,212.6 228.5,211.7 C 231.1,210.7 233.8,209.9 236.5,209.1 C 239.1,208.4 241.8,207.7 244.5,207.1 C 247.2,206.5 250.0,206.0 252.7,205.5 C 255.4,205.0 258.1,204.7 260.8,204.3 C 263.5,204.0 266.2,203.7 268.8,203.4 C 271.5,203.2 274.2,202.9 276.8,202.8 C 279.4,202.6 282.0,202.4 284.6,202.3 C 287.1,202.1 289.7,202.0 292.2,201.9 C 294.7,201.7 297.1,201.6 299.6,201.5 C 302.0,201.4 304.4,201.3 306.8,201.1 C 309.1,201.0 311.5,200.9 313.8,200.7 C 316.1,200.6 318.4,200.4 320.6,200.3 C 322.9,200.1 325.1,199.9 327.3,199.7 C 329.5,199.5 331.7,199.3 333.9,199.1 C 336.1,198.9 338.2,198.7 340.4,198.4 C 342.5,198.2 344.7,198.0 346.8,197.7 C 348.9,197.4 351.0,197.2 353.1,196.9 C 355.2,196.6 357.3,196.3 359.4,196.0 C 361.5,195.7 363.6,195.4 365.7,195.1 C 367.8,194.8 369.9,194.4 372.0,194.1 C 374.1,193.7 376.2,193.4 378.3,193.0 C 380.5,192.7 382.6,192.3 384.7,191.9 C 386.8,191.5 389.0,191.1 391.1,190.7 C 393.3,190.3 395.4,189.9 397.6,189.5 C 399.8,189.0 402.0,188.6 404.2,188.2 C 406.4,187.8 408.6,187.4 410.9,187.0 C 413.1,186.6 415.4,186.2 417.7,185.8 C 420.0,185.4 422.3,185.1 424.6,184.8 C 426.9,184.4 429.2,184.1 431.6,183.9 C 433.9,183.6 436.3,183.4 438.7,183.3 C 441.1,183.1 443.5,183.0 445.9,182.9 C 448.2,182.8 450.7,182.8 453.1,182.9 C 455.5,183.0 457.9,183.1 460.3,183.2 C 462.7,183.4 465.1,183.7 467.5,184.0 C 469.9,184.3 472.3,184.7 474.7,185.1 C 477.0,185.5 479.4,186.0 481.8,186.6 C 484.2,187.1 486.5,187.7 488.9,188.4 C 491.2,189.0 493.6,189.7 495.9,190.5 C 498.2,191.2 500.6,192.0 502.9,192.8 C 505.2,193.6 507.5,194.4 509.9,195.3 C 512.2,196.1 514.5,197.0 516.9,197.9 C 519.2,198.8 521.6,199.7 523.9,200.7 C 526.3,201.6 528.7,202.5 531.0,203.5 C 533.4,204.4 535.8,205.4 538.3,206.4 C 540.7,207.4 543.1,208.3 545.6,209.4 C 548.1,210.4 550.5,211.4 553.0,212.4 C 555.5,213.5 558.1,214.5 560.6,215.6 C 563.1,216.7 565.7,217.8 568.2,219.0 C 570.8,220.1 573.3,221.3 575.9,222.6 C 578.5,223.8 581.0,225.1 583.6,226.4 C 586.1,227.7 588.7,229.1 591.2,230.5 C 593.8,232.0 596.3,233.5 598.8,235.0 C 601.3,236.6 603.7,238.2 606.2,239.9 C 608.6,241.5 611.0,243.3 613.4,245.1 C 615.7,246.9 618.0,248.7 620.3,250.6 C 622.6,252.5 624.8,254.5 627.0,256.6 C 629.2,258.6 631.3,260.7 633.4,262.9 C 635.5,265.0 637.5,267.3 639.5,269.5 C 641.5,271.8 643.4,274.1 645.3,276.5 C 647.1,278.9 648.9,281.3 650.7,283.8 C 652.4,286.2 654.1,288.8 655.7,291.3 C 657.3,293.9 658.8,296.5 660.3,299.2 C 661.7,301.8 663.1,304.5 664.4,307.3 C 665.7,310.0 667.0,312.8 668.1,315.6 C 669.3,318.4 670.3,321.3 671.3,324.2 C 672.2,327.0 673.1,330.0 673.8,332.9 C 674.6,335.8 675.2,338.8 675.8,341.8 C 676.3,344.8 676.7,347.8 677.0,350.8 C 677.3,353.8 677.5,356.9 677.6,359.9 C 677.6,362.9 677.6,366.0 677.4,369.0 C 677.2,372.1 676.9,375.1 676.5,378.1 C 676.1,381.2 675.5,384.2 674.8,387.2 C 674.2,390.2 673.4,393.1 672.5,396.1 Z"/>
    <path d="M 735.5,386.4 C 734.3,390.0 733.1,393.5 731.7,397.0 C 730.4,400.5 728.9,404.0 727.4,407.4 C 725.9,410.8 724.2,414.2 722.5,417.5 C 720.7,420.8 718.9,424.1 717.0,427.3 C 715.1,430.5 713.1,433.6 711.0,436.7 C 708.9,439.8 706.7,442.8 704.5,445.7 C 702.3,448.7 699.9,451.6 697.6,454.4 C 695.2,457.2 692.8,459.9 690.3,462.6 C 687.8,465.3 685.2,467.9 682.7,470.4 C 680.1,473.0 677.4,475.4 674.8,477.8 C 672.1,480.2 669.5,482.5 666.8,484.8 C 664.1,487.1 661.4,489.3 658.7,491.4 C 656.0,493.6 653.3,495.6 650.6,497.7 C 647.9,499.7 645.2,501.7 642.6,503.6 C 640.0,505.6 637.4,507.5 634.8,509.4 C 632.2,511.2 629.7,513.1 627.2,514.9 C 624.7,516.7 622.2,518.5 619.8,520.3 C 617.4,522.1 615.1,523.8 612.8,525.6 C 610.5,527.4 608.2,529.1 606.0,530.9 C 603.8,532.6 601.6,534.4 599.5,536.1 C 597.3,537.9 595.3,539.6 593.2,541.4 C 591.1,543.1 589.1,544.9 587.1,546.6 C 585.1,548.4 583.1,550.2 581.2,551.9 C 579.2,553.7 577.3,555.4 575.3,557.2 C 573.4,559.0 571.5,560.7 569.5,562.5 C 567.6,564.3 565.7,566.0 563.8,567.8 C 561.8,569.5 559.9,571.3 558.0,573.0 C 556.0,574.8 554.1,576.5 552.1,578.3 C 550.2,580.0 548.2,581.7 546.3,583.5 C 544.3,585.2 542.3,586.9 540.4,588.7 C 538.4,590.4 536.4,592.1 534.4,593.9 C 532.4,595.6 530.4,597.3 528.4,599.1 C 526.4,600.8 524.3,602.6 522.3,604.3 C 520.3,606.1 518.2,607.9 516.2,609.6 C 514.1,611.4 512.0,613.2 509.9,615.0 C 507.8,616.8 505.7,618.6 503.5,620.4 C 501.4,622.2 499.2,624.0 497.0,625.8 C 494.8,627.6 492.6,629.4 490.3,631.2 C 488.1,633.0 485.8,634.8 483.5,636.5 C 481.1,638.2 478.8,639.9 476.3,641.6 C 473.9,643.3 471.5,644.9 469.0,646.5 C 466.5,648.0 463.9,649.6 461.4,651.0 C 458.8,652.5 456.2,653.9 453.5,655.2 C 450.8,656.5 448.1,657.7 445.4,658.9 C 442.7,660.0 439.9,661.1 437.1,662.0 C 434.3,663.0 431.4,663.9 428.6,664.7 C 425.7,665.5 422.8,666.2 419.9,666.8 C 417.0,667.5 414.1,668.0 411.2,668.5 C 408.2,668.9 405.3,669.3 402.3,669.6 C 399.4,669.9 396.4,670.2 393.4,670.4 C 390.4,670.6 387.5,670.7 384.5,670.8 C 381.5,670.8 378.5,670.9 375.5,670.9 C 372.5,670.8 369.5,670.8 366.5,670.7 C 363.5,670.6 360.5,670.5 357.5,670.4 C 354.5,670.2 351.5,670.1 348.5,669.9 C 345.5,669.7 342.5,669.5 339.4,669.3 C 336.4,669.1 333.4,668.8 330.3,668.5 C 327.3,668.3 324.3,668.0 321.2,667.7 C 318.1,667.3 315.1,667.0 312.0,666.6 C 308.9,666.2 305.8,665.8 302.8,665.4 C 299.7,664.9 296.6,664.5 293.5,663.9 C 290.4,663.4 287.3,662.8 284.2,662.2 C 281.1,661.6 278.0,660.9 274.9,660.2 C 271.8,659.5 268.7,658.7 265.6,657.9 C 262.6,657.1 259.5,656.2 256.4,655.3 C 253.3,654.4 250.3,653.4 247.2,652.3 C 244.1,651.3 241.1,650.2 238.1,649.1 C 235.0,647.9 232.0,646.7 229.0,645.5 C 226.0,644.2 223.0,642.9 220.0,641.6 C 217.0,640.2 214.0,638.8 211.1,637.3 C 208.1,635.9 205.2,634.4 202.3,632.8 C 199.4,631.2 196.5,629.6 193.7,627.9 C 190.8,626.1 188.0,624.4 185.2,622.6 C 182.4,620.7 179.7,618.8 177.0,616.9 C 174.3,614.9 171.6,612.9 169.1,610.7 C 166.5,608.6 163.9,606.4 161.5,604.2 C 159.0,601.9 156.6,599.6 154.3,597.2 C 152.0,594.8 149.8,592.3 147.7,589.7 C 145.5,587.1 143.5,584.5 141.6,581.7 C 139.6,579.0 137.8,576.2 136.0,573.4 C 134.3,570.5 132.7,567.6 131.1,564.6 C 129.6,561.7 128.2,558.6 126.9,555.5 C 125.6,552.5 124.4,549.3 123.2,546.2 C 122.1,543.0 121.1,539.8 120.2,536.6 C 119.2,533.4 118.4,530.1 117.6,526.9 C 116.9,523.7 116.2,520.4 115.5,517.2 C 114.9,513.9 114.3,510.6 113.8,507.4 C 113.2,504.2 112.7,500.9 112.3,497.7 C 111.8,494.5 111.4,491.3 110.9,488.1 C 110.5,484.9 110.1,481.7 109.7,478.6 C 109.3,475.4 108.9,472.3 108.5,469.2 C 108.0,466.1 107.6,463.0 107.2,459.9 C 106.7,456.8 106.3,453.7 105.8,450.7 C 105.4,447.6 104.9,444.6 104.4,441.5 C 104.0,438.5 103.5,435.4 103.0,432.4 C 102.5,429.3 102.0,426.3 101.5,423.3 C 101.0,420.2 100.5,417.2 100.0,414.1 C 99.5,411.1 99.0,408.0 98.5,404.9 C 98.1,401.9 97.6,398.8 97.2,395.7 C 96.8,392.6 96.4,389.5 96.0,386.4 C 95.6,383.3 95.3,380.1 94.9,377.0 C 94.6,373.9 94.3,370.7 94.1,367.6 C 93.9,364.4 93.6,361.2 93.5,358.0 C 93.3,354.9 93.2,351.7 93.1,348.4 C 93.0,345.2 92.9,342.0 92.9,338.8 C 92.9,335.6 92.9,332.3 93.0,329.1 C 93.1,325.8 93.2,322.6 93.4,319.3 C 93.6,316.1 93.8,312.8 94.1,309.5 C 94.3,306.3 94.7,303.0 95.1,299.7 C 95.5,296.4 95.9,293.2 96.4,289.9 C 97.0,286.6 97.5,283.4 98.2,280.1 C 98.9,276.9 99.6,273.6 100.5,270.4 C 101.3,267.2 102.2,264.0 103.3,260.8 C 104.3,257.7 105.4,254.5 106.6,251.4 C 107.8,248.3 109.1,245.3 110.6,242.3 C 112.0,239.3 113.5,236.3 115.2,233.4 C 116.8,230.5 118.6,227.7 120.4,224.9 C 122.2,222.2 124.2,219.5 126.3,216.8 C 128.3,214.2 130.5,211.7 132.7,209.2 C 134.9,206.7 137.3,204.4 139.7,202.1 C 142.1,199.8 144.6,197.5 147.2,195.4 C 149.8,193.3 152.4,191.2 155.1,189.2 C 157.8,187.3 160.6,185.4 163.4,183.6 C 166.1,181.7 169.0,180.0 171.9,178.3 C 174.7,176.7 177.7,175.1 180.6,173.6 C 183.5,172.1 186.5,170.6 189.5,169.2 C 192.5,167.8 195.5,166.5 198.5,165.3 C 201.5,164.0 204.5,162.8 207.5,161.7 C 210.6,160.6 213.6,159.5 216.6,158.5 C 219.7,157.5 222.7,156.5 225.8,155.6 C 228.8,154.7 231.8,153.9 234.9,153.1 C 237.9,152.4 241.0,151.7 244.0,151.0 C 247.1,150.4 250.1,149.8 253.2,149.3 C 256.2,148.7 259.3,148.3 262.3,147.9 C 265.3,147.5 268.3,147.1 271.4,146.8 C 274.4,146.5 277.4,146.3 280.4,146.1 C 283.3,145.9 286.3,145.8 289.3,145.7 C 292.2,145.6 295.1,145.5 298.0,145.5 C 300.9,145.5 303.8,145.5 306.7,145.5 C 309.5,145.5 312.4,145.5 315.2,145.6 C 318.0,145.6 320.7,145.6 323.5,145.6 C 326.2,145.6 328.9,145.6 331.6,145.6 C 334.3,145.6 336.9,145.5 339.6,145.5 C 342.2,145.4 344.8,145.3 347.4,145.1 C 350.0,144.9 352.5,144.7 355.1,144.5 C 357.7,144.2 360.2,143.9 362.7,143.6 C 365.3,143.3 367.8,142.9 370.4,142.5 C 372.9,142.0 375.4,141.6 378.0,141.1 C 380.5,140.6 383.1,140.1 385.7,139.5 C 388.2,139.0 390.8,138.4 393.4,137.9 C 396.0,137.3 398.6,136.7 401.3,136.1 C 403.9,135.6 406.6,135.0 409.3,134.5 C 411.9,133.9 414.7,133.4 417.4,132.9 C 420.1,132.4 422.8,131.9 425.6,131.5 C 428.4,131.1 431.2,130.7 434.0,130.4 C 436.8,130.0 439.6,129.7 442.4,129.5 C 445.2,129.3 448.1,129.1 451.0,128.9 C 453.8,128.8 456.7,128.7 459.6,128.7 C 462.5,128.7 465.4,128.7 468.3,128.7 C 471.2,128.8 474.1,128.9 477.0,129.1 C 479.9,129.3 482.9,129.5 485.8,129.8 C 488.7,130.0 491.7,130.3 494.6,130.7 C 497.6,131.1 500.6,131.5 503.5,131.9 C 506.5,132.4 509.5,132.9 512.4,133.4 C 515.4,134.0 518.4,134.6 521.4,135.2 C 524.4,135.9 527.4,136.6 530.3,137.3 C 533.3,138.1 536.3,138.9 539.3,139.7 C 542.3,140.6 545.2,141.5 548.2,142.5 C 551.2,143.4 554.1,144.4 557.1,145.5 C 560.1,146.6 563.0,147.8 565.9,149.0 C 568.8,150.1 571.8,151.4 574.7,152.7 C 577.6,154.0 580.5,155.4 583.3,156.8 C 586.2,158.2 589.1,159.7 591.9,161.2 C 594.8,162.8 597.6,164.3 600.4,166.0 C 603.2,167.6 606.0,169.2 608.9,170.9 C 611.7,172.6 614.5,174.4 617.3,176.2 C 620.1,177.9 622.9,179.8 625.7,181.6 C 628.5,183.4 631.3,185.3 634.1,187.2 C 637.0,189.2 639.8,191.1 642.6,193.1 C 645.5,195.1 648.3,197.1 651.2,199.1 C 654.0,201.2 656.9,203.2 659.8,205.4 C 662.6,207.5 665.5,209.7 668.4,211.9 C 671.2,214.1 674.1,216.4 677.0,218.7 C 679.8,221.0 682.6,223.4 685.4,225.9 C 688.2,228.3 691.0,230.8 693.7,233.4 C 696.4,236.0 699.1,238.6 701.7,241.3 C 704.3,244.0 706.8,246.8 709.2,249.7 C 711.7,252.6 714.0,255.5 716.3,258.6 C 718.5,261.6 720.7,264.7 722.7,267.9 C 724.7,271.0 726.5,274.3 728.3,277.6 C 730.0,280.9 731.6,284.3 733.1,287.7 C 734.5,291.1 735.8,294.6 737.0,298.2 C 738.1,301.7 739.1,305.3 739.9,308.9 C 740.7,312.6 741.4,316.2 741.9,319.9 C 742.4,323.6 742.8,327.3 743.0,331.0 C 743.2,334.7 743.2,338.5 743.1,342.2 C 743.0,345.9 742.8,349.7 742.4,353.4 C 742.0,357.1 741.5,360.8 740.8,364.5 C 740.2,368.2 739.4,371.9 738.5,375.5 C 737.6,379.2 736.6,382.8 735.5,386.4 Z"/>
    <path d="M 802.2,403.1 C 800.8,407.3 799.2,411.5 797.6,415.6 C 795.9,419.7 794.1,423.8 792.3,427.8 C 790.4,431.8 788.4,435.7 786.3,439.6 C 784.2,443.5 782.0,447.3 779.8,451.1 C 777.5,454.8 775.2,458.5 772.8,462.1 C 770.4,465.8 767.9,469.3 765.4,472.8 C 762.9,476.3 760.3,479.7 757.7,483.1 C 755.1,486.4 752.4,489.7 749.7,492.9 C 747.0,496.1 744.2,499.2 741.4,502.3 C 738.6,505.3 735.8,508.3 732.9,511.3 C 730.0,514.2 727.1,517.0 724.1,519.8 C 721.2,522.5 718.2,525.2 715.1,527.9 C 712.1,530.5 709.1,533.0 706.0,535.5 C 702.9,538.0 699.8,540.4 696.7,542.7 C 693.6,545.0 690.5,547.3 687.4,549.5 C 684.2,551.7 681.1,553.8 678.0,555.9 C 674.9,558.0 671.8,560.0 668.7,562.0 C 665.7,564.0 662.6,565.9 659.6,567.8 C 656.6,569.7 653.6,571.6 650.7,573.5 C 647.8,575.3 644.9,577.1 642.1,579.0 C 639.3,580.8 636.5,582.6 633.8,584.4 C 631.1,586.3 628.5,588.1 625.9,590.0 C 623.3,591.8 620.8,593.7 618.4,595.6 C 615.9,597.5 613.5,599.4 611.2,601.4 C 608.9,603.4 606.6,605.4 604.4,607.4 C 602.1,609.5 599.9,611.6 597.8,613.7 C 595.6,615.8 593.5,618.0 591.4,620.2 C 589.3,622.3 587.2,624.6 585.1,626.8 C 583.0,629.1 581.0,631.4 578.9,633.7 C 576.8,636.0 574.7,638.3 572.6,640.6 C 570.5,642.9 568.4,645.3 566.2,647.6 C 564.0,649.9 561.9,652.3 559.6,654.6 C 557.4,656.9 555.2,659.2 552.9,661.5 C 550.6,663.8 548.2,666.1 545.8,668.3 C 543.5,670.6 541.0,672.8 538.6,675.0 C 536.1,677.1 533.6,679.3 531.0,681.4 C 528.4,683.5 525.8,685.6 523.2,687.7 C 520.5,689.7 517.8,691.7 515.1,693.7 C 512.3,695.6 509.5,697.5 506.7,699.4 C 503.9,701.3 501.0,703.1 498.1,704.9 C 495.2,706.7 492.2,708.4 489.2,710.1 C 486.2,711.8 483.2,713.4 480.1,715.0 C 477.0,716.5 473.9,718.0 470.8,719.5 C 467.6,720.9 464.4,722.3 461.2,723.6 C 457.9,724.9 454.7,726.1 451.4,727.2 C 448.1,728.3 444.7,729.4 441.4,730.4 C 438.0,731.3 434.6,732.2 431.2,733.0 C 427.8,733.8 424.4,734.5 420.9,735.0 C 417.5,735.6 414.0,736.1 410.5,736.5 C 407.0,736.9 403.5,737.3 400.0,737.5 C 396.5,737.7 393.0,737.8 389.5,737.9 C 386.0,738.0 382.5,737.9 379.0,737.8 C 375.5,737.8 372.0,737.6 368.4,737.4 C 364.9,737.2 361.4,736.9 357.9,736.6 C 354.4,736.3 350.9,736.0 347.4,735.6 C 343.9,735.2 340.4,734.8 336.8,734.4 C 333.3,734.0 329.8,733.6 326.3,733.2 C 322.7,732.8 319.2,732.3 315.6,731.9 C 312.1,731.5 308.5,731.0 304.9,730.6 C 301.3,730.2 297.7,729.8 294.1,729.3 C 290.4,728.9 286.8,728.4 283.1,728.0 C 279.4,727.5 275.7,727.1 272.0,726.6 C 268.3,726.0 264.5,725.5 260.8,725.0 C 257.0,724.4 253.2,723.8 249.5,723.1 C 245.7,722.4 241.9,721.7 238.1,720.9 C 234.3,720.1 230.5,719.3 226.8,718.3 C 223.0,717.3 219.2,716.3 215.5,715.2 C 211.8,714.0 208.1,712.8 204.4,711.4 C 200.7,710.1 197.1,708.6 193.5,707.0 C 189.9,705.5 186.4,703.8 182.9,702.0 C 179.4,700.2 176.0,698.3 172.6,696.3 C 169.3,694.3 166.0,692.1 162.8,689.9 C 159.6,687.7 156.4,685.4 153.3,682.9 C 150.3,680.5 147.3,678.0 144.3,675.4 C 141.4,672.8 138.6,670.1 135.8,667.3 C 133.1,664.6 130.4,661.7 127.7,658.8 C 125.1,655.9 122.6,652.9 120.1,649.9 C 117.7,646.8 115.3,643.7 113.0,640.6 C 110.7,637.4 108.5,634.2 106.3,630.9 C 104.2,627.7 102.1,624.4 100.1,621.0 C 98.1,617.7 96.2,614.3 94.4,610.8 C 92.6,607.4 90.8,603.9 89.2,600.4 C 87.5,596.9 85.9,593.3 84.4,589.8 C 82.9,586.2 81.5,582.6 80.2,578.9 C 78.9,575.3 77.6,571.6 76.5,568.0 C 75.3,564.3 74.2,560.6 73.2,556.9 C 72.2,553.2 71.3,549.5 70.4,545.7 C 69.6,542.0 68.8,538.3 68.1,534.6 C 67.3,530.8 66.7,527.1 66.0,523.4 C 65.4,519.6 64.8,515.9 64.3,512.2 C 63.7,508.5 63.2,504.8 62.7,501.1 C 62.3,497.4 61.8,493.7 61.3,490.1 C 60.9,486.4 60.4,482.8 60.0,479.1 C 59.5,475.5 59.1,471.9 58.6,468.2 C 58.1,464.6 57.6,461.0 57.2,457.4 C 56.7,453.8 56.2,450.2 55.6,446.6 C 55.1,443.0 54.6,439.4 54.1,435.8 C 53.5,432.2 53.0,428.6 52.4,425.0 C 51.9,421.4 51.3,417.7 50.8,414.1 C 50.2,410.4 49.7,406.8 49.2,403.1 C 48.7,399.4 48.2,395.7 47.8,392.0 C 47.3,388.3 46.9,384.6 46.6,380.9 C 46.2,377.1 45.9,373.4 45.7,369.6 C 45.4,365.8 45.3,362.1 45.2,358.3 C 45.1,354.5 45.0,350.7 45.1,346.9 C 45.1,343.1 45.2,339.3 45.5,335.5 C 45.7,331.7 46.0,327.8 46.3,324.0 C 46.7,320.2 47.2,316.4 47.7,312.6 C 48.2,308.8 48.9,305.1 49.5,301.3 C 50.2,297.5 51.0,293.7 51.9,290.0 C 52.7,286.2 53.7,282.5 54.7,278.8 C 55.7,275.0 56.7,271.3 57.9,267.6 C 59.0,263.9 60.2,260.3 61.5,256.6 C 62.8,253.0 64.2,249.3 65.6,245.7 C 67.0,242.1 68.5,238.5 70.1,235.0 C 71.7,231.5 73.4,228.0 75.1,224.5 C 76.9,221.0 78.7,217.6 80.7,214.2 C 82.6,210.9 84.6,207.5 86.7,204.3 C 88.9,201.0 91.1,197.8 93.4,194.7 C 95.7,191.6 98.2,188.6 100.7,185.6 C 103.3,182.7 105.9,179.8 108.7,177.1 C 111.4,174.3 114.3,171.7 117.2,169.1 C 120.2,166.6 123.3,164.2 126.4,161.9 C 129.6,159.6 132.8,157.4 136.2,155.3 C 139.5,153.2 142.9,151.3 146.4,149.5 C 149.9,147.7 153.5,146.0 157.1,144.4 C 160.7,142.8 164.4,141.4 168.1,140.0 C 171.8,138.7 175.6,137.5 179.3,136.3 C 183.1,135.2 186.9,134.2 190.7,133.3 C 194.5,132.3 198.3,131.5 202.1,130.7 C 205.9,130.0 209.8,129.3 213.5,128.7 C 217.3,128.1 221.1,127.5 224.8,127.0 C 228.6,126.5 232.3,126.1 236.0,125.7 C 239.6,125.3 243.3,124.9 246.9,124.6 C 250.5,124.2 254.1,124.0 257.7,123.7 C 261.2,123.4 264.7,123.2 268.2,122.9 C 271.7,122.7 275.1,122.5 278.5,122.3 C 281.9,122.1 285.3,121.9 288.6,121.8 C 292.0,121.6 295.3,121.4 298.6,121.3 C 301.9,121.1 305.1,121.0 308.3,120.8 C 311.5,120.7 314.7,120.5 317.9,120.4 C 321.1,120.2 324.2,120.0 327.3,119.9 C 330.4,119.7 333.5,119.5 336.6,119.3 C 339.7,119.1 342.7,118.9 345.8,118.6 C 348.8,118.4 351.8,118.1 354.9,117.8 C 357.9,117.5 360.9,117.2 363.9,116.8 C 366.9,116.4 369.9,116.0 372.9,115.5 C 375.9,115.1 378.8,114.6 381.9,114.1 C 384.9,113.5 387.9,113.0 390.9,112.4 C 393.9,111.8 397.0,111.1 400.0,110.5 C 403.1,109.8 406.2,109.1 409.3,108.4 C 412.4,107.7 415.5,107.0 418.7,106.3 C 421.9,105.6 425.1,104.8 428.3,104.1 C 431.5,103.4 434.8,102.8 438.1,102.1 C 441.3,101.5 444.7,100.9 448.0,100.3 C 451.3,99.8 454.7,99.3 458.1,98.9 C 461.5,98.4 464.9,98.1 468.3,97.8 C 471.7,97.6 475.1,97.4 478.6,97.3 C 482.0,97.2 485.5,97.2 488.9,97.3 C 492.3,97.4 495.8,97.6 499.2,97.9 C 502.7,98.1 506.1,98.5 509.5,99.0 C 512.9,99.5 516.4,100.1 519.8,100.7 C 523.2,101.4 526.6,102.1 529.9,102.9 C 533.3,103.7 536.7,104.6 540.0,105.6 C 543.4,106.5 546.8,107.5 550.1,108.6 C 553.5,109.6 556.8,110.7 560.1,111.9 C 563.5,113.0 566.8,114.2 570.2,115.4 C 573.5,116.6 576.9,117.8 580.3,119.1 C 583.7,120.4 587.0,121.6 590.4,122.9 C 593.8,124.2 597.3,125.6 600.7,126.9 C 604.2,128.3 607.6,129.6 611.1,131.0 C 614.6,132.4 618.1,133.8 621.6,135.3 C 625.1,136.7 628.7,138.2 632.2,139.8 C 635.8,141.3 639.3,142.8 642.9,144.5 C 646.5,146.1 650.1,147.7 653.7,149.5 C 657.3,151.2 660.9,153.0 664.4,154.8 C 668.0,156.7 671.6,158.6 675.2,160.5 C 678.7,162.5 682.3,164.6 685.8,166.7 C 689.3,168.8 692.9,171.0 696.3,173.3 C 699.8,175.5 703.3,177.9 706.7,180.3 C 710.1,182.7 713.5,185.2 716.8,187.8 C 720.2,190.4 723.5,193.0 726.8,195.8 C 730.0,198.5 733.3,201.3 736.4,204.2 C 739.6,207.1 742.7,210.0 745.8,213.0 C 748.8,216.1 751.8,219.2 754.8,222.4 C 757.7,225.5 760.6,228.8 763.4,232.1 C 766.2,235.4 769.0,238.8 771.6,242.3 C 774.2,245.8 776.8,249.3 779.2,253.0 C 781.7,256.6 784.1,260.3 786.3,264.0 C 788.5,267.8 790.7,271.6 792.7,275.5 C 794.6,279.4 796.5,283.4 798.2,287.4 C 799.9,291.5 801.5,295.5 802.9,299.7 C 804.3,303.8 805.5,308.0 806.6,312.2 C 807.6,316.5 808.5,320.8 809.2,325.1 C 809.9,329.4 810.4,333.7 810.7,338.1 C 811.1,342.4 811.2,346.8 811.2,351.2 C 811.1,355.5 810.9,359.9 810.5,364.3 C 810.1,368.7 809.5,373.1 808.7,377.4 C 807.9,381.7 807.0,386.1 805.9,390.4 C 804.8,394.6 803.6,398.9 802.2,403.1 Z"/>
  </g>
</svg>