<svg xmlns="http://www.w3.org/2000/svg" viewBox="0 0 800 800" fill="none">
  <g stroke="#E6EDF3" stroke-width="1.25" fill="none" opacity="0.08">
    <path d="M 456.5,400.5 C 456.7,401.1 456.9,401.7 457.1,402.3 C 457.2,402.9 457.4,403.5 457.5,404.1 C 457.6,404.7 457.8,405.3 457.8,405.9 C 457.9,406.5 458.0,407.2 458.0,407.8 C 458.1,408.4 458.1,409.0 458.1,409.6 C 458.1,410.2 458.0,410.8 458.0,411.5 C 457.9,412.1 457.8,412.7 457.8,413.3 C 457.7,413.9 457.5,414.5 457.4,415.1 C 457.3,415.7 457.1,416.3 456.9,416.8 C 456.8,417.4 456.6,418.0 456.4,418.6 C 456.2,419.2 455.9,419.7 455.7,420.3 C 455.5,420.9 455.2,421.4 455.0,422.0 C 454.7,422.5 454.5,423.1 454.2,423.6 C 453.9,424.2 453.7,424.7 453.4,425.3 C 453.1,425.8 452.8,426.4 452.5,426.9 C 452.2,427.4 451.9,428.0 451.6,428.5 C 451.3,429.0 451.0,429.5 450.7,430.1 C 450.4,430.6 450.1,431.1 449.8,431.6 C 449.5,432.1 449.1,432.6 448.8,433.1 C 448.5,433.7 448.1,434.2 447.8,434.7 C 447.4,435.2 447.1,435.6 446.7,436.1 C 446.3,436.6 445.9,437.1 445.6,437.5 C 445.2,438.0 444.8,438.5 444.3,438.9 C 443.9,439.4 443.5,439.8 443.1,440.2 C 442.6,440.6 442.2,441.0 441.7,441.4 C 441.2,441.8 440.7,442.2 440.2,442.5 C 439.7,442.9 439.2,443.2 438.7,443.5 C 438.2,443.8 437.7,444.1 437.1,444.4 C 436.6,444.7 436.0,445.0 435.5,445.2 C 434.9,445.5 434.3,445.7 433.8,445.9 C 433.2,446.1 432.6,446.3 432.0,446.4 C 431.4,446.6 430.8,446.8 430.2,446.9 C 429.7,447.0 429.1,447.2 428.5,447.2 C 427.9,447.3 427.2,447.4 426.6,447.5 C 426.0,447.6 425.4,447.6 424.8,447.6 C 424.2,447.7 423.6,447.7 423.0,447.7 C 422.4,447.7 421.8,447.7 421.2,447.7 C 420.6,447.6 420.0,447.6 419.4,447.5 C 418.8,447.5 418.3,447.4 417.7,447.3 C 417.1,447.3 416.5,447.2 415.9,447.1 C 415.4,446.9 414.8,446.8 414.2,446.7 C 413.7,446.6 413.1,446.4 412.6,446.3 C 412.0,446.1 411.5,446.0 410.9,445.8 C 410.4,445.6 409.9,445.5 409.4,445.3 C 408.9,445.1 408.3,444.9 407.8,444.8 C 407.3,444.6 406.8,444.4 406.4,444.2 C 405.9,444.1 405.4,443.9 404.9,443.7 C 404.4,443.6 404.0,443.4 403.5,443.2 C 403.1,443.1 402.6,443.0 402.2,442.8 C 401.7,442.7 401.3,442.6 400.8,442.5 C 400.4,442.4 400.0,442.3 399.5,442.2 C 399.1,442.1 398.7,442.0 398.2,442.0 C 397.8,441.9 397.4,441.9 396.9,441.9 C 396.5,441.8 396.1,441.8 395.6,441.8 C 395.2,441.8 394.7,441.8 394.3,441.8 C 393.9,441.8 393.4,441.9 392.9,441.9 C 392.5,441.9 392.0,441.9 391.6,442.0 C 391.1,442.0 390.6,442.0 390.2,442.1 C 389.7,442.1 389.2,442.1 388.7,442.2 C 388.3,442.2 387.8,442.2 387.3,442.2 C 386.8,442.2 386.3,442.2 385.8,442.2 C 385.3,442.2 384.8,442.2 384.3,442.2 C 383.8,442.2 383.3,442.2 382.8,442.1 C 382.3,442.1 381.8,442.0 381.4,442.0 C 380.9,441.9 380.4,441.8 379.9,441.7 C 379.4,441.6 378.9,441.5 378.4,441.4 C 377.9,441.3 377.4,441.2 376.9,441.1 C 376.4,440.9 375.9,440.8 375.4,440.6 C 374.9,440.5 374.4,440.3 373.9,440.1 C 373.4,440.0 373.0,439.8 372.5,439.6 C 372.0,439.4 371.5,439.2 371.0,439.0 C 370.6,438.7 370.1,438.5 369.6,438.3 C 369.2,438.0 368.7,437.8 368.2,437.5 C 367.8,437.2 367.3,437.0 366.9,436.7 C 366.5,436.4 366.0,436.1 365.6,435.8 C 365.2,435.5 364.8,435.1 364.4,434.8 C 364.0,434.5 363.6,434.1 363.2,433.7 C 362.8,433.4 362.4,433.0 362.1,432.6 C 361.7,432.2 361.4,431.8 361.1,431.4 C 360.8,431.0 360.4,430.5 360.2,430.1 C 359.9,429.7 359.6,429.2 359.3,428.8 C 359.1,428.3 358.8,427.8 358.6,427.4 C 358.3,426.9 358.1,426.4 357.9,425.9 C 357.7,425.5 357.5,425.0 357.3,424.5 C 357.1,424.0 357.0,423.5 356.8,423.0 C 356.6,422.5 356.5,422.0 356.3,421.5 C 356.2,421.0 356.0,420.5 355.9,420.0 C 355.8,419.5 355.6,419.0 355.5,418.5 C 355.4,418.0 355.2,417.5 355.1,417.0 C 355.0,416.5 354.9,416.0 354.8,415.5 C 354.7,415.0 354.6,414.5 354.4,414.0 C 354.3,413.5 354.2,413.0 354.1,412.5 C 354.0,412.0 353.9,411.6 353.8,411.1 C 353.7,410.6 353.6,410.1 353.5,409.6 C 353.5,409.1 353.4,408.6 353.3,408.1 C 353.2,407.6 353.1,407.1 353.0,406.6 C 353.0,406.1 352.9,405.6 352.8,405.1 C 352.8,404.6 352.7,404.1 352.6,403.6 C 352.6,403.1 352.5,402.6 352.5,402.1 C 352.4,401.6 352.4,401.1 352.3,400.5 C 352.2,400.0 352.2,399.5 352.2,399.0 C 352.1,398.5 352.1,398.0 352.0,397.5 C 352.0,397.0 351.9,396.4 351.9,395.9 C 351.8,395.4 351.8,394.9 351.7,394.3 C 351.7,393.8 351.6,393.3 351.6,392.8 C 351.6,392.2 351.5,391.7 351.5,391.1 C 351.4,390.6 351.4,390.0 351.3,389.5 C 351.3,388.9 351.3,388.4 351.2,387.8 C 351.2,387.3 351.2,386.7 351.2,386.1 C 351.2,385.6 351.1,385.0 351.1,384.4 C 351.2,383.8 351.2,383.3 351.2,382.7 C 351.2,382.1 351.3,381.5 351.3,380.9 C 351.4,380.4 351.5,379.8 351.6,379.2 C 351.7,378.7 351.8,378.1 351.9,377.5 C 352.0,377.0 352.2,376.4 352.4,375.8 C 352.5,375.3 352.7,374.8 352.9,374.2 C 353.1,373.7 353.4,373.2 353.6,372.6 C 353.9,372.1 354.2,371.6 354.4,371.1 C 354.7,370.6 355.0,370.1 355.4,369.6 C 355.7,369.2 356.0,368.7 356.4,368.2 C 356.7,367.8 357.1,367.3 357.4,366.9 C 357.8,366.5 358.2,366.0 358.6,365.6 C 359.0,365.2 359.4,364.8 359.8,364.4 C 360.2,364.0 360.6,363.6 361.0,363.2 C 361.4,362.8 361.9,362.4 362.3,362.0 C 362.7,361.6 363.1,361.2 363.6,360.9 C 364.0,360.5 364.4,360.1 364.9,359.8 C 365.3,359.4 365.7,359.0 366.2,358.7 C 366.6,358.3 367.1,358.0 367.5,357.6 C 368.0,357.3 368.4,356.9 368.9,356.6 C 369.3,356.2 369.8,355.9 370.3,355.6 C 370.7,355.2 371.2,354.9 371.7,354.6 C 372.1,354.3 372.6,353.9 373.1,353.6 C 373.6,353.3 374.1,353.0 374.5,352.7 C 375.0,352.4 375.5,352.2 376.0,351.9 C 376.5,351.6 377.0,351.3 377.5,351.1 C 378.1,350.8 378.6,350.5 379.1,350.3 C 379.6,350.1 380.1,349.8 380.7,349.6 C 381.2,349.4 381.7,349.1 382.2,348.9 C 382.8,348.7 383.3,348.5 383.9,348.3 C 384.4,348.1 384.9,347.9 385.5,347.7 C 386.0,347.6 386.6,347.4 387.1,347.2 C 387.7,347.1 388.3,346.9 388.8,346.8 C 389.4,346.7 389.9,346.6 390.5,346.5 C 391.1,346.3 391.7,346.3 392.2,346.2 C 392.8,346.1 393.4,346.1 393.9,346.0 C 394.5,346.0 395.1,346.0 395.7,346.0 C 396.3,346.0 396.8,346.0 397.4,346.1 C 398.0,346.1 398.6,346.2 399.1,346.3 C 399.7,346.4 400.3,346.5 400.8,346.7 C 401.4,346.8 402.0,347.0 402.5,347.2 C 403.1,347.4 403.6,347.6 404.1,347.9 C 404.7,348.1 405.2,348.4 405.7,348.7 C 406.3,349.0 406.8,349.3 407.3,349.7 C 407.8,350.0 408.2,350.4 408.7,350.8 C 409.2,351.1 409.7,351.5 410.1,351.9 C 410.6,352.4 411.0,352.8 411.4,353.2 C 411.8,353.6 412.3,354.1 412.7,354.5 C 413.1,355.0 413.4,355.4 413.8,355.9 C 414.2,356.3 414.6,356.8 414.9,357.2 C 415.3,357.7 415.6,358.1 415.9,358.6 C 416.3,359.0 416.6,359.5 416.9,359.9 C 417.2,360.3 417.6,360.8 417.9,361.2 C 418.2,361.6 418.5,362.1 418.8,362.5 C 419.0,362.9 419.3,363.3 419.6,363.7 C 419.9,364.1 420.2,364.5 420.5,364.9 C 420.7,365.3 421.0,365.6 421.3,366.0 C 421.5,366.4 421.8,366.7 422.1,367.1 C 422.3,367.5 422.6,367.8 422.8,368.2 C 423.1,368.5 423.4,368.9 423.6,369.2 C 423.9,369.5 424.1,369.9 424.4,370.2 C 424.6,370.5 424.9,370.8 425.2,371.1 C 425.4,371.4 425.7,371.8 426.0,372.1 C 426.2,372.4 426.5,372.6 426.8,372.9 C 427.0,373.2 427.3,373.5 427.6,373.8 C 427.9,374.0 428.2,374.3 428.5,374.6 C 428.8,374.8 429.1,375.1 429.4,375.3 C 429.8,375.6 430.1,375.8 430.4,376.1 C 430.8,376.3 431.1,376.5 431.5,376.8 C 431.9,377.0 432.3,377.2 432.6,377.4 C 433.0,377.7 433.4,377.9 433.8,378.1 C 434.3,378.3 434.7,378.6 435.1,378.8 C 435.6,379.0 436.0,379.3 436.4,379.5 C 436.9,379.7 437.4,380.0 437.8,380.2 C 438.3,380.5 438.8,380.7 439.2,381.0 C 439.7,381.3 440.2,381.5 440.6,381.8 C 441.1,382.1 441.6,382.4 442.1,382.7 C 442.5,383.0 443.0,383.3 443.5,383.7 C 444.0,384.0 444.4,384.3 444.9,384.7 C 445.3,385.0 445.8,385.4 446.2,385.8 C 446.7,386.2 447.1,386.6 447.5,387.0 C 448.0,387.4 448.4,387.8 448.8,388.2 C 449.2,388.7 449.6,389.1 450.0,389.6 C 450.4,390.0 450.8,390.5 451.2,390.9 C 451.5,391.4 451.9,391.9 452.2,392.4 C 452.6,392.9 452.9,393.4 453.3,393.9 C 453.6,394.4 453.9,395.0 454.2,395.5 C 454.5,396.0 454.8,396.6 455.1,397.1 C 455.3,397.7 455.6,398.3 455.8,398.8 C 456.1,399.4 456.3,400.0 456.5,400.5 Z"/>
    <path d="M 495.7,399.3 C 496.0,400.2 496.2,401.2 496.4,402.2 C 496.7,403.3 496.9,404.3 497.0,405.3 C 497.2,406.3 497.4,407.3 497.5,408.4 C 497.6,409.4 497.7,410.4 497.7,411.5 C 497.8,412.5 497.8,413.5 497.8,414.6 C 497.8,415.6 497.8,416.6 497.8,417.7 C 497.7,418.7 497.6,419.8 497.5,420.8 C 497.4,421.8 497.3,422.9 497.2,423.9 C 497.0,424.9 496.8,426.0 496.6,427.0 C 496.4,428.0 496.2,429.0 495.9,430.0 C 495.6,431.0 495.3,432.0 495.0,433.0 C 494.7,434.0 494.3,435.0 493.9,436.0 C 493.5,437.0 493.1,437.9 492.7,438.9 C 492.3,439.8 491.8,440.8 491.3,441.7 C 490.8,442.6 490.3,443.5 489.8,444.4 C 489.3,445.3 488.7,446.2 488.2,447.1 C 487.6,448.0 487.0,448.8 486.4,449.7 C 485.8,450.5 485.2,451.4 484.6,452.2 C 484.0,453.0 483.3,453.8 482.7,454.7 C 482.0,455.5 481.4,456.3 480.7,457.1 C 480.1,457.8 479.4,458.6 478.7,459.4 C 478.0,460.2 477.3,460.9 476.6,461.7 C 475.9,462.4 475.2,463.2 474.5,463.9 C 473.8,464.6 473.1,465.4 472.3,466.1 C 471.6,466.8 470.8,467.5 470.0,468.1 C 469.3,468.8 468.5,469.5 467.7,470.1 C 466.9,470.7 466.1,471.4 465.3,472.0 C 464.4,472.5 463.6,473.1 462.7,473.7 C 461.9,474.2 461.0,474.7 460.1,475.2 C 459.2,475.7 458.2,476.1 457.3,476.5 C 456.4,476.9 455.4,477.3 454.4,477.6 C 453.5,478.0 452.5,478.3 451.5,478.5 C 450.5,478.8 449.4,479.0 448.4,479.2 C 447.4,479.3 446.4,479.5 445.3,479.6 C 444.3,479.7 443.2,479.7 442.2,479.7 C 441.1,479.8 440.1,479.8 439.0,479.7 C 438.0,479.7 436.9,479.6 435.9,479.5 C 434.9,479.4 433.8,479.3 432.8,479.1 C 431.8,479.0 430.8,478.8 429.7,478.6 C 428.7,478.5 427.7,478.3 426.8,478.0 C 425.8,477.8 424.8,477.6 423.9,477.4 C 422.9,477.1 422.0,476.9 421.0,476.6 C 420.1,476.4 419.2,476.1 418.3,475.9 C 417.4,475.6 416.5,475.4 415.6,475.1 C 414.8,474.9 413.9,474.6 413.1,474.4 C 412.2,474.1 411.4,473.9 410.6,473.6 C 409.7,473.4 408.9,473.1 408.1,472.9 C 407.3,472.7 406.5,472.5 405.8,472.2 C 405.0,472.0 404.2,471.8 403.4,471.6 C 402.7,471.4 401.9,471.2 401.2,471.0 C 400.4,470.8 399.7,470.7 398.9,470.5 C 398.2,470.3 397.5,470.2 396.7,470.0 C 396.0,469.9 395.2,469.8 394.5,469.7 C 393.8,469.5 393.0,469.4 392.3,469.4 C 391.6,469.3 390.8,469.2 390.1,469.2 C 389.4,469.1 388.6,469.1 387.9,469.1 C 387.1,469.0 386.3,469.0 385.6,469.0 C 384.8,469.1 384.0,469.1 383.2,469.1 C 382.4,469.1 381.6,469.2 380.8,469.2 C 380.0,469.3 379.2,469.3 378.4,469.4 C 377.6,469.4 376.7,469.5 375.9,469.5 C 375.0,469.6 374.2,469.6 373.3,469.7 C 372.4,469.7 371.6,469.7 370.7,469.7 C 369.8,469.7 368.9,469.7 368.0,469.7 C 367.1,469.7 366.2,469.6 365.4,469.5 C 364.5,469.5 363.6,469.4 362.7,469.3 C 361.8,469.1 360.9,469.0 360.0,468.8 C 359.2,468.6 358.3,468.4 357.5,468.1 C 356.6,467.9 355.7,467.6 354.9,467.3 C 354.1,467.0 353.3,466.7 352.5,466.3 C 351.7,465.9 350.9,465.5 350.1,465.1 C 349.3,464.7 348.5,464.2 347.8,463.8 C 347.0,463.3 346.3,462.8 345.6,462.3 C 344.9,461.8 344.2,461.2 343.5,460.7 C 342.8,460.1 342.1,459.6 341.5,459.0 C 340.8,458.4 340.2,457.8 339.5,457.1 C 338.9,456.5 338.3,455.9 337.7,455.2 C 337.0,454.6 336.5,453.9 335.9,453.3 C 335.3,452.6 334.7,451.9 334.2,451.2 C 333.6,450.5 333.1,449.8 332.6,449.1 C 332.0,448.4 331.5,447.7 331.0,446.9 C 330.6,446.2 330.1,445.4 329.6,444.7 C 329.2,443.9 328.7,443.1 328.3,442.3 C 327.9,441.5 327.5,440.8 327.1,439.9 C 326.8,439.1 326.4,438.3 326.1,437.5 C 325.8,436.7 325.5,435.9 325.2,435.0 C 324.9,434.2 324.6,433.3 324.4,432.5 C 324.1,431.6 323.9,430.8 323.7,429.9 C 323.5,429.1 323.3,428.2 323.1,427.4 C 322.9,426.5 322.8,425.6 322.6,424.8 C 322.5,423.9 322.3,423.1 322.2,422.2 C 322.1,421.3 321.9,420.5 321.8,419.6 C 321.7,418.8 321.6,417.9 321.4,417.1 C 321.3,416.2 321.2,415.4 321.1,414.5 C 320.9,413.7 320.8,412.8 320.7,412.0 C 320.6,411.2 320.4,410.3 320.3,409.5 C 320.2,408.6 320.0,407.8 319.9,406.9 C 319.7,406.1 319.6,405.2 319.4,404.4 C 319.3,403.5 319.1,402.7 319.0,401.8 C 318.8,401.0 318.7,400.1 318.5,399.3 C 318.4,398.4 318.2,397.5 318.1,396.6 C 318.0,395.8 317.8,394.9 317.7,394.0 C 317.6,393.1 317.4,392.2 317.3,391.3 C 317.2,390.4 317.1,389.5 317.0,388.6 C 317.0,387.7 316.9,386.8 316.8,385.9 C 316.8,385.0 316.7,384.1 316.7,383.1 C 316.7,382.2 316.6,381.3 316.6,380.4 C 316.6,379.4 316.7,378.5 316.7,377.6 C 316.7,376.6 316.7,375.7 316.8,374.7 C 316.9,373.8 316.9,372.9 317.0,371.9 C 317.1,371.0 317.2,370.0 317.3,369.1 C 317.4,368.1 317.6,367.2 317.7,366.2 C 317.9,365.3 318.0,364.3 318.2,363.4 C 318.4,362.4 318.6,361.4 318.8,360.5 C 319.0,359.5 319.3,358.6 319.5,357.7 C 319.8,356.7 320.1,355.8 320.4,354.8 C 320.7,353.9 321.0,353.0 321.4,352.1 C 321.7,351.1 322.1,350.2 322.5,349.3 C 322.9,348.4 323.4,347.6 323.8,346.7 C 324.3,345.8 324.8,345.0 325.3,344.1 C 325.8,343.3 326.4,342.5 327.0,341.7 C 327.5,340.9 328.1,340.1 328.8,339.4 C 329.4,338.6 330.1,337.9 330.7,337.2 C 331.4,336.5 332.1,335.8 332.8,335.1 C 333.6,334.4 334.3,333.8 335.1,333.1 C 335.8,332.5 336.6,331.9 337.3,331.3 C 338.1,330.7 338.9,330.1 339.7,329.5 C 340.5,329.0 341.3,328.4 342.1,327.9 C 342.9,327.3 343.7,326.8 344.5,326.3 C 345.4,325.7 346.2,325.2 347.0,324.7 C 347.8,324.1 348.6,323.6 349.4,323.1 C 350.2,322.6 351.0,322.1 351.9,321.6 C 352.7,321.0 353.5,320.5 354.3,320.0 C 355.1,319.5 355.9,319.0 356.8,318.5 C 357.6,318.0 358.4,317.4 359.2,316.9 C 360.1,316.4 360.9,315.9 361.7,315.4 C 362.6,315.0 363.4,314.5 364.3,314.0 C 365.1,313.5 366.0,313.1 366.9,312.6 C 367.7,312.2 368.6,311.7 369.5,311.3 C 370.4,310.9 371.3,310.5 372.2,310.2 C 373.1,309.8 374.1,309.5 375.0,309.1 C 375.9,308.8 376.9,308.5 377.8,308.3 C 378.8,308.0 379.7,307.8 380.7,307.6 C 381.6,307.4 382.6,307.2 383.6,307.1 C 384.6,307.0 385.5,306.9 386.5,306.8 C 387.5,306.7 388.5,306.7 389.5,306.7 C 390.5,306.7 391.4,306.7 392.4,306.7 C 393.4,306.8 394.4,306.9 395.4,307.0 C 396.3,307.1 397.3,307.3 398.3,307.5 C 399.3,307.7 400.2,307.9 401.2,308.2 C 402.1,308.4 403.1,308.7 404.0,309.0 C 404.9,309.3 405.9,309.7 406.8,310.1 C 407.7,310.4 408.6,310.8 409.5,311.3 C 410.4,311.7 411.2,312.2 412.1,312.7 C 413.0,313.2 413.8,313.8 414.6,314.4 C 415.4,314.9 416.2,315.5 417.0,316.2 C 417.8,316.8 418.6,317.5 419.3,318.1 C 420.0,318.8 420.8,319.5 421.4,320.3 C 422.1,321.0 422.8,321.7 423.5,322.5 C 424.1,323.3 424.7,324.1 425.3,324.9 C 425.9,325.7 426.5,326.5 427.1,327.3 C 427.6,328.1 428.2,328.9 428.7,329.7 C 429.2,330.6 429.7,331.4 430.2,332.2 C 430.7,333.0 431.1,333.8 431.6,334.6 C 432.1,335.4 432.5,336.1 432.9,336.9 C 433.4,337.6 433.8,338.4 434.2,339.1 C 434.7,339.8 435.1,340.5 435.5,341.2 C 435.9,341.9 436.3,342.5 436.8,343.1 C 437.2,343.8 437.6,344.4 438.1,345.0 C 438.5,345.5 438.9,346.1 439.4,346.6 C 439.8,347.2 440.3,347.7 440.8,348.2 C 441.2,348.7 441.7,349.2 442.2,349.6 C 442.7,350.1 443.2,350.6 443.7,351.0 C 444.2,351.5 444.7,351.9 445.3,352.3 C 445.8,352.7 446.3,353.1 446.9,353.5 C 447.4,354.0 448.0,354.4 448.6,354.8 C 449.1,355.2 449.7,355.6 450.3,356.0 C 450.9,356.4 451.5,356.8 452.1,357.2 C 452.7,357.6 453.3,358.0 453.9,358.4 C 454.5,358.8 455.1,359.2 455.8,359.6 C 456.4,360.0 457.1,360.4 457.7,360.8 C 458.4,361.2 459.1,361.6 459.7,362.1 C 460.4,362.5 461.1,362.9 461.8,363.4 C 462.5,363.8 463.3,364.3 464.0,364.7 C 464.7,365.2 465.5,365.6 466.2,366.1 C 467.0,366.6 467.7,367.1 468.5,367.6 C 469.3,368.1 470.1,368.6 470.9,369.1 C 471.7,369.6 472.5,370.1 473.3,370.7 C 474.1,371.3 474.9,371.8 475.7,372.4 C 476.5,373.0 477.3,373.6 478.1,374.3 C 478.9,374.9 479.7,375.5 480.5,376.2 C 481.2,376.9 482.0,377.6 482.8,378.3 C 483.5,379.0 484.2,379.8 485.0,380.5 C 485.7,381.3 486.4,382.1 487.0,382.9 C 487.7,383.7 488.3,384.5 488.9,385.4 C 489.5,386.2 490.1,387.1 490.7,387.9 C 491.2,388.8 491.7,389.7 492.2,390.6 C 492.7,391.6 493.1,392.5 493.6,393.4 C 494.0,394.4 494.4,395.3 494.7,396.3 C 495.1,397.3 495.4,398.3 495.7,399.3 Z"/>
    <path d="M 538.5,397.0 C 538.9,398.4 539.2,399.8 539.5,401.3 C 539.8,402.7 540.1,404.1 540.3,405.6 C 540.5,407.0 540.7,408.4 540.8,409.9 C 541.0,411.3 541.1,412.8 541.1,414.3 C 541.1,415.7 541.1,417.2 541.1,418.6 C 541.0,420.1 540.9,421.5 540.8,423.0 C 540.6,424.4 540.4,425.9 540.2,427.3 C 540.0,428.7 539.7,430.2 539.4,431.6 C 539.1,433.0 538.7,434.4 538.3,435.8 C 538.0,437.2 537.5,438.6 537.1,440.0 C 536.7,441.4 536.2,442.8 535.7,444.2 C 535.2,445.5 534.7,446.9 534.1,448.2 C 533.6,449.6 533.0,450.9 532.4,452.3 C 531.9,453.6 531.3,455.0 530.7,456.3 C 530.1,457.6 529.4,458.9 528.8,460.2 C 528.2,461.6 527.5,462.9 526.9,464.2 C 526.2,465.5 525.5,466.8 524.8,468.1 C 524.2,469.3 523.5,470.6 522.7,471.9 C 522.0,473.2 521.3,474.4 520.5,475.7 C 519.7,476.9 519.0,478.2 518.1,479.4 C 517.3,480.6 516.5,481.8 515.6,483.0 C 514.7,484.2 513.8,485.4 512.9,486.5 C 512.0,487.6 511.0,488.7 510.0,489.8 C 509.0,490.9 507.9,491.9 506.9,492.9 C 505.8,493.9 504.7,494.9 503.5,495.8 C 502.3,496.7 501.1,497.6 499.9,498.4 C 498.7,499.2 497.4,500.0 496.1,500.7 C 494.8,501.4 493.5,502.1 492.2,502.7 C 490.8,503.3 489.4,503.9 488.0,504.4 C 486.6,504.9 485.2,505.4 483.8,505.8 C 482.4,506.2 480.9,506.6 479.4,506.9 C 478.0,507.3 476.5,507.6 475.0,507.8 C 473.6,508.0 472.1,508.2 470.6,508.4 C 469.1,508.6 467.7,508.7 466.2,508.8 C 464.7,508.9 463.2,509.0 461.8,509.0 C 460.3,509.0 458.9,509.0 457.4,509.0 C 456.0,509.0 454.6,508.9 453.1,508.9 C 451.7,508.8 450.3,508.7 448.9,508.6 C 447.5,508.5 446.1,508.3 444.8,508.2 C 443.4,508.0 442.0,507.9 440.7,507.7 C 439.3,507.5 438.0,507.2 436.7,507.0 C 435.4,506.8 434.1,506.5 432.8,506.3 C 431.5,506.0 430.2,505.7 429.0,505.4 C 427.7,505.1 426.5,504.8 425.2,504.5 C 424.0,504.2 422.8,503.9 421.6,503.6 C 420.4,503.2 419.2,502.9 418.1,502.6 C 416.9,502.2 415.8,501.9 414.6,501.6 C 413.5,501.3 412.4,500.9 411.3,500.6 C 410.1,500.3 409.1,500.0 408.0,499.7 C 406.9,499.4 405.8,499.2 404.7,498.9 C 403.7,498.7 402.6,498.4 401.6,498.2 C 400.5,498.0 399.5,497.8 398.4,497.7 C 397.4,497.5 396.3,497.3 395.3,497.2 C 394.2,497.1 393.2,497.0 392.1,496.9 C 391.1,496.8 390.0,496.8 388.9,496.7 C 387.9,496.7 386.8,496.6 385.7,496.6 C 384.7,496.6 383.6,496.6 382.5,496.6 C 381.4,496.6 380.3,496.6 379.2,496.6 C 378.1,496.5 377.0,496.5 375.8,496.5 C 374.7,496.5 373.6,496.5 372.4,496.5 C 371.3,496.5 370.1,496.4 369.0,496.4 C 367.8,496.3 366.6,496.3 365.5,496.2 C 364.3,496.1 363.1,496.0 362.0,495.9 C 360.8,495.7 359.6,495.6 358.4,495.4 C 357.2,495.3 356.1,495.1 354.9,494.9 C 353.7,494.7 352.5,494.5 351.3,494.2 C 350.1,494.0 348.9,493.7 347.7,493.4 C 346.5,493.1 345.4,492.8 344.2,492.5 C 343.0,492.1 341.8,491.8 340.6,491.4 C 339.4,491.0 338.2,490.6 337.0,490.2 C 335.8,489.8 334.6,489.4 333.5,488.9 C 332.3,488.4 331.1,487.9 329.9,487.4 C 328.8,486.9 327.6,486.4 326.5,485.8 C 325.3,485.2 324.2,484.6 323.1,484.0 C 322.0,483.3 320.9,482.7 319.8,482.0 C 318.7,481.3 317.7,480.5 316.7,479.7 C 315.6,479.0 314.6,478.1 313.7,477.3 C 312.7,476.4 311.8,475.6 310.9,474.6 C 310.0,473.7 309.2,472.7 308.4,471.8 C 307.6,470.8 306.8,469.7 306.1,468.7 C 305.4,467.6 304.7,466.5 304.1,465.4 C 303.5,464.3 302.9,463.2 302.3,462.0 C 301.8,460.8 301.3,459.7 300.9,458.5 C 300.4,457.3 300.0,456.0 299.6,454.8 C 299.2,453.6 298.9,452.4 298.5,451.1 C 298.2,449.9 297.9,448.7 297.7,447.4 C 297.4,446.2 297.1,444.9 296.9,443.7 C 296.7,442.4 296.5,441.2 296.2,440.0 C 296.0,438.7 295.8,437.5 295.6,436.3 C 295.4,435.1 295.3,433.9 295.1,432.7 C 294.9,431.5 294.7,430.3 294.5,429.1 C 294.3,427.9 294.1,426.7 293.9,425.5 C 293.7,424.3 293.5,423.1 293.2,421.9 C 293.0,420.8 292.8,419.6 292.6,418.4 C 292.3,417.2 292.1,416.1 291.9,414.9 C 291.6,413.7 291.4,412.5 291.2,411.4 C 290.9,410.2 290.7,409.0 290.5,407.8 C 290.2,406.6 290.0,405.5 289.7,404.3 C 289.5,403.1 289.3,401.9 289.0,400.7 C 288.8,399.5 288.6,398.2 288.4,397.0 C 288.2,395.8 287.9,394.6 287.7,393.3 C 287.5,392.1 287.3,390.9 287.1,389.6 C 286.9,388.4 286.7,387.1 286.5,385.9 C 286.4,384.6 286.2,383.3 286.0,382.0 C 285.8,380.7 285.7,379.4 285.5,378.1 C 285.4,376.8 285.3,375.5 285.1,374.2 C 285.0,372.9 284.9,371.6 284.8,370.2 C 284.7,368.9 284.6,367.5 284.6,366.2 C 284.5,364.8 284.5,363.5 284.5,362.1 C 284.5,360.7 284.5,359.4 284.6,358.0 C 284.6,356.6 284.7,355.2 284.8,353.9 C 285.0,352.5 285.1,351.1 285.3,349.8 C 285.6,348.4 285.8,347.0 286.1,345.7 C 286.4,344.3 286.7,343.0 287.1,341.7 C 287.5,340.3 287.9,339.0 288.4,337.7 C 288.9,336.5 289.4,335.2 290.0,333.9 C 290.5,332.7 291.2,331.4 291.8,330.2 C 292.5,329.0 293.2,327.8 293.9,326.7 C 294.6,325.5 295.4,324.4 296.2,323.3 C 297.0,322.2 297.9,321.1 298.7,320.0 C 299.6,318.9 300.5,317.9 301.4,316.9 C 302.3,315.8 303.2,314.8 304.2,313.8 C 305.1,312.8 306.1,311.9 307.0,310.9 C 308.0,309.9 309.0,309.0 310.0,308.0 C 310.9,307.1 311.9,306.1 312.9,305.2 C 313.9,304.3 314.9,303.3 315.9,302.4 C 316.9,301.5 317.9,300.6 318.9,299.6 C 319.9,298.7 320.9,297.8 321.9,296.9 C 322.9,296.0 323.9,295.1 325.0,294.2 C 326.0,293.3 327.0,292.4 328.0,291.5 C 329.1,290.6 330.1,289.7 331.2,288.8 C 332.3,287.9 333.3,287.1 334.4,286.2 C 335.5,285.4 336.6,284.6 337.7,283.7 C 338.9,282.9 340.0,282.1 341.2,281.4 C 342.3,280.6 343.5,279.9 344.7,279.2 C 345.9,278.4 347.1,277.7 348.3,277.1 C 349.5,276.4 350.8,275.8 352.0,275.2 C 353.3,274.6 354.5,274.0 355.8,273.5 C 357.1,273.0 358.4,272.4 359.7,272.0 C 361.0,271.5 362.3,271.1 363.7,270.7 C 365.0,270.2 366.3,269.9 367.7,269.5 C 369.0,269.2 370.4,268.9 371.8,268.6 C 373.1,268.3 374.5,268.1 375.9,267.8 C 377.2,267.6 378.6,267.5 380.0,267.3 C 381.4,267.2 382.8,267.0 384.1,267.0 C 385.5,266.9 386.9,266.9 388.3,266.9 C 389.7,266.9 391.1,266.9 392.4,267.0 C 393.8,267.1 395.2,267.2 396.6,267.4 C 398.0,267.6 399.3,267.8 400.7,268.0 C 402.0,268.3 403.4,268.6 404.7,269.0 C 406.1,269.4 407.4,269.8 408.7,270.2 C 410.0,270.7 411.3,271.2 412.6,271.8 C 413.9,272.4 415.2,273.0 416.4,273.6 C 417.6,274.3 418.9,275.0 420.1,275.8 C 421.2,276.5 422.4,277.3 423.6,278.1 C 424.7,279.0 425.8,279.8 426.9,280.7 C 428.0,281.6 429.1,282.6 430.1,283.5 C 431.1,284.5 432.2,285.4 433.1,286.4 C 434.1,287.4 435.1,288.4 436.0,289.4 C 436.9,290.4 437.8,291.5 438.7,292.5 C 439.6,293.5 440.4,294.6 441.3,295.6 C 442.1,296.6 442.9,297.6 443.7,298.7 C 444.5,299.7 445.2,300.7 446.0,301.7 C 446.7,302.7 447.5,303.7 448.2,304.7 C 448.9,305.7 449.6,306.6 450.3,307.6 C 451.0,308.6 451.7,309.5 452.3,310.5 C 453.0,311.4 453.6,312.4 454.3,313.3 C 454.9,314.2 455.5,315.1 456.1,316.0 C 456.8,316.9 457.4,317.8 458.0,318.7 C 458.6,319.6 459.2,320.4 459.8,321.3 C 460.3,322.2 460.9,323.0 461.5,323.8 C 462.1,324.7 462.7,325.5 463.2,326.3 C 463.8,327.1 464.4,327.9 465.0,328.7 C 465.6,329.5 466.2,330.2 466.8,331.0 C 467.4,331.7 468.0,332.4 468.6,333.1 C 469.3,333.8 469.9,334.5 470.6,335.2 C 471.3,335.8 472.0,336.5 472.7,337.1 C 473.4,337.7 474.2,338.3 475.0,338.9 C 475.7,339.5 476.6,340.1 477.4,340.7 C 478.3,341.2 479.2,341.8 480.1,342.3 C 481.0,342.8 482.0,343.3 483.0,343.9 C 484.0,344.4 485.0,344.9 486.1,345.4 C 487.1,345.9 488.2,346.5 489.3,347.0 C 490.5,347.5 491.6,348.1 492.8,348.6 C 494.0,349.2 495.2,349.7 496.4,350.3 C 497.6,350.9 498.8,351.5 500.0,352.2 C 501.3,352.8 502.5,353.5 503.7,354.2 C 505.0,354.9 506.2,355.6 507.4,356.4 C 508.6,357.1 509.9,357.9 511.1,358.7 C 512.2,359.6 513.4,360.4 514.6,361.3 C 515.7,362.2 516.8,363.2 517.9,364.1 C 519.0,365.1 520.1,366.1 521.1,367.1 C 522.1,368.2 523.1,369.2 524.1,370.3 C 525.0,371.4 526.0,372.6 526.8,373.7 C 527.7,374.9 528.6,376.1 529.4,377.3 C 530.2,378.5 531.0,379.7 531.7,381.0 C 532.4,382.2 533.1,383.5 533.7,384.8 C 534.4,386.1 535.0,387.5 535.6,388.8 C 536.1,390.1 536.7,391.5 537.1,392.9 C 537.6,394.2 538.1,395.6 538.5,397.0 Z"/>
    <path d="M 577.8,403.9 C 578.4,405.7 578.8,407.5 579.2,409.4 C 579.5,411.2 579.8,413.1 580.1,414.9 C 580.3,416.8 580.4,418.7 580.5,420.5 C 580.6,422.4 580.7,424.3 580.6,426.2 C 580.6,428.0 580.5,429.9 580.4,431.8 C 580.2,433.7 580.1,435.5 579.8,437.4 C 579.6,439.3 579.3,441.1 579.0,443.0 C 578.7,444.8 578.3,446.7 578.0,448.5 C 577.6,450.4 577.2,452.2 576.7,454.0 C 576.3,455.8 575.8,457.7 575.3,459.5 C 574.7,461.3 574.2,463.1 573.6,464.9 C 573.1,466.7 572.4,468.5 571.8,470.3 C 571.2,472.1 570.5,473.8 569.8,475.6 C 569.1,477.3 568.4,479.1 567.6,480.8 C 566.8,482.5 566.0,484.3 565.2,486.0 C 564.3,487.6 563.5,489.3 562.6,491.0 C 561.6,492.6 560.7,494.3 559.7,495.9 C 558.7,497.5 557.7,499.1 556.7,500.7 C 555.6,502.3 554.5,503.8 553.4,505.4 C 552.3,506.9 551.1,508.4 550.0,509.9 C 548.8,511.3 547.6,512.8 546.3,514.2 C 545.1,515.6 543.8,517.0 542.5,518.4 C 541.2,519.7 539.9,521.1 538.5,522.4 C 537.2,523.7 535.8,525.0 534.4,526.2 C 533.0,527.5 531.6,528.7 530.1,529.9 C 528.7,531.1 527.2,532.2 525.7,533.4 C 524.2,534.5 522.6,535.6 521.1,536.6 C 519.5,537.6 518.0,538.6 516.3,539.6 C 514.7,540.5 513.1,541.4 511.4,542.3 C 509.8,543.1 508.1,543.9 506.4,544.7 C 504.6,545.4 502.9,546.1 501.1,546.7 C 499.4,547.3 497.6,547.8 495.8,548.3 C 493.9,548.8 492.1,549.2 490.2,549.5 C 488.4,549.9 486.5,550.2 484.6,550.4 C 482.7,550.5 480.8,550.7 478.9,550.7 C 477.0,550.8 475.1,550.8 473.2,550.7 C 471.3,550.6 469.3,550.5 467.4,550.3 C 465.5,550.1 463.6,549.8 461.7,549.5 C 459.8,549.2 458.0,548.8 456.1,548.4 C 454.3,548.0 452.4,547.6 450.6,547.1 C 448.8,546.7 447.0,546.2 445.3,545.7 C 443.5,545.2 441.8,544.7 440.1,544.2 C 438.4,543.7 436.7,543.2 435.1,542.7 C 433.5,542.2 431.9,541.7 430.3,541.2 C 428.7,540.7 427.1,540.2 425.6,539.8 C 424.1,539.3 422.6,538.9 421.1,538.5 C 419.6,538.1 418.1,537.8 416.7,537.4 C 415.3,537.1 413.8,536.7 412.4,536.4 C 411.0,536.1 409.6,535.9 408.2,535.6 C 406.8,535.4 405.5,535.2 404.1,535.0 C 402.7,534.7 401.3,534.6 400.0,534.4 C 398.6,534.2 397.3,534.1 395.9,533.9 C 394.5,533.8 393.2,533.7 391.8,533.6 C 390.5,533.4 389.1,533.3 387.7,533.2 C 386.4,533.1 385.0,533.0 383.6,533.0 C 382.3,532.9 380.9,532.8 379.5,532.7 C 378.1,532.7 376.7,532.6 375.3,532.5 C 373.9,532.5 372.5,532.4 371.1,532.3 C 369.7,532.3 368.2,532.2 366.8,532.2 C 365.4,532.1 363.9,532.1 362.4,532.0 C 361.0,532.0 359.5,532.0 358.0,531.9 C 356.5,531.9 355.0,531.8 353.4,531.7 C 351.9,531.7 350.4,531.6 348.8,531.5 C 347.3,531.4 345.7,531.3 344.1,531.2 C 342.6,531.1 341.0,531.0 339.4,530.8 C 337.8,530.6 336.2,530.5 334.6,530.2 C 333.0,530.0 331.4,529.8 329.8,529.5 C 328.2,529.2 326.6,528.8 325.0,528.4 C 323.4,528.1 321.9,527.6 320.3,527.2 C 318.7,526.7 317.2,526.1 315.7,525.6 C 314.1,525.0 312.6,524.4 311.1,523.7 C 309.7,523.0 308.2,522.3 306.8,521.5 C 305.4,520.7 304.0,519.9 302.6,519.0 C 301.2,518.1 299.9,517.2 298.6,516.2 C 297.3,515.2 296.0,514.2 294.8,513.1 C 293.6,512.1 292.4,511.0 291.2,509.9 C 290.0,508.7 288.9,507.6 287.8,506.4 C 286.7,505.2 285.6,504.0 284.6,502.7 C 283.6,501.5 282.5,500.2 281.6,498.9 C 280.6,497.6 279.6,496.3 278.7,495.0 C 277.8,493.6 276.9,492.3 276.0,490.9 C 275.1,489.5 274.3,488.1 273.5,486.7 C 272.7,485.3 271.9,483.9 271.1,482.5 C 270.4,481.1 269.6,479.6 268.9,478.2 C 268.3,476.7 267.6,475.2 267.0,473.7 C 266.3,472.2 265.8,470.7 265.2,469.2 C 264.6,467.7 264.1,466.2 263.6,464.6 C 263.2,463.1 262.7,461.5 262.3,460.0 C 261.9,458.4 261.5,456.9 261.2,455.3 C 260.9,453.7 260.6,452.2 260.3,450.6 C 260.0,449.0 259.8,447.4 259.6,445.8 C 259.3,444.3 259.2,442.7 259.0,441.1 C 258.8,439.5 258.7,438.0 258.5,436.4 C 258.4,434.8 258.2,433.3 258.1,431.7 C 258.0,430.1 257.9,428.6 257.7,427.0 C 257.6,425.5 257.5,423.9 257.3,422.4 C 257.2,420.9 257.0,419.3 256.8,417.8 C 256.7,416.2 256.5,414.7 256.3,413.2 C 256.1,411.6 255.8,410.1 255.6,408.5 C 255.3,407.0 255.1,405.4 254.8,403.9 C 254.5,402.3 254.2,400.7 253.9,399.1 C 253.6,397.6 253.3,396.0 253.0,394.4 C 252.7,392.8 252.4,391.1 252.1,389.5 C 251.8,387.9 251.4,386.2 251.2,384.5 C 250.9,382.9 250.6,381.2 250.3,379.5 C 250.1,377.8 249.8,376.1 249.6,374.4 C 249.4,372.7 249.3,371.0 249.1,369.2 C 249.0,367.5 248.9,365.8 248.9,364.0 C 248.8,362.3 248.8,360.5 248.8,358.8 C 248.9,357.0 249.0,355.3 249.1,353.5 C 249.2,351.8 249.4,350.0 249.6,348.3 C 249.9,346.5 250.2,344.8 250.5,343.1 C 250.8,341.3 251.2,339.6 251.6,337.9 C 252.0,336.2 252.5,334.5 253.0,332.8 C 253.5,331.1 254.1,329.4 254.7,327.7 C 255.3,326.1 255.9,324.4 256.6,322.8 C 257.2,321.1 258.0,319.5 258.7,317.9 C 259.5,316.3 260.3,314.7 261.1,313.1 C 261.9,311.6 262.8,310.0 263.7,308.5 C 264.6,306.9 265.6,305.4 266.6,304.0 C 267.5,302.5 268.6,301.0 269.6,299.6 C 270.7,298.1 271.8,296.7 272.9,295.3 C 274.0,294.0 275.2,292.6 276.4,291.3 C 277.6,290.0 278.8,288.7 280.1,287.4 C 281.3,286.2 282.6,284.9 283.9,283.7 C 285.3,282.5 286.6,281.4 288.0,280.2 C 289.3,279.1 290.7,278.0 292.1,276.9 C 293.5,275.8 295.0,274.8 296.4,273.7 C 297.9,272.7 299.3,271.7 300.8,270.7 C 302.2,269.7 303.7,268.7 305.2,267.8 C 306.7,266.8 308.2,265.9 309.7,264.9 C 311.1,264.0 312.6,263.0 314.1,262.1 C 315.6,261.2 317.1,260.3 318.6,259.4 C 320.1,258.4 321.6,257.5 323.1,256.6 C 324.6,255.7 326.1,254.8 327.6,253.8 C 329.1,252.9 330.7,252.0 332.2,251.1 C 333.7,250.2 335.3,249.3 336.8,248.4 C 338.4,247.5 339.9,246.7 341.5,245.8 C 343.1,245.0 344.7,244.1 346.3,243.3 C 347.9,242.5 349.5,241.7 351.2,241.0 C 352.8,240.3 354.5,239.6 356.2,239.0 C 357.9,238.3 359.6,237.7 361.3,237.2 C 363.0,236.7 364.7,236.2 366.5,235.8 C 368.3,235.4 370.0,235.0 371.8,234.8 C 373.6,234.5 375.4,234.3 377.2,234.2 C 379.0,234.1 380.8,234.0 382.6,234.1 C 384.4,234.1 386.3,234.2 388.1,234.4 C 389.9,234.6 391.7,234.8 393.5,235.2 C 395.3,235.5 397.0,235.9 398.8,236.4 C 400.6,236.8 402.3,237.4 404.1,238.0 C 405.8,238.6 407.5,239.2 409.2,239.9 C 410.9,240.6 412.6,241.4 414.2,242.2 C 415.9,243.0 417.5,243.9 419.1,244.8 C 420.7,245.7 422.3,246.6 423.8,247.6 C 425.4,248.6 426.9,249.6 428.3,250.6 C 429.8,251.7 431.3,252.8 432.7,253.9 C 434.1,255.0 435.5,256.2 436.8,257.3 C 438.2,258.5 439.5,259.7 440.8,260.9 C 442.1,262.2 443.3,263.4 444.5,264.7 C 445.7,266.0 446.9,267.2 448.0,268.6 C 449.2,269.9 450.3,271.2 451.4,272.5 C 452.4,273.9 453.5,275.2 454.5,276.6 C 455.5,278.0 456.4,279.3 457.4,280.7 C 458.3,282.1 459.2,283.5 460.1,284.8 C 461.0,286.2 461.8,287.6 462.6,288.9 C 463.5,290.3 464.3,291.6 465.1,292.9 C 465.9,294.2 466.6,295.5 467.4,296.8 C 468.2,298.1 468.9,299.3 469.7,300.5 C 470.4,301.7 471.2,302.9 471.9,304.0 C 472.7,305.2 473.4,306.3 474.2,307.4 C 474.9,308.4 475.7,309.5 476.5,310.5 C 477.3,311.5 478.1,312.4 478.9,313.4 C 479.8,314.3 480.6,315.2 481.5,316.0 C 482.4,316.9 483.3,317.7 484.2,318.5 C 485.1,319.4 486.1,320.1 487.0,320.9 C 488.0,321.7 489.0,322.4 490.0,323.1 C 491.1,323.9 492.1,324.6 493.2,325.3 C 494.3,326.0 495.4,326.7 496.5,327.4 C 497.6,328.1 498.7,328.8 499.9,329.6 C 501.0,330.3 502.2,331.0 503.4,331.7 C 504.6,332.4 505.8,333.2 507.0,333.9 C 508.3,334.6 509.5,335.4 510.8,336.2 C 512.0,336.9 513.3,337.7 514.6,338.5 C 515.9,339.3 517.2,340.1 518.5,341.0 C 519.8,341.8 521.2,342.6 522.5,343.5 C 523.9,344.4 525.2,345.3 526.6,346.2 C 528.0,347.1 529.4,348.1 530.8,349.0 C 532.2,350.0 533.7,351.0 535.1,352.0 C 536.5,353.0 538.0,354.1 539.4,355.1 C 540.9,356.2 542.4,357.3 543.8,358.5 C 545.3,359.6 546.7,360.8 548.2,362.0 C 549.6,363.2 551.1,364.5 552.5,365.8 C 553.9,367.0 555.3,368.4 556.7,369.7 C 558.1,371.1 559.4,372.5 560.7,374.0 C 562.0,375.4 563.3,376.9 564.5,378.5 C 565.7,380.0 566.9,381.6 568.0,383.2 C 569.1,384.8 570.1,386.4 571.1,388.1 C 572.0,389.7 573.0,391.5 573.8,393.2 C 574.6,394.9 575.4,396.7 576.0,398.5 C 576.7,400.2 577.3,402.0 577.8,403.9 Z"/>
    <path d="M 617.8,398.8 C 618.4,401.0 618.9,403.2 619.3,405.5 C 619.7,407.8 619.9,410.0 620.1,412.3 C 620.4,414.6 620.5,416.9 620.5,419.2 C 620.5,421.4 620.5,423.7 620.4,426.0 C 620.3,428.3 620.1,430.6 619.9,432.8 C 619.6,435.1 619.3,437.4 619.0,439.6 C 618.6,441.9 618.2,444.2 617.8,446.4 C 617.4,448.7 616.9,450.9 616.4,453.1 C 615.9,455.4 615.4,457.6 614.8,459.8 C 614.3,462.0 613.7,464.3 613.1,466.5 C 612.5,468.7 611.9,470.9 611.2,473.1 C 610.5,475.3 609.9,477.5 609.2,479.7 C 608.5,481.9 607.8,484.1 607.0,486.3 C 606.2,488.5 605.5,490.7 604.6,492.9 C 603.8,495.0 603.0,497.2 602.1,499.3 C 601.2,501.5 600.2,503.6 599.2,505.7 C 598.2,507.8 597.2,509.9 596.1,512.0 C 595.1,514.1 593.9,516.1 592.7,518.1 C 591.5,520.1 590.3,522.1 589.0,524.0 C 587.7,526.0 586.4,527.9 585.0,529.7 C 583.6,531.6 582.1,533.4 580.6,535.2 C 579.1,537.0 577.5,538.7 575.9,540.4 C 574.3,542.1 572.6,543.7 570.9,545.3 C 569.2,546.9 567.4,548.4 565.6,549.9 C 563.8,551.4 562.0,552.8 560.1,554.2 C 558.2,555.6 556.3,556.9 554.4,558.2 C 552.4,559.4 550.4,560.7 548.4,561.8 C 546.4,563.0 544.4,564.1 542.3,565.1 C 540.2,566.2 538.1,567.1 536.0,568.1 C 533.9,569.0 531.7,569.8 529.6,570.6 C 527.4,571.4 525.2,572.2 523.0,572.8 C 520.8,573.5 518.5,574.1 516.3,574.6 C 514.0,575.1 511.8,575.6 509.5,576.0 C 507.2,576.3 504.9,576.6 502.6,576.9 C 500.3,577.1 498.0,577.3 495.7,577.4 C 493.4,577.4 491.0,577.5 488.7,577.4 C 486.4,577.3 484.1,577.2 481.8,577.0 C 479.5,576.9 477.2,576.6 475.0,576.3 C 472.7,576.0 470.5,575.6 468.2,575.3 C 466.0,574.9 463.8,574.4 461.6,573.9 C 459.4,573.5 457.3,573.0 455.1,572.4 C 453.0,571.9 450.9,571.4 448.9,570.8 C 446.8,570.3 444.8,569.7 442.8,569.2 C 440.8,568.6 438.8,568.1 436.9,567.5 C 434.9,567.0 433.0,566.5 431.2,566.0 C 429.3,565.5 427.5,565.0 425.6,564.6 C 423.8,564.1 422.0,563.7 420.2,563.3 C 418.5,562.9 416.7,562.6 415.0,562.3 C 413.2,561.9 411.5,561.6 409.8,561.3 C 408.1,561.0 406.4,560.8 404.7,560.6 C 403.0,560.3 401.3,560.1 399.6,559.9 C 397.9,559.7 396.3,559.5 394.6,559.3 C 392.9,559.2 391.2,559.0 389.5,558.8 C 387.9,558.7 386.2,558.5 384.5,558.4 C 382.8,558.2 381.2,558.1 379.5,557.9 C 377.8,557.8 376.1,557.6 374.4,557.4 C 372.7,557.3 371.0,557.1 369.3,556.9 C 367.6,556.8 365.9,556.6 364.2,556.4 C 362.5,556.3 360.8,556.1 359.0,555.9 C 357.3,555.8 355.5,555.6 353.8,555.4 C 352.0,555.2 350.3,555.1 348.5,554.9 C 346.7,554.7 344.9,554.6 343.1,554.4 C 341.2,554.2 339.4,554.1 337.6,553.9 C 335.7,553.7 333.8,553.5 331.9,553.3 C 330.1,553.2 328.1,553.0 326.2,552.8 C 324.3,552.5 322.4,552.3 320.4,552.1 C 318.5,551.8 316.5,551.5 314.5,551.2 C 312.5,550.9 310.6,550.6 308.6,550.2 C 306.6,549.8 304.6,549.4 302.6,548.9 C 300.7,548.4 298.7,547.9 296.8,547.3 C 294.8,546.7 292.9,546.1 291.0,545.4 C 289.1,544.7 287.2,543.9 285.3,543.1 C 283.5,542.2 281.6,541.3 279.9,540.4 C 278.1,539.4 276.3,538.3 274.6,537.2 C 273.0,536.1 271.3,535.0 269.7,533.7 C 268.1,532.5 266.6,531.2 265.1,529.9 C 263.6,528.5 262.1,527.1 260.7,525.7 C 259.4,524.2 258.0,522.7 256.7,521.2 C 255.5,519.6 254.2,518.0 253.1,516.4 C 251.9,514.8 250.7,513.1 249.7,511.4 C 248.6,509.7 247.6,508.0 246.6,506.2 C 245.6,504.5 244.6,502.7 243.7,500.9 C 242.8,499.1 242.0,497.3 241.2,495.5 C 240.4,493.6 239.6,491.8 238.8,489.9 C 238.1,488.1 237.4,486.2 236.8,484.3 C 236.1,482.4 235.5,480.6 234.9,478.7 C 234.3,476.8 233.8,474.9 233.3,472.9 C 232.8,471.0 232.3,469.1 231.9,467.2 C 231.4,465.3 231.0,463.3 230.6,461.4 C 230.3,459.5 229.9,457.6 229.6,455.6 C 229.3,453.7 229.0,451.8 228.8,449.9 C 228.5,448.0 228.3,446.0 228.0,444.1 C 227.8,442.2 227.6,440.3 227.4,438.4 C 227.2,436.5 227.0,434.6 226.8,432.7 C 226.6,430.8 226.4,428.9 226.2,427.0 C 226.0,425.1 225.8,423.3 225.6,421.4 C 225.3,419.5 225.1,417.6 224.8,415.8 C 224.6,413.9 224.3,412.0 224.0,410.1 C 223.7,408.3 223.3,406.4 223.0,404.5 C 222.6,402.6 222.3,400.7 221.9,398.8 C 221.5,396.8 221.0,394.9 220.6,393.0 C 220.2,391.0 219.7,389.1 219.2,387.1 C 218.8,385.1 218.3,383.1 217.9,381.1 C 217.4,379.1 216.9,377.1 216.5,375.0 C 216.1,372.9 215.7,370.9 215.3,368.8 C 214.9,366.7 214.5,364.6 214.2,362.4 C 213.9,360.3 213.7,358.2 213.4,356.0 C 213.2,353.9 213.1,351.7 213.0,349.5 C 212.9,347.4 212.9,345.2 212.9,343.1 C 213.0,340.9 213.1,338.7 213.3,336.6 C 213.5,334.4 213.7,332.3 214.1,330.1 C 214.4,328.0 214.8,325.9 215.3,323.8 C 215.8,321.7 216.3,319.6 216.9,317.5 C 217.6,315.5 218.3,313.4 219.0,311.4 C 219.7,309.4 220.6,307.4 221.4,305.4 C 222.3,303.4 223.2,301.5 224.2,299.5 C 225.1,297.6 226.1,295.7 227.2,293.8 C 228.2,291.9 229.3,290.0 230.4,288.2 C 231.6,286.3 232.7,284.5 233.9,282.7 C 235.1,280.9 236.3,279.1 237.6,277.4 C 238.8,275.6 240.1,273.8 241.4,272.1 C 242.7,270.4 244.0,268.7 245.4,267.0 C 246.8,265.3 248.2,263.7 249.6,262.0 C 251.0,260.4 252.4,258.8 253.9,257.2 C 255.4,255.6 256.8,254.0 258.4,252.4 C 259.9,250.9 261.4,249.4 263.0,247.9 C 264.6,246.4 266.2,244.9 267.8,243.5 C 269.4,242.0 271.0,240.6 272.7,239.2 C 274.4,237.9 276.1,236.5 277.8,235.2 C 279.5,233.8 281.2,232.5 283.0,231.2 C 284.7,229.9 286.5,228.7 288.3,227.4 C 290.0,226.2 291.8,225.0 293.6,223.8 C 295.4,222.6 297.3,221.4 299.1,220.2 C 300.9,219.1 302.8,217.9 304.6,216.8 C 306.5,215.6 308.4,214.5 310.2,213.4 C 312.1,212.3 314.0,211.2 315.9,210.2 C 317.9,209.1 319.8,208.1 321.7,207.0 C 323.7,206.0 325.6,205.0 327.6,204.1 C 329.6,203.1 331.6,202.1 333.6,201.3 C 335.6,200.4 337.6,199.5 339.7,198.7 C 341.7,197.9 343.8,197.1 345.9,196.4 C 348.0,195.7 350.1,195.1 352.2,194.5 C 354.4,193.9 356.5,193.4 358.7,193.0 C 360.9,192.6 363.0,192.2 365.2,191.9 C 367.4,191.7 369.6,191.5 371.8,191.4 C 374.0,191.3 376.3,191.3 378.5,191.4 C 380.7,191.5 382.9,191.6 385.1,191.9 C 387.3,192.2 389.5,192.5 391.7,193.0 C 393.9,193.4 396.1,193.9 398.3,194.5 C 400.4,195.1 402.6,195.8 404.7,196.5 C 406.8,197.3 408.9,198.1 411.0,199.0 C 413.0,199.8 415.1,200.8 417.1,201.8 C 419.1,202.7 421.1,203.8 423.0,204.9 C 425.0,205.9 426.9,207.1 428.7,208.2 C 430.6,209.4 432.5,210.6 434.3,211.9 C 436.1,213.1 437.9,214.4 439.6,215.6 C 441.4,216.9 443.1,218.3 444.7,219.6 C 446.4,221.0 448.0,222.3 449.6,223.7 C 451.2,225.1 452.8,226.6 454.3,228.0 C 455.8,229.5 457.3,230.9 458.7,232.4 C 460.2,233.9 461.6,235.4 462.9,237.0 C 464.3,238.5 465.6,240.1 466.9,241.7 C 468.2,243.2 469.4,244.8 470.6,246.4 C 471.8,248.1 472.9,249.7 474.1,251.3 C 475.2,252.9 476.3,254.6 477.3,256.2 C 478.4,257.9 479.4,259.5 480.3,261.1 C 481.3,262.8 482.3,264.4 483.2,266.0 C 484.1,267.6 485.0,269.2 485.9,270.8 C 486.8,272.4 487.6,273.9 488.5,275.4 C 489.4,276.9 490.2,278.4 491.1,279.8 C 491.9,281.3 492.8,282.7 493.7,284.0 C 494.6,285.4 495.4,286.7 496.4,288.0 C 497.3,289.2 498.2,290.4 499.2,291.6 C 500.1,292.8 501.1,293.9 502.1,295.0 C 503.2,296.1 504.2,297.1 505.3,298.1 C 506.5,299.1 507.6,300.1 508.8,301.0 C 510.0,301.9 511.2,302.8 512.5,303.7 C 513.8,304.6 515.1,305.4 516.5,306.3 C 517.8,307.1 519.2,308.0 520.7,308.8 C 522.1,309.6 523.6,310.4 525.1,311.3 C 526.6,312.1 528.2,312.9 529.8,313.8 C 531.3,314.6 533.0,315.4 534.6,316.3 C 536.2,317.2 537.9,318.1 539.6,319.0 C 541.3,319.9 543.0,320.8 544.7,321.8 C 546.5,322.7 548.2,323.7 550.0,324.7 C 551.8,325.7 553.6,326.8 555.4,327.9 C 557.1,328.9 559.0,330.1 560.8,331.2 C 562.6,332.4 564.4,333.6 566.2,334.8 C 568.1,336.0 569.9,337.3 571.7,338.6 C 573.5,340.0 575.4,341.3 577.2,342.7 C 579.0,344.1 580.8,345.6 582.6,347.1 C 584.3,348.6 586.1,350.1 587.8,351.7 C 589.6,353.3 591.3,355.0 592.9,356.7 C 594.6,358.4 596.2,360.1 597.8,361.9 C 599.3,363.7 600.8,365.6 602.3,367.5 C 603.7,369.4 605.1,371.3 606.4,373.3 C 607.7,375.3 608.9,377.3 610.0,379.4 C 611.2,381.4 612.2,383.5 613.2,385.6 C 614.2,387.8 615.0,389.9 615.8,392.1 C 616.6,394.3 617.2,396.5 617.8,398.8 Z"/>
    <path d="M 656.6,394.0 C 657.4,396.6 658.1,399.3 658.7,402.0 C 659.3,404.6 659.8,407.3 660.2,410.0 C 660.6,412.7 661.0,415.4 661.2,418.1 C 661.5,420.8 661.7,423.6 661.8,426.3 C 661.9,429.0 662.0,431.8 662.0,434.5 C 661.9,437.3 661.9,440.0 661.7,442.7 C 661.5,445.5 661.3,448.2 661.0,451.0 C 660.8,453.7 660.4,456.4 660.0,459.2 C 659.6,461.9 659.1,464.6 658.5,467.3 C 658.0,470.0 657.4,472.7 656.7,475.4 C 656.0,478.1 655.3,480.7 654.5,483.4 C 653.7,486.0 652.8,488.6 651.8,491.2 C 650.9,493.8 649.8,496.4 648.8,499.0 C 647.7,501.5 646.5,504.0 645.3,506.5 C 644.1,509.0 642.8,511.4 641.4,513.8 C 640.1,516.3 638.7,518.6 637.2,521.0 C 635.7,523.3 634.2,525.6 632.6,527.9 C 631.1,530.2 629.4,532.4 627.8,534.6 C 626.1,536.8 624.4,538.9 622.7,541.1 C 620.9,543.2 619.1,545.3 617.3,547.3 C 615.5,549.4 613.7,551.4 611.8,553.4 C 609.9,555.4 608.0,557.4 606.1,559.3 C 604.2,561.3 602.2,563.2 600.2,565.0 C 598.3,566.9 596.3,568.7 594.3,570.6 C 592.2,572.4 590.2,574.1 588.1,575.9 C 586.0,577.6 583.9,579.3 581.8,580.9 C 579.7,582.6 577.5,584.2 575.3,585.7 C 573.1,587.3 570.9,588.8 568.6,590.2 C 566.3,591.6 564.0,593.0 561.6,594.3 C 559.3,595.6 556.9,596.8 554.4,597.9 C 552.0,599.0 549.5,600.1 547.0,601.0 C 544.4,602.0 541.9,602.8 539.3,603.6 C 536.7,604.3 534.0,605.0 531.4,605.5 C 528.7,606.1 526.0,606.5 523.3,606.8 C 520.6,607.2 517.8,607.4 515.1,607.5 C 512.3,607.7 509.5,607.7 506.8,607.6 C 504.0,607.6 501.3,607.4 498.5,607.2 C 495.8,606.9 493.0,606.6 490.3,606.2 C 487.6,605.8 484.8,605.3 482.2,604.8 C 479.5,604.3 476.8,603.7 474.2,603.1 C 471.6,602.5 469.0,601.9 466.5,601.2 C 463.9,600.5 461.4,599.8 458.9,599.1 C 456.5,598.4 454.0,597.6 451.6,596.9 C 449.2,596.2 446.9,595.5 444.6,594.7 C 442.2,594.0 440.0,593.3 437.7,592.6 C 435.5,591.9 433.3,591.2 431.1,590.6 C 428.9,589.9 426.8,589.3 424.7,588.7 C 422.6,588.1 420.5,587.5 418.4,586.9 C 416.3,586.4 414.3,585.8 412.3,585.3 C 410.3,584.8 408.3,584.3 406.3,583.9 C 404.3,583.4 402.3,583.0 400.3,582.6 C 398.4,582.2 396.4,581.8 394.5,581.5 C 392.5,581.2 390.6,580.8 388.6,580.6 C 386.7,580.3 384.8,580.0 382.8,579.8 C 380.8,579.6 378.9,579.4 376.9,579.3 C 375.0,579.1 373.0,579.0 371.0,578.9 C 369.0,578.9 367.0,578.8 365.0,578.8 C 362.9,578.8 360.9,578.8 358.8,578.8 C 356.8,578.8 354.7,578.9 352.5,578.9 C 350.4,579.0 348.3,579.1 346.1,579.2 C 343.9,579.3 341.7,579.4 339.5,579.5 C 337.3,579.6 335.0,579.7 332.7,579.8 C 330.4,579.9 328.1,580.0 325.8,580.0 C 323.5,580.0 321.1,580.0 318.8,580.0 C 316.4,579.9 314.0,579.9 311.7,579.7 C 309.3,579.6 306.9,579.4 304.5,579.1 C 302.2,578.8 299.8,578.5 297.4,578.1 C 295.1,577.6 292.7,577.1 290.4,576.6 C 288.1,576.0 285.8,575.3 283.6,574.6 C 281.3,573.8 279.1,573.0 276.9,572.1 C 274.7,571.1 272.6,570.1 270.5,569.0 C 268.4,567.9 266.4,566.8 264.4,565.5 C 262.4,564.3 260.4,563.0 258.5,561.6 C 256.6,560.2 254.8,558.7 253.0,557.2 C 251.2,555.7 249.4,554.2 247.7,552.6 C 246.0,550.9 244.4,549.3 242.7,547.6 C 241.1,545.9 239.5,544.1 238.0,542.4 C 236.5,540.6 235.0,538.8 233.5,536.9 C 232.0,535.1 230.6,533.2 229.2,531.4 C 227.8,529.5 226.5,527.5 225.2,525.6 C 223.8,523.7 222.5,521.7 221.3,519.7 C 220.0,517.8 218.8,515.8 217.6,513.7 C 216.5,511.7 215.3,509.7 214.2,507.6 C 213.1,505.5 212.1,503.4 211.1,501.3 C 210.1,499.2 209.1,497.1 208.2,495.0 C 207.3,492.8 206.4,490.6 205.6,488.5 C 204.7,486.3 204.0,484.1 203.2,481.9 C 202.5,479.7 201.9,477.4 201.2,475.2 C 200.6,473.0 200.0,470.7 199.5,468.5 C 199.0,466.2 198.5,463.9 198.0,461.7 C 197.6,459.4 197.2,457.2 196.8,454.9 C 196.4,452.6 196.0,450.4 195.7,448.1 C 195.3,445.8 195.0,443.6 194.7,441.3 C 194.4,439.1 194.1,436.8 193.8,434.6 C 193.5,432.3 193.2,430.1 192.9,427.8 C 192.6,425.6 192.3,423.3 192.0,421.1 C 191.7,418.9 191.3,416.6 191.0,414.4 C 190.7,412.1 190.3,409.9 189.9,407.6 C 189.6,405.4 189.2,403.1 188.8,400.9 C 188.5,398.6 188.1,396.3 187.7,394.0 C 187.3,391.7 186.9,389.4 186.5,387.1 C 186.2,384.8 185.8,382.5 185.4,380.1 C 185.1,377.8 184.7,375.4 184.4,373.0 C 184.1,370.7 183.8,368.3 183.5,365.9 C 183.3,363.5 183.0,361.1 182.8,358.6 C 182.7,356.2 182.5,353.8 182.4,351.3 C 182.3,348.9 182.2,346.4 182.2,343.9 C 182.2,341.5 182.2,339.0 182.2,336.5 C 182.3,334.0 182.4,331.5 182.6,329.0 C 182.8,326.5 183.0,324.1 183.2,321.6 C 183.5,319.1 183.8,316.6 184.2,314.1 C 184.5,311.6 184.9,309.1 185.4,306.6 C 185.8,304.1 186.3,301.6 186.9,299.1 C 187.4,296.6 188.0,294.1 188.6,291.6 C 189.3,289.1 189.9,286.6 190.7,284.2 C 191.4,281.7 192.2,279.2 193.0,276.8 C 193.9,274.3 194.8,271.9 195.7,269.5 C 196.7,267.1 197.7,264.7 198.7,262.3 C 199.8,259.9 200.9,257.6 202.1,255.3 C 203.3,253.0 204.6,250.7 205.9,248.5 C 207.3,246.2 208.7,244.0 210.1,241.9 C 211.6,239.7 213.1,237.6 214.7,235.6 C 216.3,233.5 218.0,231.5 219.7,229.6 C 221.4,227.6 223.2,225.7 225.1,223.9 C 226.9,222.0 228.8,220.3 230.8,218.5 C 232.7,216.8 234.7,215.1 236.7,213.5 C 238.8,211.9 240.9,210.3 243.0,208.8 C 245.1,207.2 247.2,205.8 249.3,204.3 C 251.5,202.9 253.7,201.5 255.8,200.1 C 258.0,198.7 260.2,197.3 262.4,196.0 C 264.6,194.7 266.8,193.3 269.0,192.0 C 271.2,190.7 273.4,189.4 275.6,188.1 C 277.8,186.8 280.0,185.5 282.2,184.3 C 284.4,183.0 286.6,181.7 288.8,180.4 C 291.0,179.1 293.3,177.8 295.5,176.6 C 297.7,175.3 299.9,174.0 302.1,172.7 C 304.4,171.5 306.6,170.2 308.9,169.0 C 311.2,167.8 313.4,166.6 315.7,165.4 C 318.0,164.2 320.4,163.0 322.7,161.9 C 325.1,160.8 327.4,159.7 329.8,158.7 C 332.2,157.7 334.6,156.8 337.1,155.9 C 339.5,155.0 342.0,154.2 344.5,153.4 C 347.0,152.7 349.5,152.0 352.0,151.4 C 354.6,150.9 357.1,150.4 359.7,150.0 C 362.3,149.6 364.9,149.2 367.5,149.0 C 370.1,148.8 372.7,148.7 375.3,148.6 C 377.9,148.6 380.5,148.7 383.1,148.8 C 385.7,149.0 388.3,149.3 390.9,149.6 C 393.5,150.0 396.1,150.4 398.6,150.9 C 401.2,151.4 403.7,152.1 406.3,152.8 C 408.8,153.5 411.3,154.3 413.8,155.1 C 416.3,156.0 418.7,157.0 421.1,158.0 C 423.5,159.1 425.9,160.2 428.3,161.4 C 430.6,162.6 432.9,163.9 435.2,165.2 C 437.4,166.6 439.7,168.0 441.8,169.5 C 444.0,171.0 446.1,172.6 448.2,174.2 C 450.3,175.8 452.3,177.5 454.3,179.3 C 456.2,181.1 458.1,182.9 460.0,184.8 C 461.8,186.7 463.6,188.6 465.4,190.6 C 467.1,192.6 468.8,194.7 470.4,196.7 C 472.0,198.8 473.5,200.9 475.0,203.0 C 476.5,205.1 478.0,207.3 479.3,209.5 C 480.7,211.6 482.1,213.8 483.3,215.9 C 484.6,218.1 485.9,220.2 487.1,222.3 C 488.3,224.4 489.4,226.5 490.6,228.6 C 491.7,230.6 492.8,232.6 493.9,234.6 C 495.0,236.6 496.1,238.5 497.2,240.3 C 498.2,242.2 499.3,244.0 500.4,245.7 C 501.5,247.4 502.6,249.1 503.7,250.7 C 504.8,252.3 505.9,253.8 507.0,255.3 C 508.2,256.8 509.4,258.2 510.6,259.5 C 511.8,260.9 513.0,262.2 514.3,263.4 C 515.6,264.7 516.9,265.9 518.2,267.0 C 519.6,268.2 521.0,269.3 522.4,270.4 C 523.8,271.4 525.3,272.5 526.8,273.5 C 528.3,274.5 529.8,275.5 531.4,276.5 C 532.9,277.6 534.5,278.5 536.1,279.5 C 537.8,280.5 539.4,281.5 541.1,282.5 C 542.7,283.5 544.4,284.5 546.1,285.5 C 547.8,286.5 549.6,287.6 551.3,288.6 C 553.1,289.7 554.9,290.7 556.7,291.8 C 558.4,292.9 560.3,294.0 562.1,295.1 C 563.9,296.3 565.8,297.4 567.6,298.6 C 569.5,299.8 571.4,301.0 573.3,302.2 C 575.2,303.4 577.2,304.7 579.1,306.0 C 581.1,307.2 583.0,308.6 585.0,309.9 C 587.0,311.2 589.0,312.6 591.1,314.0 C 593.1,315.5 595.2,316.9 597.2,318.4 C 599.3,319.9 601.3,321.5 603.4,323.1 C 605.5,324.6 607.5,326.3 609.6,328.0 C 611.7,329.6 613.7,331.4 615.7,333.2 C 617.8,335.0 619.8,336.8 621.7,338.7 C 623.7,340.6 625.7,342.5 627.6,344.6 C 629.4,346.6 631.3,348.6 633.1,350.8 C 634.8,352.9 636.6,355.1 638.2,357.3 C 639.9,359.5 641.4,361.8 642.9,364.1 C 644.4,366.5 645.8,368.8 647.2,371.3 C 648.5,373.7 649.7,376.1 650.9,378.6 C 652.0,381.1 653.0,383.7 654.0,386.2 C 655.0,388.8 655.8,391.4 656.6,394.0 Z"/>
    <path d="M 688.8,388.5 C 689.7,391.6 690.5,394.6 691.2,397.7 C 691.9,400.8 692.5,403.9 693.0,407.0 C 693.6,410.1 694.0,413.2 694.4,416.4 C 694.7,419.5 695.0,422.7 695.2,425.9 C 695.4,429.0 695.5,432.2 695.5,435.4 C 695.5,438.6 695.4,441.8 695.3,444.9 C 695.1,448.1 694.8,451.3 694.5,454.5 C 694.2,457.6 693.7,460.8 693.2,463.9 C 692.7,467.1 692.1,470.2 691.4,473.3 C 690.7,476.4 689.9,479.5 689.0,482.6 C 688.2,485.7 687.2,488.7 686.1,491.7 C 685.1,494.7 683.9,497.7 682.7,500.6 C 681.5,503.6 680.2,506.5 678.9,509.4 C 677.5,512.3 676.1,515.1 674.6,517.9 C 673.1,520.8 671.5,523.5 669.9,526.3 C 668.3,529.0 666.6,531.7 664.9,534.4 C 663.2,537.1 661.4,539.7 659.7,542.4 C 657.9,545.0 656.0,547.6 654.2,550.1 C 652.3,552.7 650.5,555.2 648.5,557.8 C 646.6,560.3 644.7,562.8 642.7,565.2 C 640.8,567.7 638.8,570.1 636.8,572.5 C 634.8,575.0 632.7,577.4 630.6,579.7 C 628.6,582.1 626.5,584.4 624.3,586.7 C 622.2,589.0 620.0,591.2 617.8,593.4 C 615.5,595.6 613.2,597.8 610.9,599.9 C 608.6,602.0 606.2,604.0 603.8,606.0 C 601.3,608.0 598.8,609.9 596.3,611.7 C 593.7,613.5 591.1,615.2 588.4,616.8 C 585.7,618.4 583.0,620.0 580.2,621.4 C 577.3,622.8 574.5,624.1 571.6,625.3 C 568.6,626.5 565.6,627.6 562.6,628.5 C 559.6,629.5 556.5,630.3 553.4,631.0 C 550.3,631.7 547.1,632.3 544.0,632.8 C 540.8,633.2 537.6,633.6 534.4,633.8 C 531.2,634.1 528.0,634.2 524.7,634.2 C 521.5,634.3 518.3,634.2 515.1,634.1 C 511.9,633.9 508.7,633.7 505.5,633.4 C 502.3,633.1 499.1,632.7 496.0,632.2 C 492.9,631.8 489.8,631.3 486.7,630.7 C 483.7,630.2 480.6,629.6 477.7,629.0 C 474.7,628.4 471.7,627.7 468.8,627.0 C 465.9,626.3 463.1,625.6 460.2,624.9 C 457.4,624.2 454.6,623.5 451.9,622.7 C 449.1,622.0 446.4,621.2 443.8,620.5 C 441.1,619.8 438.5,619.0 435.9,618.3 C 433.3,617.5 430.8,616.8 428.3,616.1 C 425.8,615.3 423.3,614.6 420.8,613.9 C 418.4,613.2 416.0,612.5 413.6,611.8 C 411.2,611.2 408.8,610.5 406.5,609.9 C 404.1,609.3 401.8,608.7 399.5,608.1 C 397.2,607.5 395.0,607.0 392.7,606.5 C 390.4,606.0 388.2,605.5 385.9,605.1 C 383.7,604.7 381.4,604.3 379.2,604.0 C 376.9,603.7 374.7,603.4 372.4,603.2 C 370.2,603.0 367.9,602.8 365.6,602.7 C 363.3,602.5 361.0,602.5 358.7,602.4 C 356.4,602.4 354.1,602.4 351.7,602.5 C 349.4,602.5 347.0,602.6 344.5,602.7 C 342.1,602.8 339.7,603.0 337.2,603.1 C 334.7,603.2 332.2,603.4 329.7,603.6 C 327.1,603.7 324.6,603.9 322.0,604.0 C 319.4,604.1 316.7,604.2 314.1,604.3 C 311.5,604.4 308.8,604.4 306.1,604.4 C 303.5,604.4 300.8,604.3 298.1,604.1 C 295.4,604.0 292.7,603.8 290.0,603.5 C 287.3,603.2 284.6,602.8 282.0,602.4 C 279.3,601.9 276.7,601.4 274.0,600.7 C 271.4,600.1 268.8,599.4 266.2,598.6 C 263.6,597.8 261.1,596.9 258.6,596.0 C 256.0,595.0 253.6,593.9 251.1,592.8 C 248.7,591.7 246.3,590.5 243.9,589.2 C 241.5,587.9 239.2,586.6 236.9,585.1 C 234.6,583.7 232.3,582.3 230.1,580.7 C 227.9,579.2 225.7,577.6 223.5,576.0 C 221.4,574.3 219.2,572.6 217.2,570.9 C 215.1,569.2 213.0,567.4 211.0,565.5 C 209.0,563.7 207.1,561.8 205.1,559.9 C 203.2,558.0 201.3,556.0 199.5,554.0 C 197.6,552.0 195.8,550.0 194.1,547.9 C 192.3,545.8 190.6,543.7 189.0,541.5 C 187.4,539.3 185.8,537.1 184.3,534.8 C 182.8,532.6 181.3,530.2 179.9,527.9 C 178.5,525.6 177.2,523.2 175.9,520.8 C 174.7,518.3 173.5,515.9 172.4,513.4 C 171.3,510.9 170.3,508.4 169.3,505.8 C 168.4,503.3 167.5,500.7 166.7,498.1 C 165.8,495.5 165.1,492.9 164.4,490.3 C 163.7,487.7 163.1,485.0 162.5,482.4 C 161.9,479.7 161.4,477.1 160.9,474.4 C 160.4,471.8 159.9,469.1 159.5,466.5 C 159.1,463.9 158.7,461.2 158.3,458.6 C 157.9,456.0 157.5,453.4 157.2,450.8 C 156.8,448.1 156.4,445.5 156.1,442.9 C 155.7,440.3 155.3,437.8 154.9,435.2 C 154.6,432.6 154.2,430.0 153.8,427.5 C 153.3,424.9 152.9,422.3 152.5,419.7 C 152.0,417.2 151.6,414.6 151.1,412.0 C 150.7,409.4 150.2,406.8 149.8,404.2 C 149.3,401.6 148.8,399.0 148.3,396.4 C 147.9,393.8 147.4,391.2 147.0,388.5 C 146.5,385.9 146.1,383.2 145.6,380.5 C 145.2,377.9 144.8,375.2 144.4,372.5 C 144.0,369.8 143.7,367.0 143.4,364.3 C 143.0,361.6 142.8,358.8 142.5,356.1 C 142.2,353.3 142.0,350.5 141.8,347.7 C 141.6,344.9 141.5,342.1 141.4,339.3 C 141.3,336.5 141.2,333.6 141.2,330.8 C 141.1,327.9 141.1,325.1 141.2,322.2 C 141.2,319.3 141.3,316.4 141.4,313.5 C 141.5,310.6 141.7,307.7 141.9,304.8 C 142.1,301.9 142.4,299.0 142.7,296.0 C 143.0,293.1 143.3,290.2 143.7,287.2 C 144.1,284.3 144.6,281.4 145.1,278.4 C 145.6,275.5 146.2,272.5 146.9,269.6 C 147.5,266.7 148.2,263.8 149.0,260.9 C 149.8,258.0 150.7,255.1 151.6,252.2 C 152.6,249.4 153.6,246.6 154.8,243.8 C 155.9,241.0 157.1,238.2 158.4,235.5 C 159.7,232.8 161.1,230.1 162.6,227.5 C 164.1,224.9 165.7,222.3 167.4,219.8 C 169.0,217.3 170.8,214.9 172.6,212.5 C 174.5,210.2 176.4,207.8 178.4,205.6 C 180.4,203.3 182.5,201.2 184.6,199.0 C 186.7,196.9 188.9,194.8 191.1,192.8 C 193.4,190.8 195.7,188.9 198.0,187.0 C 200.3,185.1 202.7,183.2 205.0,181.4 C 207.4,179.6 209.8,177.8 212.2,176.1 C 214.6,174.3 217.1,172.6 219.5,170.9 C 221.9,169.2 224.4,167.5 226.8,165.8 C 229.2,164.2 231.7,162.5 234.1,160.8 C 236.5,159.2 239.0,157.5 241.4,155.9 C 243.9,154.2 246.3,152.6 248.7,150.9 C 251.2,149.3 253.6,147.6 256.1,146.0 C 258.6,144.3 261.0,142.7 263.5,141.1 C 266.0,139.5 268.5,137.8 271.0,136.2 C 273.5,134.7 276.0,133.1 278.6,131.6 C 281.2,130.0 283.8,128.5 286.4,127.1 C 289.0,125.6 291.7,124.2 294.3,122.8 C 297.0,121.5 299.7,120.2 302.5,119.0 C 305.2,117.7 308.0,116.6 310.8,115.5 C 313.6,114.4 316.5,113.4 319.3,112.5 C 322.2,111.5 325.1,110.7 328.0,109.9 C 330.9,109.2 333.9,108.5 336.8,108.0 C 339.8,107.4 342.8,106.9 345.7,106.5 C 348.7,106.1 351.7,105.9 354.7,105.7 C 357.7,105.5 360.8,105.4 363.8,105.4 C 366.8,105.4 369.8,105.5 372.8,105.6 C 375.8,105.8 378.8,106.1 381.8,106.5 C 384.8,106.9 387.8,107.3 390.7,107.9 C 393.7,108.5 396.6,109.2 399.5,109.9 C 402.4,110.7 405.3,111.6 408.2,112.6 C 411.1,113.5 413.9,114.6 416.7,115.8 C 419.5,116.9 422.2,118.2 425.0,119.6 C 427.7,121.0 430.3,122.5 432.9,124.1 C 435.6,125.6 438.1,127.3 440.6,129.1 C 443.1,130.9 445.6,132.8 448.0,134.7 C 450.3,136.7 452.6,138.7 454.9,140.8 C 457.1,143.0 459.3,145.2 461.4,147.4 C 463.5,149.7 465.6,152.0 467.6,154.4 C 469.5,156.7 471.4,159.2 473.3,161.6 C 475.1,164.0 476.9,166.5 478.6,168.9 C 480.3,171.4 481.9,173.9 483.5,176.3 C 485.1,178.8 486.7,181.3 488.2,183.7 C 489.7,186.1 491.1,188.5 492.6,190.8 C 494.0,193.2 495.4,195.5 496.8,197.7 C 498.1,200.0 499.5,202.1 500.8,204.3 C 502.2,206.4 503.5,208.5 504.8,210.5 C 506.2,212.5 507.5,214.4 508.8,216.3 C 510.2,218.2 511.5,220.0 512.9,221.7 C 514.3,223.5 515.6,225.2 517.0,226.8 C 518.4,228.4 519.8,230.0 521.3,231.6 C 522.7,233.1 524.2,234.6 525.7,236.1 C 527.1,237.5 528.7,238.9 530.2,240.3 C 531.7,241.7 533.3,243.1 534.8,244.4 C 536.4,245.8 538.0,247.1 539.6,248.4 C 541.2,249.7 542.9,251.0 544.6,252.3 C 546.2,253.6 547.9,254.9 549.6,256.2 C 551.4,257.5 553.1,258.7 554.9,260.0 C 556.7,261.3 558.5,262.5 560.3,263.8 C 562.1,265.1 564.0,266.4 565.9,267.6 C 567.9,268.9 569.8,270.2 571.8,271.4 C 573.8,272.7 575.8,274.0 577.9,275.3 C 580.0,276.6 582.2,277.9 584.3,279.2 C 586.5,280.6 588.7,281.9 591.0,283.3 C 593.3,284.6 595.6,286.0 598.0,287.4 C 600.3,288.8 602.7,290.3 605.2,291.8 C 607.6,293.2 610.1,294.8 612.6,296.3 C 615.0,297.9 617.6,299.5 620.1,301.2 C 622.6,302.9 625.1,304.6 627.6,306.4 C 630.1,308.2 632.6,310.1 635.1,312.0 C 637.6,313.9 640.0,315.9 642.4,318.0 C 644.8,320.0 647.2,322.1 649.5,324.3 C 651.8,326.5 654.1,328.8 656.3,331.1 C 658.4,333.5 660.5,335.9 662.5,338.4 C 664.6,340.8 666.5,343.4 668.3,345.9 C 670.2,348.5 671.9,351.2 673.6,353.9 C 675.2,356.6 676.8,359.4 678.3,362.2 C 679.7,365.0 681.1,367.8 682.4,370.7 C 683.6,373.6 684.8,376.6 685.9,379.5 C 686.9,382.5 687.9,385.5 688.8,388.5 Z"/>
    <path d="M 732.1,381.4 C 733.2,384.8 734.1,388.3 734.9,391.8 C 735.7,395.3 736.4,398.9 736.9,402.4 C 737.4,406.0 737.8,409.5 738.1,413.1 C 738.4,416.7 738.5,420.3 738.6,423.8 C 738.6,427.4 738.5,431.0 738.3,434.6 C 738.2,438.2 737.9,441.7 737.5,445.3 C 737.1,448.9 736.7,452.4 736.1,456.0 C 735.6,459.5 734.9,463.1 734.2,466.6 C 733.5,470.1 732.8,473.6 731.9,477.1 C 731.1,480.6 730.2,484.1 729.2,487.6 C 728.2,491.0 727.2,494.5 726.1,497.9 C 725.0,501.4 723.8,504.8 722.6,508.2 C 721.3,511.6 720.0,514.9 718.7,518.3 C 717.3,521.6 715.8,524.9 714.3,528.2 C 712.8,531.5 711.2,534.7 709.6,537.9 C 707.9,541.1 706.2,544.3 704.4,547.5 C 702.6,550.6 700.8,553.7 698.8,556.7 C 696.9,559.8 694.9,562.8 692.8,565.7 C 690.8,568.7 688.6,571.6 686.4,574.5 C 684.3,577.3 682.0,580.1 679.7,582.9 C 677.4,585.6 675.0,588.3 672.6,591.0 C 670.2,593.7 667.7,596.3 665.2,598.8 C 662.7,601.4 660.1,603.9 657.5,606.3 C 654.9,608.8 652.2,611.2 649.5,613.5 C 646.8,615.9 644.1,618.1 641.3,620.4 C 638.6,622.6 635.7,624.8 632.9,626.9 C 630.0,629.0 627.1,631.1 624.2,633.0 C 621.3,635.0 618.3,636.9 615.3,638.8 C 612.2,640.6 609.2,642.3 606.0,644.0 C 602.9,645.6 599.7,647.2 596.5,648.7 C 593.3,650.1 590.0,651.5 586.7,652.7 C 583.4,654.0 580.1,655.1 576.7,656.1 C 573.3,657.1 569.8,658.0 566.3,658.7 C 562.9,659.4 559.3,660.0 555.8,660.5 C 552.2,661.0 548.7,661.3 545.1,661.5 C 541.5,661.7 537.8,661.7 534.2,661.7 C 530.6,661.6 527.0,661.4 523.4,661.1 C 519.8,660.8 516.1,660.3 512.6,659.8 C 509.0,659.2 505.4,658.6 501.9,657.9 C 498.3,657.1 494.8,656.3 491.4,655.4 C 487.9,654.6 484.5,653.6 481.1,652.7 C 477.8,651.7 474.5,650.7 471.2,649.6 C 468.0,648.6 464.7,647.6 461.6,646.5 C 458.5,645.5 455.4,644.4 452.3,643.4 C 449.3,642.4 446.3,641.4 443.4,640.5 C 440.4,639.5 437.6,638.6 434.7,637.8 C 431.9,636.9 429.1,636.1 426.3,635.3 C 423.6,634.5 420.9,633.8 418.2,633.2 C 415.5,632.5 412.8,631.9 410.2,631.4 C 407.5,630.8 404.9,630.3 402.3,629.9 C 399.7,629.4 397.1,629.0 394.6,628.6 C 392.0,628.3 389.4,628.0 386.8,627.7 C 384.3,627.4 381.7,627.2 379.1,626.9 C 376.5,626.7 374.0,626.5 371.4,626.4 C 368.8,626.2 366.2,626.1 363.6,625.9 C 361.0,625.8 358.4,625.7 355.7,625.6 C 353.1,625.6 350.4,625.5 347.8,625.4 C 345.1,625.4 342.4,625.3 339.7,625.3 C 337.0,625.3 334.2,625.2 331.5,625.2 C 328.7,625.2 325.9,625.2 323.1,625.2 C 320.3,625.2 317.4,625.1 314.6,625.1 C 311.7,625.1 308.8,625.1 305.9,625.0 C 302.9,625.0 300.0,624.9 297.0,624.8 C 294.0,624.7 291.0,624.6 288.0,624.4 C 284.9,624.2 281.9,624.0 278.8,623.7 C 275.8,623.5 272.7,623.1 269.6,622.7 C 266.6,622.3 263.5,621.9 260.4,621.3 C 257.4,620.8 254.3,620.1 251.3,619.4 C 248.2,618.7 245.2,617.9 242.2,617.0 C 239.3,616.0 236.3,615.0 233.4,613.9 C 230.5,612.8 227.6,611.5 224.8,610.2 C 222.0,608.9 219.3,607.4 216.6,605.9 C 213.9,604.4 211.3,602.7 208.7,601.0 C 206.2,599.2 203.7,597.4 201.3,595.5 C 198.8,593.6 196.5,591.6 194.2,589.5 C 191.9,587.4 189.7,585.3 187.5,583.1 C 185.4,580.9 183.3,578.6 181.3,576.3 C 179.3,573.9 177.3,571.5 175.4,569.1 C 173.5,566.7 171.6,564.2 169.8,561.7 C 168.0,559.2 166.3,556.7 164.6,554.1 C 162.9,551.5 161.2,548.9 159.6,546.3 C 158.0,543.7 156.4,541.1 154.9,538.4 C 153.4,535.7 151.9,533.0 150.5,530.3 C 149.1,527.6 147.7,524.9 146.3,522.1 C 145.0,519.3 143.7,516.6 142.5,513.8 C 141.3,511.0 140.1,508.1 139.0,505.3 C 137.9,502.5 136.8,499.6 135.8,496.7 C 134.8,493.8 133.9,490.9 133.0,488.0 C 132.1,485.1 131.3,482.2 130.6,479.2 C 129.8,476.3 129.2,473.3 128.5,470.3 C 127.9,467.4 127.3,464.4 126.8,461.4 C 126.3,458.4 125.9,455.4 125.4,452.5 C 125.0,449.5 124.6,446.5 124.3,443.5 C 123.9,440.5 123.6,437.6 123.3,434.6 C 123.0,431.6 122.8,428.7 122.5,425.7 C 122.2,422.7 121.9,419.8 121.6,416.8 C 121.3,413.9 121.1,410.9 120.7,408.0 C 120.4,405.0 120.1,402.1 119.8,399.1 C 119.4,396.2 119.0,393.2 118.6,390.3 C 118.2,387.3 117.8,384.4 117.4,381.4 C 116.9,378.4 116.4,375.4 116.0,372.4 C 115.5,369.4 115.0,366.3 114.5,363.3 C 114.0,360.2 113.4,357.1 112.9,354.0 C 112.5,350.9 111.9,347.8 111.5,344.6 C 111.0,341.5 110.6,338.3 110.2,335.1 C 109.8,331.9 109.4,328.7 109.1,325.4 C 108.7,322.2 108.5,318.9 108.3,315.6 C 108.1,312.4 107.9,309.1 107.9,305.8 C 107.8,302.5 107.8,299.2 107.9,295.8 C 108.0,292.5 108.2,289.2 108.4,285.9 C 108.7,282.6 109.0,279.2 109.5,275.9 C 109.9,272.6 110.4,269.3 111.0,266.0 C 111.6,262.7 112.3,259.5 113.1,256.2 C 113.8,252.9 114.7,249.7 115.6,246.4 C 116.5,243.2 117.5,240.0 118.6,236.8 C 119.7,233.6 120.8,230.4 122.1,227.3 C 123.3,224.2 124.6,221.0 126.0,217.9 C 127.4,214.8 128.8,211.8 130.3,208.8 C 131.8,205.7 133.4,202.7 135.1,199.8 C 136.8,196.8 138.5,193.9 140.3,191.0 C 142.1,188.1 144.0,185.3 146.0,182.5 C 147.9,179.7 150.0,177.0 152.1,174.3 C 154.2,171.6 156.3,169.0 158.6,166.5 C 160.8,163.9 163.1,161.4 165.5,159.0 C 167.9,156.5 170.3,154.2 172.8,151.9 C 175.3,149.5 177.9,147.3 180.5,145.1 C 183.1,143.0 185.8,140.8 188.5,138.8 C 191.2,136.7 193.9,134.7 196.7,132.8 C 199.5,130.8 202.3,129.0 205.1,127.1 C 207.9,125.3 210.8,123.5 213.7,121.7 C 216.5,119.9 219.4,118.2 222.3,116.5 C 225.2,114.7 228.1,113.1 231.0,111.4 C 233.9,109.7 236.8,108.0 239.7,106.4 C 242.6,104.7 245.5,103.1 248.4,101.4 C 251.3,99.8 254.2,98.1 257.2,96.5 C 260.1,94.8 263.0,93.2 265.9,91.5 C 268.9,89.9 271.8,88.2 274.8,86.6 C 277.7,85.0 280.7,83.4 283.7,81.8 C 286.7,80.2 289.8,78.7 292.8,77.2 C 295.9,75.7 299.0,74.2 302.1,72.8 C 305.2,71.4 308.3,70.1 311.5,68.8 C 314.7,67.6 317.9,66.4 321.2,65.3 C 324.4,64.3 327.7,63.3 331.0,62.4 C 334.4,61.6 337.7,60.9 341.1,60.3 C 344.4,59.7 347.8,59.2 351.3,58.9 C 354.7,58.5 358.1,58.4 361.5,58.3 C 364.9,58.3 368.4,58.4 371.8,58.6 C 375.3,58.9 378.7,59.3 382.1,59.8 C 385.5,60.3 388.9,61.0 392.3,61.8 C 395.7,62.6 399.0,63.6 402.3,64.6 C 405.6,65.7 408.9,66.9 412.2,68.2 C 415.4,69.5 418.6,70.9 421.8,72.5 C 424.9,74.0 428.0,75.6 431.1,77.3 C 434.1,79.0 437.1,80.9 440.1,82.7 C 443.0,84.6 445.9,86.6 448.7,88.6 C 451.5,90.7 454.3,92.8 457.0,95.0 C 459.7,97.1 462.3,99.4 464.8,101.7 C 467.4,104.0 469.9,106.3 472.3,108.7 C 474.8,111.1 477.1,113.6 479.4,116.1 C 481.7,118.6 483.9,121.1 486.1,123.7 C 488.2,126.3 490.3,128.9 492.3,131.5 C 494.3,134.1 496.2,136.8 498.1,139.4 C 500.0,142.1 501.8,144.8 503.6,147.5 C 505.3,150.1 507.0,152.8 508.6,155.4 C 510.3,158.1 511.9,160.7 513.4,163.3 C 515.0,166.0 516.5,168.5 517.9,171.1 C 519.4,173.6 520.9,176.1 522.3,178.5 C 523.7,180.9 525.1,183.3 526.6,185.6 C 528.0,187.9 529.4,190.2 530.8,192.3 C 532.2,194.5 533.6,196.6 535.1,198.6 C 536.6,200.6 538.1,202.6 539.6,204.4 C 541.1,206.3 542.7,208.1 544.3,209.8 C 545.9,211.5 547.5,213.2 549.2,214.8 C 550.9,216.4 552.7,217.9 554.5,219.4 C 556.3,220.8 558.1,222.2 560.1,223.6 C 562.0,225.0 563.9,226.4 566.0,227.7 C 568.0,229.0 570.0,230.3 572.2,231.6 C 574.3,232.9 576.4,234.2 578.6,235.5 C 580.8,236.8 583.1,238.1 585.3,239.4 C 587.6,240.7 589.9,242.0 592.2,243.4 C 594.6,244.7 596.9,246.1 599.3,247.5 C 601.7,248.9 604.1,250.3 606.5,251.8 C 608.9,253.3 611.4,254.7 613.8,256.3 C 616.3,257.8 618.8,259.4 621.3,261.0 C 623.8,262.6 626.3,264.3 628.8,266.0 C 631.4,267.7 633.9,269.4 636.5,271.2 C 639.1,273.0 641.7,274.8 644.3,276.7 C 646.9,278.5 649.5,280.5 652.2,282.5 C 654.8,284.4 657.5,286.5 660.1,288.6 C 662.8,290.6 665.5,292.8 668.1,295.0 C 670.8,297.2 673.5,299.5 676.1,301.8 C 678.8,304.2 681.5,306.6 684.1,309.0 C 686.7,311.5 689.3,314.0 691.8,316.7 C 694.3,319.3 696.8,322.0 699.3,324.7 C 701.7,327.5 704.1,330.3 706.3,333.2 C 708.6,336.1 710.8,339.1 712.9,342.1 C 715.0,345.2 717.0,348.3 718.8,351.5 C 720.7,354.6 722.4,357.9 724.0,361.1 C 725.7,364.4 727.2,367.7 728.5,371.1 C 729.9,374.5 731.1,377.9 732.1,381.4 Z"/>
    <path d="M 757.9,389.6 C 758.9,393.5 759.8,397.3 760.7,401.2 C 761.5,405.1 762.2,409.1 762.8,413.0 C 763.3,416.9 763.8,420.9 764.1,424.9 C 764.5,428.8 764.7,432.8 764.8,436.8 C 764.9,440.8 764.9,444.8 764.7,448.8 C 764.6,452.8 764.3,456.8 764.0,460.7 C 763.6,464.7 763.1,468.7 762.5,472.6 C 761.9,476.6 761.2,480.5 760.5,484.4 C 759.7,488.3 758.8,492.3 757.8,496.1 C 756.9,500.0 755.8,503.9 754.7,507.7 C 753.6,511.6 752.4,515.4 751.2,519.2 C 749.9,523.0 748.6,526.8 747.2,530.6 C 745.9,534.4 744.5,538.1 743.0,541.9 C 741.5,545.6 740.0,549.3 738.5,553.0 C 736.9,556.7 735.3,560.4 733.7,564.1 C 732.1,567.8 730.4,571.5 728.6,575.1 C 726.9,578.8 725.1,582.4 723.2,586.0 C 721.4,589.6 719.5,593.2 717.5,596.7 C 715.5,600.2 713.5,603.7 711.3,607.2 C 709.2,610.6 707.0,614.0 704.7,617.4 C 702.4,620.7 700.0,624.0 697.5,627.2 C 695.0,630.4 692.4,633.5 689.7,636.6 C 687.1,639.6 684.3,642.6 681.4,645.4 C 678.4,648.2 675.4,651.0 672.3,653.6 C 669.2,656.2 666.0,658.7 662.7,661.1 C 659.4,663.5 656.0,665.7 652.5,667.8 C 649.0,670.0 645.4,671.9 641.8,673.8 C 638.1,675.7 634.4,677.4 630.6,679.0 C 626.8,680.6 623.0,682.1 619.1,683.4 C 615.2,684.8 611.3,686.0 607.3,687.1 C 603.4,688.2 599.4,689.2 595.4,690.1 C 591.4,691.0 587.4,691.8 583.4,692.5 C 579.4,693.2 575.4,693.8 571.4,694.3 C 567.4,694.8 563.4,695.2 559.4,695.6 C 555.5,696.0 551.5,696.2 547.6,696.5 C 543.6,696.7 539.7,696.8 535.8,696.9 C 531.9,697.0 528.0,697.0 524.2,696.9 C 520.4,696.9 516.5,696.7 512.7,696.6 C 509.0,696.4 505.2,696.1 501.5,695.8 C 497.7,695.5 494.0,695.1 490.3,694.7 C 486.7,694.2 483.0,693.7 479.4,693.2 C 475.8,692.6 472.2,692.0 468.7,691.4 C 465.2,690.7 461.7,690.0 458.2,689.2 C 454.7,688.4 451.3,687.6 447.9,686.7 C 444.5,685.9 441.2,685.0 437.9,684.1 C 434.6,683.2 431.3,682.3 428.1,681.3 C 424.9,680.4 421.7,679.4 418.5,678.5 C 415.4,677.6 412.3,676.6 409.2,675.7 C 406.2,674.8 403.1,673.9 400.1,673.1 C 397.1,672.3 394.2,671.4 391.2,670.7 C 388.3,669.9 385.4,669.2 382.5,668.6 C 379.6,667.9 376.7,667.3 373.8,666.8 C 370.9,666.2 368.0,665.7 365.2,665.3 C 362.3,664.9 359.4,664.5 356.5,664.2 C 353.7,663.9 350.8,663.6 347.9,663.4 C 345.0,663.2 342.0,663.0 339.1,662.8 C 336.2,662.7 333.2,662.6 330.2,662.4 C 327.3,662.3 324.3,662.3 321.3,662.2 C 318.2,662.1 315.2,662.0 312.1,661.9 C 309.1,661.8 306.0,661.7 302.9,661.6 C 299.7,661.5 296.6,661.4 293.5,661.2 C 290.3,661.0 287.1,660.8 283.9,660.6 C 280.8,660.4 277.5,660.1 274.3,659.8 C 271.1,659.5 267.8,659.2 264.6,658.8 C 261.3,658.4 258.0,658.0 254.7,657.5 C 251.4,657.1 248.1,656.5 244.8,656.0 C 241.5,655.4 238.1,654.8 234.8,654.2 C 231.4,653.5 228.1,652.8 224.7,652.0 C 221.3,651.2 218.0,650.4 214.6,649.5 C 211.2,648.7 207.8,647.7 204.5,646.7 C 201.1,645.7 197.7,644.6 194.4,643.4 C 191.0,642.2 187.7,641.0 184.4,639.6 C 181.1,638.3 177.9,636.8 174.6,635.3 C 171.4,633.8 168.2,632.1 165.1,630.4 C 162.1,628.6 159.0,626.8 156.0,624.8 C 153.1,622.8 150.2,620.8 147.4,618.6 C 144.7,616.4 142.0,614.1 139.4,611.6 C 136.8,609.2 134.4,606.7 132.0,604.0 C 129.7,601.4 127.5,598.7 125.4,595.8 C 123.3,593.0 121.4,590.0 119.5,587.0 C 117.7,584.0 116.0,580.9 114.4,577.7 C 112.8,574.6 111.4,571.3 110.1,568.1 C 108.7,564.8 107.5,561.4 106.4,558.1 C 105.2,554.7 104.2,551.3 103.3,547.9 C 102.3,544.5 101.5,541.1 100.7,537.7 C 99.9,534.3 99.1,530.8 98.4,527.4 C 97.7,524.0 97.1,520.6 96.5,517.2 C 95.8,513.8 95.2,510.4 94.6,507.1 C 94.0,503.7 93.5,500.4 92.9,497.0 C 92.3,493.7 91.7,490.4 91.1,487.1 C 90.5,483.9 89.9,480.6 89.2,477.4 C 88.6,474.1 88.0,470.9 87.3,467.7 C 86.6,464.4 85.9,461.2 85.2,458.0 C 84.6,454.8 83.8,451.6 83.1,448.4 C 82.4,445.2 81.6,442.0 80.9,438.8 C 80.2,435.6 79.4,432.3 78.7,429.1 C 77.9,425.9 77.2,422.6 76.5,419.4 C 75.7,416.1 75.0,412.9 74.3,409.6 C 73.6,406.3 72.9,403.0 72.2,399.7 C 71.5,396.3 70.8,393.0 70.1,389.6 C 69.5,386.3 68.9,382.9 68.2,379.5 C 67.6,376.1 67.0,372.6 66.5,369.2 C 65.9,365.7 65.3,362.3 64.8,358.8 C 64.3,355.3 63.8,351.7 63.3,348.2 C 62.9,344.7 62.4,341.1 62.0,337.5 C 61.6,333.9 61.3,330.3 61.0,326.6 C 60.7,323.0 60.4,319.3 60.2,315.6 C 60.0,311.9 59.8,308.2 59.8,304.5 C 59.7,300.8 59.7,297.1 59.8,293.3 C 59.9,289.6 60.0,285.8 60.3,282.1 C 60.6,278.4 60.9,274.6 61.4,270.9 C 61.9,267.1 62.4,263.4 63.1,259.7 C 63.8,256.0 64.6,252.3 65.5,248.7 C 66.5,245.0 67.5,241.4 68.7,237.9 C 69.9,234.3 71.2,230.7 72.6,227.3 C 74.0,223.8 75.5,220.3 77.2,217.0 C 78.8,213.6 80.6,210.3 82.4,207.0 C 84.3,203.7 86.2,200.5 88.2,197.3 C 90.3,194.2 92.4,191.1 94.6,188.0 C 96.8,185.0 99.0,182.0 101.3,179.0 C 103.6,176.1 106.0,173.1 108.4,170.3 C 110.8,167.4 113.3,164.5 115.7,161.7 C 118.2,158.9 120.7,156.1 123.2,153.4 C 125.8,150.6 128.3,147.9 130.9,145.1 C 133.4,142.4 136.0,139.7 138.6,137.0 C 141.2,134.3 143.8,131.6 146.4,128.9 C 149.0,126.2 151.7,123.6 154.3,120.9 C 157.0,118.3 159.7,115.6 162.4,113.0 C 165.1,110.4 167.8,107.8 170.6,105.2 C 173.4,102.6 176.2,100.1 179.1,97.6 C 181.9,95.1 184.8,92.6 187.8,90.2 C 190.7,87.8 193.7,85.4 196.7,83.1 C 199.8,80.9 202.9,78.6 206.0,76.5 C 209.2,74.3 212.4,72.2 215.6,70.2 C 218.9,68.2 222.2,66.2 225.5,64.4 C 228.9,62.5 232.3,60.8 235.7,59.1 C 239.1,57.4 242.6,55.8 246.1,54.3 C 249.6,52.8 253.2,51.4 256.8,50.0 C 260.3,48.7 264.0,47.4 267.6,46.2 C 271.2,45.0 274.9,43.9 278.6,42.9 C 282.3,41.9 286.0,41.0 289.7,40.1 C 293.4,39.2 297.1,38.4 300.9,37.7 C 304.6,37.0 308.4,36.4 312.1,35.8 C 315.9,35.3 319.7,34.8 323.5,34.4 C 327.2,34.0 331.0,33.7 334.8,33.5 C 338.6,33.3 342.4,33.1 346.2,33.1 C 350.0,33.1 353.8,33.2 357.6,33.4 C 361.3,33.6 365.1,33.9 368.9,34.3 C 372.6,34.8 376.4,35.3 380.1,36.0 C 383.8,36.7 387.6,37.5 391.2,38.4 C 394.9,39.4 398.6,40.4 402.2,41.6 C 405.8,42.9 409.3,44.2 412.9,45.7 C 416.4,47.2 419.9,48.8 423.3,50.5 C 426.7,52.2 430.1,54.1 433.4,56.1 C 436.7,58.1 439.9,60.2 443.1,62.3 C 446.2,64.5 449.3,66.8 452.4,69.2 C 455.4,71.6 458.3,74.0 461.2,76.6 C 464.1,79.1 466.9,81.7 469.6,84.3 C 472.3,87.0 475.0,89.7 477.6,92.4 C 480.2,95.1 482.7,97.9 485.1,100.6 C 487.6,103.4 489.9,106.2 492.3,109.0 C 494.6,111.8 496.8,114.6 499.0,117.4 C 501.2,120.2 503.3,123.0 505.4,125.8 C 507.5,128.6 509.5,131.4 511.4,134.2 C 513.4,137.0 515.3,139.8 517.1,142.5 C 519.0,145.3 520.8,148.0 522.6,150.7 C 524.3,153.4 526.1,156.1 527.7,158.8 C 529.4,161.5 531.1,164.1 532.7,166.8 C 534.3,169.4 535.8,172.0 537.4,174.5 C 538.9,177.1 540.5,179.6 542.0,182.1 C 543.5,184.6 545.0,187.1 546.5,189.5 C 548.0,191.9 549.5,194.2 551.0,196.5 C 552.5,198.8 554.0,201.1 555.5,203.3 C 557.1,205.4 558.7,207.6 560.3,209.6 C 561.9,211.6 563.6,213.6 565.3,215.5 C 567.1,217.4 568.9,219.3 570.7,221.0 C 572.6,222.8 574.6,224.5 576.7,226.2 C 578.7,227.8 580.9,229.4 583.1,230.9 C 585.4,232.4 587.7,233.9 590.2,235.3 C 592.7,236.7 595.3,238.1 597.9,239.4 C 600.6,240.8 603.4,242.1 606.3,243.5 C 609.2,244.8 612.2,246.1 615.2,247.5 C 618.3,248.8 621.5,250.2 624.7,251.5 C 627.9,252.9 631.2,254.4 634.6,255.8 C 637.9,257.3 641.3,258.9 644.7,260.5 C 648.1,262.1 651.6,263.7 655.0,265.5 C 658.4,267.3 661.9,269.1 665.3,271.0 C 668.7,273.0 672.1,275.0 675.4,277.1 C 678.7,279.2 682.0,281.5 685.3,283.8 C 688.5,286.1 691.7,288.5 694.7,291.0 C 697.8,293.5 700.8,296.1 703.7,298.8 C 706.6,301.5 709.5,304.3 712.2,307.2 C 714.9,310.1 717.6,313.1 720.1,316.1 C 722.6,319.2 725.1,322.3 727.4,325.5 C 729.7,328.7 731.9,332.0 734.0,335.3 C 736.2,338.7 738.2,342.1 740.1,345.6 C 742.0,349.0 743.8,352.6 745.5,356.1 C 747.2,359.7 748.8,363.4 750.3,367.0 C 751.7,370.7 753.1,374.4 754.4,378.2 C 755.7,382.0 756.8,385.8 757.9,389.6 Z"/>
  </g>
</svg>