<svg xmlns="http://www.w3.org/2000/svg" viewBox="0 0 800 800" fill="none">
  <g stroke="#E6EDF3" stroke-width="1.25" fill="none" opacity="0.08">
    <path d="M 475.4,398.1 C 475.4,398.8 475.4,399.6 475.4,400.4 C 475.3,401.2 475.2,402.0 475.1,402.7 C 475.0,403.5 474.9,404.3 474.7,405.0 C 474.6,405.8 474.4,406.5 474.1,407.3 C 473.9,408.0 473.6,408.8 473.3,409.5 C 473.0,410.2 472.7,411.0 472.4,411.7 C 472.0,412.4 471.7,413.1 471.3,413.7 C 470.9,414.4 470.5,415.1 470.1,415.8 C 469.7,416.4 469.2,417.1 468.8,417.7 C 468.3,418.4 467.9,419.0 467.4,419.6 C 467.0,420.2 466.5,420.8 466.0,421.4 C 465.6,422.0 465.1,422.6 464.6,423.2 C 464.2,423.8 463.7,424.4 463.3,424.9 C 462.8,425.5 462.3,426.1 461.9,426.6 C 461.4,427.2 461.0,427.8 460.5,428.3 C 460.1,428.9 459.7,429.4 459.2,430.0 C 458.8,430.5 458.4,431.1 457.9,431.7 C 457.5,432.2 457.1,432.8 456.7,433.3 C 456.3,433.9 455.9,434.4 455.5,435.0 C 455.0,435.5 454.6,436.1 454.3,436.7 C 453.9,437.2 453.5,437.8 453.1,438.4 C 452.7,438.9 452.3,439.5 451.9,440.1 C 451.6,440.7 451.2,441.3 450.8,441.9 C 450.5,442.5 450.1,443.1 449.8,443.7 C 449.4,444.4 449.1,445.0 448.7,445.7 C 448.4,446.3 448.1,447.0 447.7,447.7 C 447.4,448.4 447.1,449.1 446.7,449.8 C 446.4,450.5 446.1,451.3 445.8,452.0 C 445.5,452.8 445.1,453.6 444.8,454.4 C 444.5,455.2 444.2,456.0 443.8,456.8 C 443.5,457.6 443.1,458.5 442.8,459.3 C 442.4,460.2 442.1,461.1 441.7,462.0 C 441.3,462.8 440.9,463.7 440.5,464.6 C 440.1,465.5 439.6,466.4 439.2,467.3 C 438.7,468.1 438.3,469.0 437.7,469.9 C 437.2,470.7 436.7,471.6 436.1,472.4 C 435.6,473.3 435.0,474.1 434.4,474.9 C 433.8,475.6 433.1,476.4 432.5,477.1 C 431.8,477.9 431.1,478.6 430.4,479.2 C 429.6,479.9 428.9,480.5 428.1,481.1 C 427.4,481.7 426.6,482.2 425.7,482.7 C 424.9,483.2 424.1,483.7 423.2,484.1 C 422.4,484.5 421.5,484.9 420.6,485.3 C 419.8,485.6 418.9,485.9 418.0,486.2 C 417.1,486.5 416.1,486.7 415.2,486.9 C 414.3,487.1 413.4,487.3 412.4,487.5 C 411.5,487.6 410.6,487.7 409.6,487.8 C 408.7,487.9 407.8,488.0 406.8,488.0 C 405.9,488.0 404.9,488.1 404.0,488.1 C 403.0,488.0 402.1,488.0 401.2,488.0 C 400.2,487.9 399.3,487.9 398.3,487.8 C 397.4,487.7 396.5,487.6 395.5,487.4 C 394.6,487.3 393.7,487.2 392.7,487.0 C 391.8,486.8 390.9,486.6 390.0,486.4 C 389.1,486.2 388.2,486.0 387.3,485.7 C 386.4,485.5 385.5,485.2 384.6,484.9 C 383.7,484.6 382.8,484.3 381.9,484.0 C 381.1,483.7 380.2,483.3 379.4,482.9 C 378.5,482.6 377.7,482.2 376.8,481.8 C 376.0,481.4 375.2,480.9 374.4,480.5 C 373.6,480.1 372.8,479.6 372.0,479.1 C 371.2,478.7 370.4,478.2 369.6,477.7 C 368.8,477.2 368.1,476.7 367.3,476.2 C 366.6,475.7 365.9,475.2 365.1,474.6 C 364.4,474.1 363.7,473.6 363.0,473.0 C 362.3,472.5 361.6,471.9 360.9,471.3 C 360.2,470.8 359.5,470.2 358.9,469.6 C 358.2,469.0 357.5,468.4 356.9,467.8 C 356.3,467.2 355.7,466.5 355.1,465.9 C 354.5,465.2 353.9,464.6 353.3,463.9 C 352.8,463.2 352.2,462.5 351.7,461.8 C 351.2,461.1 350.7,460.4 350.2,459.7 C 349.7,458.9 349.3,458.1 348.9,457.4 C 348.5,456.6 348.1,455.8 347.7,455.0 C 347.4,454.1 347.1,453.3 346.8,452.5 C 346.5,451.6 346.2,450.7 346.0,449.9 C 345.8,449.0 345.6,448.1 345.4,447.2 C 345.3,446.3 345.1,445.4 345.0,444.5 C 344.9,443.6 344.9,442.7 344.8,441.8 C 344.8,440.9 344.8,439.9 344.8,439.0 C 344.8,438.1 344.8,437.2 344.8,436.3 C 344.9,435.4 344.9,434.6 345.0,433.7 C 345.1,432.8 345.2,432.0 345.3,431.1 C 345.4,430.3 345.5,429.4 345.6,428.6 C 345.7,427.8 345.8,427.0 345.9,426.2 C 346.0,425.4 346.2,424.7 346.3,423.9 C 346.4,423.1 346.5,422.4 346.6,421.7 C 346.7,420.9 346.8,420.2 346.9,419.5 C 347.1,418.8 347.2,418.1 347.3,417.5 C 347.4,416.8 347.5,416.1 347.6,415.5 C 347.7,414.8 347.8,414.2 347.8,413.6 C 347.9,412.9 348.0,412.3 348.1,411.7 C 348.2,411.1 348.3,410.5 348.3,409.9 C 348.4,409.3 348.5,408.7 348.5,408.1 C 348.6,407.5 348.7,406.9 348.7,406.4 C 348.7,405.8 348.8,405.2 348.8,404.7 C 348.8,404.1 348.8,403.6 348.8,403.0 C 348.8,402.5 348.8,401.9 348.8,401.4 C 348.7,400.8 348.7,400.3 348.6,399.7 C 348.5,399.2 348.4,398.6 348.2,398.1 C 348.1,397.5 348.0,397.0 347.8,396.4 C 347.6,395.8 347.4,395.3 347.2,394.7 C 346.9,394.1 346.7,393.5 346.4,392.9 C 346.1,392.3 345.8,391.7 345.5,391.0 C 345.2,390.4 344.8,389.8 344.4,389.1 C 344.1,388.4 343.7,387.7 343.3,387.0 C 342.9,386.3 342.5,385.6 342.1,384.9 C 341.6,384.1 341.2,383.4 340.8,382.6 C 340.4,381.8 339.9,381.0 339.5,380.2 C 339.1,379.3 338.7,378.5 338.3,377.6 C 337.9,376.8 337.5,375.9 337.1,375.0 C 336.7,374.1 336.4,373.2 336.0,372.3 C 335.7,371.4 335.4,370.4 335.1,369.5 C 334.8,368.5 334.5,367.6 334.3,366.6 C 334.0,365.6 333.8,364.6 333.6,363.7 C 333.4,362.7 333.2,361.7 333.1,360.7 C 333.0,359.7 332.9,358.7 332.8,357.7 C 332.7,356.6 332.7,355.6 332.7,354.6 C 332.7,353.6 332.7,352.6 332.7,351.6 C 332.8,350.6 332.9,349.6 333.0,348.6 C 333.1,347.6 333.3,346.6 333.5,345.6 C 333.7,344.6 333.9,343.6 334.2,342.6 C 334.4,341.7 334.7,340.7 335.1,339.8 C 335.4,338.9 335.8,337.9 336.2,337.0 C 336.6,336.2 337.0,335.3 337.5,334.4 C 338.0,333.6 338.5,332.8 339.1,332.0 C 339.6,331.2 340.2,330.4 340.9,329.7 C 341.5,329.0 342.2,328.3 342.9,327.6 C 343.6,327.0 344.3,326.3 345.1,325.8 C 345.8,325.2 346.6,324.6 347.4,324.1 C 348.2,323.6 349.1,323.1 349.9,322.7 C 350.8,322.3 351.7,321.9 352.6,321.5 C 353.5,321.1 354.4,320.8 355.3,320.5 C 356.2,320.2 357.1,319.9 358.1,319.7 C 359.0,319.4 359.9,319.2 360.9,319.0 C 361.8,318.8 362.7,318.6 363.7,318.4 C 364.6,318.3 365.6,318.1 366.5,318.0 C 367.4,317.8 368.3,317.7 369.3,317.5 C 370.2,317.4 371.1,317.3 372.0,317.1 C 372.9,317.0 373.8,316.9 374.7,316.7 C 375.6,316.6 376.5,316.5 377.4,316.4 C 378.3,316.3 379.2,316.1 380.1,316.0 C 381.0,315.9 381.9,315.8 382.7,315.7 C 383.6,315.6 384.5,315.4 385.4,315.3 C 386.3,315.2 387.1,315.2 388.0,315.1 C 388.9,315.0 389.8,314.9 390.6,314.9 C 391.5,314.8 392.4,314.8 393.3,314.8 C 394.2,314.7 395.0,314.7 395.9,314.7 C 396.8,314.8 397.7,314.8 398.5,314.9 C 399.4,314.9 400.3,315.0 401.2,315.1 C 402.0,315.2 402.9,315.3 403.7,315.5 C 404.6,315.6 405.5,315.8 406.3,316.0 C 407.2,316.2 408.0,316.4 408.8,316.7 C 409.7,316.9 410.5,317.2 411.3,317.4 C 412.2,317.7 413.0,318.0 413.8,318.3 C 414.6,318.6 415.4,319.0 416.2,319.3 C 417.0,319.7 417.7,320.1 418.5,320.4 C 419.3,320.8 420.0,321.2 420.8,321.6 C 421.5,322.1 422.3,322.5 423.0,322.9 C 423.7,323.4 424.4,323.8 425.1,324.3 C 425.8,324.8 426.5,325.3 427.2,325.8 C 427.8,326.3 428.5,326.8 429.1,327.4 C 429.8,327.9 430.4,328.5 431.0,329.1 C 431.6,329.6 432.2,330.2 432.8,330.8 C 433.4,331.4 433.9,332.0 434.5,332.6 C 435.0,333.3 435.6,333.9 436.1,334.5 C 436.6,335.2 437.1,335.8 437.6,336.5 C 438.1,337.2 438.5,337.8 439.0,338.5 C 439.4,339.1 439.9,339.8 440.3,340.5 C 440.7,341.1 441.1,341.8 441.6,342.5 C 442.0,343.1 442.4,343.8 442.8,344.4 C 443.2,345.0 443.6,345.7 444.0,346.3 C 444.4,346.9 444.8,347.5 445.2,348.1 C 445.6,348.7 446.0,349.3 446.4,349.9 C 446.8,350.4 447.2,351.0 447.7,351.5 C 448.1,352.1 448.5,352.6 449.0,353.1 C 449.4,353.7 449.9,354.2 450.4,354.7 C 450.8,355.2 451.3,355.7 451.8,356.2 C 452.3,356.7 452.8,357.2 453.3,357.6 C 453.8,358.1 454.3,358.6 454.8,359.1 C 455.3,359.6 455.8,360.1 456.3,360.6 C 456.8,361.1 457.4,361.6 457.9,362.1 C 458.4,362.6 458.9,363.1 459.4,363.6 C 459.9,364.1 460.4,364.7 460.9,365.2 C 461.4,365.8 461.9,366.3 462.3,366.9 C 462.8,367.5 463.3,368.0 463.7,368.6 C 464.2,369.2 464.6,369.8 465.0,370.4 C 465.5,371.0 465.9,371.7 466.3,372.3 C 466.7,372.9 467.1,373.6 467.4,374.2 C 467.8,374.9 468.2,375.5 468.6,376.2 C 468.9,376.8 469.3,377.5 469.6,378.2 C 469.9,378.9 470.3,379.6 470.6,380.2 C 470.9,380.9 471.2,381.6 471.5,382.3 C 471.8,383.1 472.1,383.8 472.4,384.5 C 472.6,385.2 472.9,385.9 473.1,386.7 C 473.4,387.4 473.6,388.1 473.8,388.9 C 474.1,389.6 474.3,390.4 474.4,391.1 C 474.6,391.9 474.8,392.7 474.9,393.4 C 475.0,394.2 475.1,395.0 475.2,395.7 C 475.3,396.5 475.4,397.3 475.4,398.1 Z"/>
    <path d="M 519.2,400.8 C 519.0,402.1 518.7,403.3 518.4,404.5 C 518.2,405.8 517.8,407.0 517.5,408.2 C 517.1,409.4 516.7,410.6 516.3,411.8 C 515.9,413.0 515.4,414.2 515.0,415.3 C 514.5,416.5 514.0,417.7 513.5,418.8 C 513.0,419.9 512.5,421.1 511.9,422.2 C 511.4,423.3 510.8,424.4 510.3,425.5 C 509.7,426.6 509.1,427.6 508.5,428.7 C 507.9,429.8 507.3,430.8 506.7,431.8 C 506.1,432.9 505.4,433.9 504.8,434.9 C 504.2,435.9 503.5,436.9 502.8,437.9 C 502.2,438.9 501.5,439.8 500.8,440.8 C 500.1,441.7 499.5,442.7 498.8,443.6 C 498.1,444.5 497.4,445.5 496.7,446.4 C 496.0,447.3 495.3,448.2 494.6,449.1 C 493.9,450.0 493.2,450.9 492.5,451.8 C 491.8,452.6 491.1,453.5 490.5,454.4 C 489.8,455.3 489.2,456.2 488.5,457.1 C 487.9,458.0 487.3,458.9 486.6,459.8 C 486.0,460.7 485.4,461.6 484.9,462.6 C 484.3,463.5 483.7,464.5 483.2,465.5 C 482.6,466.4 482.1,467.4 481.6,468.4 C 481.1,469.5 480.6,470.5 480.1,471.5 C 479.6,472.6 479.1,473.7 478.6,474.8 C 478.1,475.9 477.7,477.0 477.2,478.2 C 476.7,479.3 476.2,480.5 475.7,481.6 C 475.3,482.8 474.8,484.0 474.3,485.2 C 473.7,486.4 473.2,487.6 472.7,488.9 C 472.1,490.1 471.6,491.3 471.0,492.6 C 470.4,493.8 469.8,495.0 469.2,496.3 C 468.6,497.5 467.9,498.7 467.2,500.0 C 466.5,501.2 465.8,502.4 465.1,503.6 C 464.4,504.9 463.6,506.1 462.8,507.3 C 462.0,508.5 461.2,509.7 460.3,510.8 C 459.5,512.0 458.6,513.2 457.7,514.3 C 456.8,515.5 455.8,516.6 454.9,517.8 C 453.9,518.9 452.9,520.0 451.9,521.1 C 450.9,522.2 449.8,523.3 448.8,524.4 C 447.7,525.5 446.6,526.5 445.5,527.6 C 444.4,528.6 443.2,529.6 442.0,530.6 C 440.8,531.6 439.6,532.6 438.4,533.6 C 437.2,534.5 435.9,535.4 434.6,536.3 C 433.3,537.2 432.0,538.0 430.7,538.8 C 429.4,539.6 428.0,540.4 426.6,541.1 C 425.2,541.8 423.8,542.5 422.4,543.1 C 420.9,543.7 419.5,544.3 418.0,544.7 C 416.6,545.2 415.1,545.6 413.6,546.0 C 412.1,546.4 410.5,546.6 409.0,546.9 C 407.5,547.1 406.0,547.2 404.4,547.3 C 402.9,547.4 401.4,547.4 399.8,547.3 C 398.3,547.3 396.8,547.1 395.2,546.9 C 393.7,546.8 392.2,546.5 390.7,546.2 C 389.2,545.9 387.7,545.5 386.2,545.1 C 384.7,544.7 383.2,544.2 381.8,543.7 C 380.3,543.2 378.9,542.7 377.5,542.1 C 376.0,541.5 374.6,540.9 373.2,540.3 C 371.8,539.7 370.5,539.0 369.1,538.3 C 367.7,537.7 366.4,537.0 365.1,536.3 C 363.7,535.6 362.4,534.9 361.1,534.1 C 359.8,533.4 358.5,532.7 357.2,532.0 C 355.9,531.2 354.7,530.5 353.4,529.7 C 352.2,528.9 350.9,528.2 349.7,527.4 C 348.5,526.6 347.3,525.8 346.1,525.0 C 344.9,524.2 343.7,523.4 342.5,522.6 C 341.4,521.7 340.2,520.9 339.1,520.0 C 338.0,519.1 336.9,518.2 335.8,517.3 C 334.7,516.4 333.6,515.5 332.6,514.5 C 331.6,513.5 330.5,512.6 329.6,511.5 C 328.6,510.5 327.6,509.5 326.7,508.4 C 325.8,507.4 324.9,506.3 324.0,505.2 C 323.1,504.1 322.3,503.0 321.5,501.8 C 320.7,500.7 319.9,499.5 319.2,498.3 C 318.4,497.1 317.7,495.9 317.1,494.7 C 316.4,493.5 315.7,492.2 315.1,491.0 C 314.5,489.7 314.0,488.5 313.4,487.2 C 312.9,485.9 312.4,484.6 311.9,483.4 C 311.5,482.1 311.0,480.8 310.6,479.4 C 310.2,478.1 309.9,476.8 309.6,475.5 C 309.2,474.2 309.0,472.8 308.7,471.5 C 308.5,470.1 308.3,468.8 308.1,467.4 C 308.0,466.1 307.9,464.7 307.8,463.4 C 307.7,462.0 307.7,460.6 307.7,459.3 C 307.8,457.9 307.8,456.5 307.9,455.2 C 308.0,453.8 308.2,452.4 308.4,451.1 C 308.6,449.7 308.8,448.4 309.1,447.0 C 309.4,445.7 309.7,444.4 310.0,443.1 C 310.4,441.8 310.7,440.5 311.1,439.2 C 311.5,437.9 311.9,436.7 312.4,435.4 C 312.8,434.2 313.2,433.0 313.7,431.8 C 314.1,430.7 314.5,429.5 314.9,428.4 C 315.4,427.3 315.8,426.2 316.2,425.1 C 316.5,424.0 316.9,423.0 317.2,422.0 C 317.6,421.0 317.9,420.0 318.1,419.1 C 318.3,418.1 318.5,417.2 318.7,416.3 C 318.8,415.4 319.0,414.5 319.0,413.6 C 319.0,412.7 319.0,411.9 319.0,411.0 C 318.9,410.2 318.8,409.3 318.6,408.5 C 318.5,407.6 318.2,406.8 318.0,406.0 C 317.7,405.1 317.4,404.3 317.0,403.4 C 316.6,402.5 316.2,401.7 315.8,400.8 C 315.3,399.9 314.8,399.0 314.3,398.1 C 313.8,397.2 313.3,396.3 312.7,395.3 C 312.1,394.4 311.6,393.4 311.0,392.4 C 310.4,391.4 309.8,390.4 309.1,389.3 C 308.5,388.3 307.9,387.2 307.3,386.1 C 306.6,385.0 306.0,383.9 305.4,382.8 C 304.7,381.6 304.1,380.5 303.5,379.3 C 302.9,378.1 302.3,376.8 301.7,375.6 C 301.1,374.3 300.5,373.1 299.9,371.8 C 299.3,370.5 298.7,369.1 298.2,367.8 C 297.6,366.4 297.1,365.0 296.6,363.6 C 296.0,362.2 295.5,360.8 295.0,359.3 C 294.6,357.9 294.1,356.4 293.7,354.9 C 293.3,353.4 292.9,351.8 292.5,350.3 C 292.1,348.7 291.8,347.2 291.5,345.6 C 291.2,344.0 291.0,342.4 290.7,340.8 C 290.5,339.2 290.4,337.6 290.3,336.0 C 290.2,334.4 290.1,332.8 290.1,331.2 C 290.1,329.6 290.2,328.0 290.3,326.4 C 290.4,324.8 290.6,323.2 290.9,321.6 C 291.1,320.1 291.4,318.5 291.8,317.0 C 292.2,315.5 292.6,314.0 293.1,312.5 C 293.6,311.1 294.2,309.6 294.8,308.2 C 295.4,306.8 296.1,305.4 296.9,304.1 C 297.6,302.8 298.4,301.5 299.2,300.2 C 300.1,298.9 301.0,297.7 301.9,296.5 C 302.8,295.3 303.8,294.2 304.9,293.1 C 305.9,292.0 306.9,290.9 308.0,289.8 C 309.1,288.8 310.3,287.8 311.4,286.8 C 312.6,285.8 313.7,284.9 315.0,284.0 C 316.2,283.1 317.4,282.2 318.7,281.4 C 319.9,280.5 321.2,279.7 322.5,278.9 C 323.8,278.2 325.1,277.4 326.5,276.7 C 327.8,276.0 329.1,275.4 330.5,274.7 C 331.9,274.1 333.3,273.5 334.7,272.9 C 336.1,272.4 337.5,271.9 338.9,271.4 C 340.4,270.9 341.8,270.5 343.3,270.1 C 344.7,269.7 346.2,269.3 347.7,269.0 C 349.1,268.7 350.6,268.5 352.1,268.3 C 353.6,268.0 355.1,267.9 356.6,267.7 C 358.1,267.6 359.6,267.5 361.1,267.4 C 362.6,267.4 364.1,267.3 365.6,267.4 C 367.1,267.4 368.6,267.4 370.0,267.5 C 371.5,267.5 373.0,267.6 374.5,267.7 C 375.9,267.9 377.4,268.0 378.8,268.1 C 380.3,268.3 381.7,268.4 383.1,268.6 C 384.6,268.8 386.0,268.9 387.4,269.1 C 388.8,269.3 390.2,269.5 391.6,269.6 C 393.0,269.8 394.4,270.0 395.7,270.2 C 397.1,270.4 398.5,270.6 399.8,270.7 C 401.2,270.9 402.6,271.1 403.9,271.3 C 405.3,271.5 406.6,271.7 407.9,271.9 C 409.3,272.1 410.6,272.3 412.0,272.6 C 413.3,272.8 414.6,273.0 415.9,273.3 C 417.3,273.6 418.6,273.9 419.9,274.2 C 421.2,274.6 422.5,274.9 423.8,275.3 C 425.1,275.7 426.3,276.2 427.6,276.7 C 428.8,277.1 430.1,277.6 431.3,278.2 C 432.5,278.8 433.7,279.4 434.9,280.0 C 436.1,280.7 437.3,281.3 438.4,282.1 C 439.6,282.8 440.7,283.6 441.8,284.4 C 442.8,285.2 443.9,286.0 444.9,286.9 C 446.0,287.8 447.0,288.7 448.0,289.6 C 448.9,290.5 449.9,291.5 450.8,292.4 C 451.8,293.4 452.7,294.4 453.5,295.4 C 454.4,296.4 455.3,297.4 456.1,298.5 C 456.9,299.5 457.7,300.5 458.5,301.6 C 459.3,302.6 460.1,303.6 460.8,304.7 C 461.6,305.7 462.3,306.7 463.1,307.8 C 463.8,308.8 464.5,309.8 465.2,310.9 C 465.9,311.9 466.6,312.9 467.2,313.9 C 467.9,314.9 468.6,315.9 469.2,316.9 C 469.9,317.9 470.5,318.9 471.2,319.9 C 471.8,320.9 472.4,321.9 473.0,322.8 C 473.7,323.8 474.3,324.8 474.9,325.7 C 475.5,326.7 476.1,327.7 476.7,328.6 C 477.3,329.5 477.9,330.5 478.5,331.4 C 479.2,332.3 479.8,333.3 480.4,334.2 C 481.0,335.1 481.6,336.0 482.2,336.9 C 482.9,337.8 483.5,338.7 484.2,339.5 C 484.8,340.4 485.5,341.3 486.2,342.1 C 486.9,343.0 487.6,343.8 488.3,344.7 C 489.0,345.5 489.8,346.3 490.5,347.2 C 491.3,348.0 492.1,348.8 492.9,349.6 C 493.7,350.5 494.5,351.3 495.4,352.1 C 496.2,353.0 497.1,353.8 498.0,354.6 C 498.8,355.5 499.7,356.3 500.6,357.2 C 501.5,358.1 502.4,358.9 503.3,359.8 C 504.2,360.7 505.1,361.7 506.0,362.6 C 506.8,363.5 507.7,364.5 508.5,365.5 C 509.4,366.5 510.2,367.5 511.0,368.5 C 511.7,369.6 512.5,370.6 513.2,371.7 C 513.9,372.8 514.6,373.9 515.2,375.0 C 515.8,376.2 516.3,377.3 516.8,378.5 C 517.3,379.7 517.7,380.9 518.1,382.1 C 518.5,383.3 518.8,384.5 519.1,385.7 C 519.3,387.0 519.5,388.2 519.6,389.5 C 519.7,390.7 519.8,392.0 519.8,393.3 C 519.8,394.5 519.8,395.8 519.7,397.0 C 519.5,398.3 519.4,399.6 519.2,400.8 Z"/>
    <path d="M 565.1,393.1 C 564.9,394.9 564.8,396.6 564.5,398.3 C 564.3,400.0 564.0,401.7 563.6,403.4 C 563.2,405.0 562.7,406.7 562.2,408.4 C 561.7,410.0 561.1,411.6 560.5,413.3 C 559.8,414.9 559.1,416.5 558.4,418.0 C 557.7,419.6 556.9,421.2 556.1,422.7 C 555.2,424.2 554.4,425.7 553.5,427.2 C 552.6,428.7 551.7,430.1 550.8,431.6 C 549.9,433.0 549.0,434.4 548.1,435.8 C 547.1,437.2 546.2,438.6 545.3,439.9 C 544.3,441.3 543.4,442.7 542.5,444.0 C 541.6,445.3 540.7,446.7 539.8,448.0 C 538.9,449.3 538.0,450.6 537.1,451.9 C 536.2,453.2 535.3,454.5 534.5,455.8 C 533.6,457.1 532.8,458.4 531.9,459.7 C 531.1,461.0 530.2,462.3 529.4,463.6 C 528.6,464.9 527.7,466.2 526.9,467.5 C 526.1,468.8 525.3,470.0 524.4,471.3 C 523.6,472.6 522.8,473.9 521.9,475.2 C 521.1,476.5 520.3,477.7 519.4,479.0 C 518.6,480.3 517.8,481.6 516.9,482.9 C 516.1,484.2 515.3,485.5 514.4,486.8 C 513.6,488.1 512.7,489.4 511.9,490.7 C 511.1,492.0 510.2,493.4 509.4,494.7 C 508.6,496.1 507.8,497.5 507.0,498.9 C 506.1,500.3 505.3,501.7 504.5,503.1 C 503.7,504.6 502.9,506.1 502.1,507.6 C 501.3,509.1 500.6,510.7 499.8,512.3 C 499.0,513.8 498.2,515.5 497.4,517.1 C 496.6,518.8 495.8,520.5 495.0,522.2 C 494.2,523.9 493.4,525.7 492.5,527.5 C 491.7,529.3 490.8,531.1 489.9,532.9 C 489.1,534.8 488.1,536.6 487.2,538.5 C 486.2,540.3 485.2,542.2 484.2,544.1 C 483.2,545.9 482.1,547.8 481.0,549.6 C 479.8,551.5 478.7,553.3 477.4,555.1 C 476.2,556.9 474.9,558.7 473.6,560.4 C 472.3,562.1 470.9,563.8 469.4,565.4 C 468.0,567.0 466.5,568.5 464.9,570.0 C 463.4,571.5 461.7,573.0 460.1,574.3 C 458.4,575.7 456.7,576.9 455.0,578.2 C 453.2,579.4 451.4,580.5 449.6,581.6 C 447.8,582.6 445.9,583.6 444.0,584.5 C 442.1,585.4 440.2,586.2 438.2,587.0 C 436.2,587.7 434.3,588.4 432.3,589.0 C 430.2,589.6 428.2,590.1 426.2,590.6 C 424.1,591.1 422.1,591.5 420.0,591.8 C 417.9,592.1 415.9,592.4 413.8,592.6 C 411.7,592.8 409.6,592.9 407.5,593.0 C 405.4,593.0 403.3,593.0 401.2,593.0 C 399.1,592.9 397.0,592.8 395.0,592.6 C 392.9,592.4 390.8,592.1 388.7,591.8 C 386.7,591.5 384.6,591.1 382.6,590.7 C 380.5,590.2 378.5,589.7 376.5,589.2 C 374.5,588.6 372.5,588.0 370.5,587.3 C 368.5,586.6 366.5,585.9 364.6,585.1 C 362.7,584.3 360.8,583.5 358.9,582.6 C 357.0,581.7 355.1,580.8 353.3,579.8 C 351.5,578.9 349.7,577.8 347.9,576.8 C 346.1,575.8 344.3,574.7 342.6,573.6 C 340.9,572.5 339.2,571.4 337.5,570.3 C 335.8,569.1 334.1,568.0 332.5,566.8 C 330.8,565.7 329.2,564.5 327.6,563.3 C 326.0,562.2 324.4,561.0 322.8,559.8 C 321.2,558.6 319.7,557.4 318.1,556.2 C 316.6,555.0 315.1,553.9 313.5,552.6 C 312.0,551.4 310.5,550.2 309.1,549.0 C 307.6,547.8 306.1,546.5 304.7,545.2 C 303.3,544.0 301.9,542.7 300.5,541.4 C 299.1,540.1 297.8,538.7 296.5,537.3 C 295.2,536.0 293.9,534.6 292.7,533.1 C 291.5,531.6 290.3,530.2 289.2,528.6 C 288.1,527.1 287.0,525.5 286.0,523.9 C 285.0,522.2 284.1,520.6 283.2,518.8 C 282.3,517.1 281.6,515.3 280.8,513.5 C 280.1,511.7 279.5,509.9 278.9,508.0 C 278.4,506.1 277.9,504.2 277.5,502.3 C 277.1,500.3 276.7,498.3 276.5,496.4 C 276.2,494.4 276.0,492.4 275.9,490.4 C 275.8,488.4 275.7,486.3 275.7,484.3 C 275.7,482.3 275.8,480.3 275.9,478.3 C 276.0,476.3 276.2,474.3 276.4,472.4 C 276.6,470.4 276.9,468.4 277.1,466.5 C 277.4,464.6 277.7,462.7 278.0,460.9 C 278.4,459.0 278.7,457.2 279.1,455.4 C 279.4,453.6 279.8,451.9 280.1,450.1 C 280.5,448.4 280.9,446.7 281.3,445.1 C 281.6,443.4 282.0,441.8 282.4,440.2 C 282.7,438.6 283.1,437.1 283.4,435.6 C 283.8,434.0 284.1,432.6 284.4,431.1 C 284.8,429.6 285.1,428.2 285.4,426.8 C 285.7,425.4 286.0,424.0 286.2,422.7 C 286.5,421.3 286.7,420.0 286.9,418.7 C 287.1,417.4 287.3,416.1 287.4,414.9 C 287.6,413.6 287.7,412.3 287.8,411.1 C 287.9,409.9 287.9,408.7 287.9,407.5 C 287.9,406.3 287.8,405.1 287.7,403.9 C 287.6,402.7 287.5,401.5 287.3,400.3 C 287.1,399.1 286.8,397.9 286.5,396.8 C 286.2,395.6 285.8,394.4 285.4,393.1 C 284.9,391.9 284.4,390.7 283.9,389.5 C 283.3,388.2 282.7,386.9 282.0,385.6 C 281.4,384.3 280.6,383.0 279.9,381.7 C 279.1,380.3 278.3,378.9 277.4,377.5 C 276.6,376.1 275.7,374.6 274.8,373.1 C 273.9,371.6 273.0,370.1 272.0,368.5 C 271.1,366.9 270.2,365.3 269.2,363.6 C 268.3,362.0 267.3,360.3 266.4,358.5 C 265.5,356.8 264.6,355.0 263.7,353.2 C 262.8,351.4 262.0,349.5 261.2,347.6 C 260.4,345.8 259.6,343.8 258.9,341.9 C 258.1,339.9 257.4,338.0 256.8,336.0 C 256.2,334.0 255.6,332.0 255.1,329.9 C 254.6,327.9 254.1,325.8 253.7,323.7 C 253.3,321.7 253.0,319.6 252.7,317.5 C 252.4,315.3 252.2,313.2 252.0,311.1 C 251.8,309.0 251.7,306.8 251.6,304.7 C 251.6,302.5 251.6,300.4 251.6,298.2 C 251.7,296.1 251.8,293.9 252.0,291.7 C 252.2,289.6 252.4,287.4 252.7,285.2 C 253.0,283.1 253.4,280.9 253.8,278.8 C 254.2,276.6 254.7,274.5 255.3,272.4 C 255.8,270.3 256.5,268.2 257.2,266.1 C 257.9,264.1 258.6,262.0 259.5,260.0 C 260.3,258.1 261.3,256.1 262.3,254.2 C 263.3,252.3 264.4,250.4 265.5,248.6 C 266.7,246.8 267.9,245.1 269.2,243.4 C 270.5,241.7 271.9,240.1 273.4,238.6 C 274.8,237.1 276.4,235.6 278.0,234.2 C 279.5,232.8 281.2,231.5 282.9,230.3 C 284.7,229.1 286.4,228.0 288.3,226.9 C 290.1,225.8 292.0,224.9 293.9,224.0 C 295.8,223.1 297.7,222.2 299.7,221.5 C 301.7,220.7 303.7,220.0 305.7,219.4 C 307.7,218.8 309.8,218.2 311.8,217.7 C 313.9,217.2 316.0,216.7 318.0,216.3 C 320.1,215.9 322.2,215.5 324.2,215.2 C 326.3,214.8 328.3,214.5 330.4,214.2 C 332.4,213.9 334.5,213.7 336.5,213.5 C 338.6,213.2 340.6,213.0 342.6,212.8 C 344.7,212.6 346.7,212.4 348.7,212.2 C 350.7,212.0 352.7,211.9 354.7,211.7 C 356.6,211.6 358.6,211.5 360.6,211.4 C 362.6,211.3 364.5,211.2 366.5,211.1 C 368.5,211.0 370.4,211.0 372.4,210.9 C 374.3,210.9 376.3,210.9 378.2,210.9 C 380.2,210.9 382.1,211.0 384.0,211.1 C 386.0,211.2 387.9,211.3 389.8,211.4 C 391.7,211.5 393.6,211.7 395.5,211.9 C 397.4,212.1 399.3,212.4 401.2,212.6 C 403.1,212.9 405.0,213.2 406.9,213.6 C 408.7,213.9 410.6,214.3 412.5,214.7 C 414.3,215.1 416.2,215.5 418.0,215.9 C 419.8,216.4 421.6,216.9 423.4,217.4 C 425.2,217.9 427.0,218.4 428.8,219.0 C 430.6,219.6 432.4,220.2 434.1,220.8 C 435.9,221.4 437.6,222.1 439.3,222.8 C 441.0,223.5 442.7,224.2 444.4,225.0 C 446.1,225.7 447.8,226.5 449.4,227.4 C 451.0,228.2 452.7,229.1 454.2,230.0 C 455.8,230.9 457.4,231.9 458.9,232.9 C 460.4,233.9 461.9,235.0 463.4,236.1 C 464.9,237.2 466.3,238.4 467.7,239.6 C 469.1,240.8 470.4,242.1 471.7,243.4 C 473.0,244.7 474.3,246.0 475.5,247.4 C 476.7,248.8 477.9,250.2 479.0,251.7 C 480.1,253.2 481.2,254.7 482.2,256.2 C 483.3,257.7 484.3,259.2 485.2,260.8 C 486.2,262.3 487.1,263.9 488.0,265.5 C 488.9,267.0 489.8,268.6 490.6,270.1 C 491.5,271.7 492.3,273.2 493.1,274.7 C 493.9,276.3 494.7,277.8 495.5,279.2 C 496.3,280.7 497.1,282.1 497.9,283.5 C 498.7,284.9 499.5,286.3 500.3,287.6 C 501.1,289.0 502.0,290.3 502.8,291.5 C 503.7,292.8 504.6,294.0 505.5,295.2 C 506.4,296.4 507.4,297.6 508.3,298.7 C 509.3,299.9 510.3,301.0 511.3,302.1 C 512.4,303.2 513.4,304.2 514.5,305.3 C 515.6,306.4 516.7,307.4 517.8,308.5 C 518.9,309.5 520.1,310.5 521.2,311.6 C 522.4,312.7 523.5,313.7 524.7,314.8 C 525.9,315.9 527.1,316.9 528.2,318.0 C 529.4,319.1 530.6,320.3 531.7,321.4 C 532.9,322.5 534.0,323.7 535.2,324.9 C 536.3,326.1 537.4,327.3 538.5,328.5 C 539.6,329.8 540.7,331.0 541.8,332.3 C 542.8,333.6 543.9,334.9 544.9,336.3 C 545.9,337.6 546.9,339.0 547.8,340.4 C 548.8,341.8 549.7,343.2 550.6,344.6 C 551.5,346.0 552.4,347.5 553.2,349.0 C 554.1,350.5 554.9,352.0 555.7,353.5 C 556.4,355.0 557.2,356.6 557.9,358.1 C 558.6,359.7 559.2,361.3 559.9,362.9 C 560.5,364.5 561.0,366.1 561.6,367.8 C 562.1,369.4 562.6,371.0 563.0,372.7 C 563.4,374.4 563.8,376.1 564.1,377.8 C 564.4,379.4 564.6,381.1 564.8,382.9 C 565.0,384.6 565.1,386.3 565.1,388.0 C 565.2,389.7 565.2,391.4 565.1,393.1 Z"/>
    <path d="M 610.5,399.3 C 610.2,401.4 609.8,403.6 609.3,405.8 C 608.9,407.9 608.3,410.0 607.8,412.2 C 607.2,414.3 606.6,416.4 605.9,418.5 C 605.3,420.5 604.6,422.6 603.8,424.6 C 603.1,426.7 602.3,428.7 601.5,430.7 C 600.8,432.7 599.9,434.7 599.1,436.7 C 598.2,438.6 597.4,440.6 596.5,442.5 C 595.6,444.5 594.7,446.4 593.7,448.2 C 592.8,450.1 591.9,452.0 590.9,453.9 C 589.9,455.7 588.9,457.5 587.8,459.3 C 586.8,461.1 585.7,462.9 584.7,464.7 C 583.6,466.4 582.5,468.2 581.3,469.9 C 580.2,471.6 579.0,473.3 577.8,474.9 C 576.7,476.6 575.4,478.2 574.2,479.8 C 573.0,481.5 571.8,483.0 570.5,484.6 C 569.3,486.2 568.0,487.7 566.7,489.3 C 565.5,490.8 564.2,492.3 562.9,493.9 C 561.7,495.4 560.4,496.9 559.2,498.4 C 557.9,499.9 556.7,501.4 555.5,502.9 C 554.3,504.4 553.1,506.0 552.0,507.5 C 550.8,509.1 549.7,510.6 548.6,512.2 C 547.5,513.8 546.5,515.5 545.5,517.1 C 544.4,518.8 543.4,520.5 542.5,522.2 C 541.5,524.0 540.6,525.8 539.7,527.6 C 538.7,529.4 537.8,531.3 537.0,533.2 C 536.1,535.1 535.2,537.1 534.3,539.1 C 533.5,541.1 532.6,543.2 531.7,545.3 C 530.9,547.4 530.0,549.5 529.1,551.7 C 528.2,553.9 527.3,556.1 526.3,558.3 C 525.4,560.5 524.4,562.7 523.4,565.0 C 522.4,567.2 521.3,569.5 520.2,571.8 C 519.1,574.0 518.0,576.3 516.8,578.6 C 515.6,580.9 514.4,583.1 513.1,585.4 C 511.8,587.6 510.4,589.8 509.0,592.0 C 507.6,594.3 506.1,596.4 504.6,598.6 C 503.0,600.8 501.5,602.9 499.8,605.0 C 498.2,607.1 496.5,609.2 494.7,611.2 C 493.0,613.2 491.1,615.2 489.3,617.1 C 487.4,619.1 485.5,621.0 483.5,622.8 C 481.5,624.7 479.5,626.5 477.4,628.3 C 475.3,630.0 473.2,631.7 471.0,633.3 C 468.8,635.0 466.6,636.5 464.3,638.0 C 462.0,639.5 459.7,640.9 457.3,642.3 C 455.0,643.6 452.5,644.9 450.1,646.0 C 447.6,647.2 445.1,648.2 442.6,649.2 C 440.1,650.2 437.5,651.0 434.9,651.8 C 432.3,652.5 429.7,653.2 427.1,653.7 C 424.4,654.2 421.8,654.6 419.1,654.9 C 416.4,655.2 413.7,655.3 411.1,655.4 C 408.4,655.4 405.7,655.3 403.0,655.1 C 400.3,654.9 397.7,654.6 395.0,654.2 C 392.3,653.8 389.7,653.3 387.1,652.7 C 384.4,652.1 381.8,651.4 379.3,650.6 C 376.7,649.8 374.1,648.9 371.6,648.0 C 369.1,647.1 366.6,646.1 364.1,645.1 C 361.6,644.0 359.2,642.9 356.7,641.8 C 354.3,640.7 351.9,639.6 349.6,638.4 C 347.2,637.2 344.9,636.0 342.5,634.9 C 340.2,633.7 337.9,632.5 335.6,631.2 C 333.3,630.0 331.1,628.8 328.8,627.6 C 326.6,626.4 324.4,625.1 322.1,623.9 C 319.9,622.7 317.7,621.5 315.5,620.2 C 313.4,618.9 311.2,617.7 309.1,616.4 C 306.9,615.1 304.8,613.8 302.7,612.5 C 300.6,611.2 298.5,609.8 296.5,608.4 C 294.4,607.0 292.4,605.6 290.4,604.1 C 288.4,602.6 286.5,601.1 284.6,599.5 C 282.7,597.9 280.9,596.3 279.1,594.6 C 277.3,592.9 275.5,591.1 273.9,589.3 C 272.2,587.5 270.6,585.6 269.0,583.7 C 267.5,581.8 266.0,579.8 264.6,577.8 C 263.2,575.7 261.8,573.6 260.5,571.5 C 259.3,569.4 258.1,567.2 256.9,565.0 C 255.8,562.7 254.8,560.5 253.8,558.2 C 252.8,555.9 251.9,553.6 251.1,551.2 C 250.2,548.9 249.5,546.5 248.8,544.1 C 248.1,541.7 247.5,539.3 246.9,536.9 C 246.4,534.5 245.9,532.0 245.5,529.6 C 245.0,527.2 244.7,524.7 244.4,522.3 C 244.1,519.9 243.9,517.4 243.7,515.0 C 243.6,512.6 243.5,510.1 243.5,507.7 C 243.4,505.3 243.5,502.9 243.6,500.5 C 243.6,498.1 243.8,495.7 244.0,493.3 C 244.2,490.9 244.5,488.6 244.8,486.2 C 245.2,483.9 245.5,481.6 246.0,479.3 C 246.4,477.0 246.9,474.7 247.4,472.5 C 247.9,470.3 248.5,468.1 249.0,465.9 C 249.6,463.7 250.2,461.6 250.9,459.5 C 251.5,457.4 252.1,455.4 252.7,453.4 C 253.4,451.4 254.0,449.4 254.6,447.5 C 255.2,445.6 255.8,443.7 256.4,441.9 C 256.9,440.1 257.4,438.3 257.9,436.5 C 258.3,434.8 258.7,433.1 259.1,431.4 C 259.4,429.8 259.7,428.2 259.9,426.6 C 260.1,425.0 260.2,423.4 260.2,421.9 C 260.2,420.4 260.2,418.8 260.1,417.3 C 259.9,415.8 259.7,414.3 259.4,412.9 C 259.1,411.4 258.7,409.9 258.2,408.4 C 257.7,406.9 257.2,405.4 256.6,403.9 C 255.9,402.4 255.2,400.8 254.5,399.3 C 253.8,397.7 253.0,396.1 252.1,394.5 C 251.3,392.9 250.4,391.3 249.4,389.6 C 248.5,387.9 247.6,386.2 246.6,384.5 C 245.6,382.7 244.6,381.0 243.6,379.1 C 242.6,377.3 241.6,375.5 240.6,373.6 C 239.6,371.7 238.6,369.7 237.6,367.7 C 236.6,365.7 235.6,363.7 234.7,361.6 C 233.7,359.6 232.7,357.5 231.8,355.3 C 230.8,353.1 229.9,351.0 229.0,348.7 C 228.0,346.5 227.1,344.2 226.3,341.8 C 225.4,339.5 224.5,337.1 223.7,334.7 C 222.8,332.3 222.0,329.8 221.2,327.3 C 220.4,324.8 219.7,322.2 219.0,319.6 C 218.2,317.0 217.5,314.4 216.9,311.7 C 216.3,309.0 215.6,306.3 215.1,303.5 C 214.6,300.8 214.1,298.0 213.6,295.2 C 213.2,292.4 212.9,289.5 212.6,286.7 C 212.3,283.8 212.1,280.9 212.0,278.0 C 211.9,275.2 211.9,272.3 211.9,269.4 C 212.0,266.6 212.2,263.7 212.5,260.9 C 212.8,258.0 213.2,255.2 213.7,252.5 C 214.3,249.7 214.9,246.9 215.6,244.3 C 216.4,241.6 217.3,239.0 218.3,236.4 C 219.2,233.8 220.4,231.3 221.6,228.9 C 222.8,226.5 224.1,224.1 225.5,221.8 C 227.0,219.5 228.5,217.3 230.1,215.2 C 231.8,213.1 233.5,211.0 235.3,209.0 C 237.1,207.1 239.0,205.2 241.0,203.4 C 242.9,201.6 245.0,199.9 247.0,198.2 C 249.1,196.6 251.3,195.0 253.5,193.5 C 255.7,192.0 258.0,190.6 260.3,189.2 C 262.6,187.9 264.9,186.6 267.3,185.4 C 269.6,184.1 272.0,183.0 274.5,181.9 C 276.9,180.8 279.3,179.8 281.8,178.8 C 284.3,177.9 286.8,177.0 289.3,176.1 C 291.8,175.3 294.4,174.5 296.9,173.8 C 299.5,173.1 302.0,172.4 304.6,171.8 C 307.2,171.3 309.8,170.7 312.3,170.3 C 314.9,169.8 317.5,169.4 320.1,169.0 C 322.7,168.7 325.3,168.4 327.9,168.1 C 330.5,167.9 333.1,167.7 335.7,167.6 C 338.3,167.5 340.9,167.4 343.5,167.3 C 346.0,167.3 348.6,167.3 351.2,167.4 C 353.7,167.4 356.3,167.5 358.8,167.6 C 361.4,167.7 363.9,167.9 366.4,168.0 C 368.9,168.2 371.4,168.3 373.9,168.5 C 376.3,168.7 378.8,168.9 381.3,169.1 C 383.7,169.3 386.1,169.5 388.6,169.8 C 391.0,170.0 393.4,170.2 395.8,170.4 C 398.2,170.6 400.6,170.9 403.0,171.1 C 405.4,171.3 407.8,171.6 410.2,171.8 C 412.5,172.1 414.9,172.4 417.3,172.7 C 419.6,173.0 422.0,173.3 424.3,173.6 C 426.7,174.0 429.0,174.4 431.4,174.8 C 433.7,175.3 436.0,175.8 438.3,176.3 C 440.6,176.9 442.9,177.5 445.2,178.2 C 447.5,178.9 449.7,179.6 451.9,180.5 C 454.1,181.3 456.3,182.2 458.5,183.2 C 460.6,184.2 462.8,185.3 464.8,186.5 C 466.9,187.7 468.9,189.0 470.9,190.3 C 472.9,191.6 474.8,193.1 476.7,194.6 C 478.6,196.1 480.4,197.7 482.2,199.3 C 484.0,200.9 485.7,202.6 487.4,204.4 C 489.0,206.1 490.6,207.9 492.2,209.8 C 493.7,211.6 495.3,213.5 496.7,215.4 C 498.2,217.2 499.6,219.2 501.0,221.1 C 502.4,223.0 503.7,224.9 505.0,226.8 C 506.3,228.7 507.6,230.6 508.8,232.5 C 510.1,234.4 511.3,236.3 512.5,238.1 C 513.7,240.0 514.9,241.8 516.1,243.6 C 517.3,245.4 518.5,247.2 519.6,248.9 C 520.8,250.7 522.0,252.4 523.1,254.1 C 524.3,255.8 525.4,257.4 526.6,259.1 C 527.8,260.7 528.9,262.3 530.1,263.9 C 531.3,265.5 532.4,267.1 533.6,268.7 C 534.8,270.2 536.0,271.8 537.2,273.3 C 538.4,274.8 539.6,276.3 540.8,277.8 C 542.0,279.3 543.2,280.8 544.4,282.3 C 545.6,283.8 546.8,285.3 548.1,286.8 C 549.3,288.2 550.6,289.7 551.8,291.2 C 553.1,292.6 554.4,294.1 555.6,295.6 C 556.9,297.0 558.2,298.5 559.6,299.9 C 560.9,301.4 562.2,302.8 563.6,304.3 C 564.9,305.8 566.3,307.2 567.7,308.7 C 569.1,310.2 570.5,311.7 572.0,313.2 C 573.4,314.7 574.8,316.2 576.3,317.7 C 577.7,319.3 579.2,320.8 580.6,322.4 C 582.1,324.0 583.5,325.6 585.0,327.2 C 586.4,328.9 587.9,330.5 589.3,332.2 C 590.7,333.9 592.1,335.7 593.4,337.4 C 594.7,339.2 596.0,341.0 597.3,342.8 C 598.5,344.7 599.7,346.6 600.8,348.5 C 601.9,350.4 603.0,352.4 603.9,354.4 C 604.9,356.4 605.8,358.4 606.6,360.4 C 607.4,362.5 608.1,364.6 608.7,366.7 C 609.3,368.8 609.8,371.0 610.2,373.1 C 610.6,375.3 610.9,377.4 611.1,379.6 C 611.3,381.8 611.4,384.0 611.4,386.2 C 611.4,388.4 611.4,390.5 611.2,392.7 C 611.0,394.9 610.8,397.1 610.5,399.3 Z"/>
    <path d="M 661.9,403.1 C 662.0,405.7 662.0,408.4 662.0,411.0 C 661.9,413.7 661.8,416.3 661.5,418.9 C 661.2,421.6 660.9,424.2 660.4,426.8 C 659.9,429.4 659.3,432.0 658.6,434.5 C 657.9,437.1 657.0,439.6 656.1,442.1 C 655.2,444.6 654.1,447.1 653.0,449.5 C 651.9,451.9 650.6,454.3 649.3,456.6 C 648.0,459.0 646.6,461.3 645.2,463.5 C 643.7,465.8 642.2,468.0 640.7,470.1 C 639.1,472.3 637.5,474.4 635.8,476.5 C 634.2,478.6 632.5,480.6 630.8,482.7 C 629.2,484.7 627.5,486.6 625.8,488.6 C 624.1,490.5 622.4,492.5 620.8,494.4 C 619.1,496.3 617.4,498.1 615.8,500.0 C 614.2,501.9 612.6,503.7 611.0,505.6 C 609.5,507.4 607.9,509.3 606.4,511.1 C 604.9,513.0 603.4,514.9 602.0,516.7 C 600.5,518.6 599.1,520.4 597.8,522.3 C 596.4,524.2 595.0,526.1 593.7,528.0 C 592.4,529.9 591.1,531.9 589.8,533.8 C 588.5,535.8 587.3,537.8 586.1,539.8 C 584.8,541.8 583.6,543.8 582.4,545.8 C 581.2,547.9 580.1,550.0 578.9,552.1 C 577.7,554.2 576.6,556.4 575.4,558.6 C 574.3,560.8 573.2,563.0 572.0,565.3 C 570.9,567.6 569.8,569.9 568.7,572.2 C 567.6,574.6 566.5,577.0 565.4,579.5 C 564.3,582.0 563.2,584.5 562.1,587.1 C 560.9,589.6 559.8,592.3 558.7,595.0 C 557.6,597.6 556.4,600.4 555.2,603.2 C 554.0,605.9 552.8,608.8 551.6,611.6 C 550.4,614.5 549.1,617.4 547.8,620.4 C 546.4,623.3 545.1,626.3 543.6,629.2 C 542.2,632.2 540.7,635.2 539.1,638.2 C 537.5,641.1 535.9,644.1 534.1,647.0 C 532.4,649.9 530.6,652.8 528.7,655.6 C 526.8,658.5 524.8,661.3 522.8,663.9 C 520.7,666.6 518.5,669.3 516.2,671.8 C 514.0,674.3 511.6,676.7 509.2,679.0 C 506.8,681.2 504.2,683.4 501.6,685.4 C 499.0,687.5 496.3,689.4 493.6,691.1 C 490.8,692.9 488.0,694.5 485.1,696.0 C 482.2,697.5 479.2,698.8 476.2,700.0 C 473.2,701.2 470.2,702.2 467.1,703.1 C 464.0,704.1 460.9,704.8 457.8,705.5 C 454.6,706.2 451.5,706.7 448.3,707.2 C 445.1,707.6 441.9,707.9 438.7,708.2 C 435.5,708.4 432.3,708.5 429.1,708.6 C 425.9,708.7 422.7,708.6 419.5,708.5 C 416.3,708.5 413.1,708.3 409.9,708.1 C 406.7,707.9 403.5,707.6 400.3,707.2 C 397.1,706.9 394.0,706.5 390.8,706.1 C 387.7,705.6 384.5,705.1 381.4,704.6 C 378.2,704.0 375.1,703.4 372.0,702.8 C 368.9,702.1 365.8,701.4 362.8,700.6 C 359.7,699.9 356.6,699.0 353.6,698.1 C 350.6,697.2 347.6,696.3 344.6,695.2 C 341.6,694.2 338.6,693.1 335.7,692.0 C 332.8,690.8 329.9,689.6 327.0,688.3 C 324.2,687.0 321.3,685.6 318.5,684.2 C 315.7,682.8 313.0,681.3 310.3,679.8 C 307.6,678.2 304.9,676.6 302.2,674.9 C 299.6,673.3 297.0,671.5 294.5,669.8 C 291.9,668.0 289.4,666.2 287.0,664.3 C 284.5,662.4 282.1,660.5 279.7,658.6 C 277.3,656.6 275.0,654.6 272.7,652.6 C 270.4,650.6 268.2,648.5 266.0,646.4 C 263.8,644.3 261.7,642.1 259.6,640.0 C 257.5,637.8 255.4,635.6 253.4,633.3 C 251.4,631.0 249.5,628.7 247.6,626.4 C 245.8,624.0 244.0,621.6 242.2,619.2 C 240.5,616.8 238.8,614.3 237.3,611.7 C 235.7,609.2 234.2,606.6 232.8,604.0 C 231.4,601.3 230.0,598.7 228.8,595.9 C 227.6,593.2 226.5,590.4 225.4,587.5 C 224.4,584.7 223.5,581.8 222.7,578.9 C 221.9,576.0 221.1,573.0 220.5,570.0 C 219.9,567.0 219.4,564.0 219.0,561.0 C 218.6,557.9 218.4,554.9 218.2,551.8 C 218.0,548.8 217.9,545.7 217.8,542.6 C 217.8,539.6 217.9,536.5 218.0,533.5 C 218.1,530.5 218.4,527.5 218.6,524.5 C 218.9,521.5 219.2,518.6 219.5,515.7 C 219.9,512.8 220.3,509.9 220.7,507.1 C 221.1,504.3 221.5,501.6 221.9,498.9 C 222.4,496.2 222.8,493.5 223.2,490.9 C 223.7,488.3 224.1,485.8 224.5,483.3 C 225.0,480.8 225.4,478.4 225.8,476.0 C 226.2,473.6 226.6,471.3 226.9,469.0 C 227.3,466.7 227.6,464.4 227.9,462.2 C 228.2,460.0 228.5,457.8 228.8,455.7 C 229.1,453.6 229.3,451.5 229.6,449.4 C 229.8,447.3 230.0,445.3 230.2,443.3 C 230.4,441.2 230.6,439.3 230.7,437.3 C 230.9,435.3 231.0,433.4 231.1,431.4 C 231.2,429.5 231.3,427.6 231.3,425.7 C 231.3,423.8 231.4,421.9 231.3,420.0 C 231.3,418.1 231.2,416.2 231.1,414.4 C 230.9,412.5 230.8,410.6 230.5,408.7 C 230.3,406.9 230.0,405.0 229.6,403.1 C 229.2,401.2 228.8,399.3 228.2,397.4 C 227.7,395.5 227.1,393.5 226.4,391.6 C 225.7,389.6 224.9,387.6 224.0,385.5 C 223.2,383.5 222.2,381.4 221.2,379.3 C 220.2,377.1 219.0,374.9 217.9,372.7 C 216.7,370.4 215.4,368.1 214.1,365.8 C 212.8,363.4 211.4,360.9 210.0,358.4 C 208.6,355.9 207.1,353.3 205.6,350.7 C 204.2,348.0 202.7,345.3 201.2,342.5 C 199.7,339.7 198.2,336.8 196.8,333.9 C 195.3,330.9 193.9,327.9 192.5,324.8 C 191.1,321.8 189.8,318.6 188.5,315.5 C 187.3,312.3 186.1,309.0 185.0,305.8 C 183.9,302.5 182.8,299.2 181.9,295.8 C 181.0,292.5 180.2,289.1 179.5,285.7 C 178.8,282.3 178.1,278.9 177.7,275.4 C 177.2,272.0 176.8,268.6 176.6,265.1 C 176.3,261.7 176.2,258.2 176.2,254.8 C 176.2,251.3 176.3,247.9 176.5,244.5 C 176.7,241.1 177.1,237.7 177.6,234.3 C 178.1,231.0 178.7,227.6 179.4,224.3 C 180.1,221.0 181.0,217.7 181.9,214.5 C 182.9,211.3 184.0,208.1 185.2,205.0 C 186.4,201.9 187.7,198.8 189.2,195.9 C 190.6,192.9 192.2,190.0 193.9,187.1 C 195.6,184.3 197.4,181.5 199.3,178.9 C 201.2,176.2 203.3,173.6 205.4,171.2 C 207.6,168.7 209.8,166.4 212.2,164.1 C 214.5,161.9 217.0,159.7 219.5,157.7 C 222.1,155.7 224.8,153.8 227.5,152.1 C 230.2,150.3 233.0,148.6 235.9,147.1 C 238.8,145.6 241.7,144.2 244.7,142.9 C 247.7,141.6 250.8,140.4 253.9,139.3 C 257.0,138.2 260.1,137.3 263.3,136.4 C 266.4,135.5 269.6,134.7 272.8,134.0 C 275.9,133.3 279.1,132.7 282.3,132.1 C 285.5,131.5 288.7,131.0 291.9,130.5 C 295.1,130.0 298.2,129.5 301.4,129.1 C 304.5,128.7 307.7,128.3 310.8,127.9 C 313.9,127.5 317.0,127.1 320.1,126.7 C 323.2,126.3 326.2,126.0 329.3,125.6 C 332.3,125.2 335.3,124.8 338.3,124.5 C 341.3,124.1 344.3,123.7 347.3,123.3 C 350.3,122.9 353.3,122.6 356.3,122.2 C 359.3,121.9 362.2,121.5 365.2,121.2 C 368.2,120.9 371.2,120.6 374.2,120.4 C 377.1,120.1 380.1,119.9 383.1,119.8 C 386.1,119.6 389.1,119.5 392.0,119.5 C 395.0,119.5 398.0,119.6 401.0,119.7 C 403.9,119.8 406.9,120.0 409.9,120.3 C 412.8,120.6 415.8,121.0 418.7,121.5 C 421.7,122.0 424.6,122.5 427.5,123.2 C 430.4,123.9 433.3,124.6 436.1,125.4 C 439.0,126.3 441.8,127.2 444.6,128.2 C 447.4,129.2 450.2,130.3 452.9,131.4 C 455.6,132.6 458.3,133.8 461.0,135.1 C 463.7,136.4 466.3,137.8 468.9,139.2 C 471.5,140.6 474.0,142.1 476.5,143.6 C 479.0,145.1 481.5,146.7 483.9,148.3 C 486.3,149.9 488.7,151.5 491.1,153.2 C 493.4,154.9 495.7,156.6 498.0,158.4 C 500.2,160.2 502.4,162.0 504.6,163.8 C 506.8,165.7 508.9,167.5 511.0,169.5 C 513.1,171.4 515.1,173.3 517.1,175.3 C 519.1,177.3 521.0,179.3 522.9,181.3 C 524.8,183.4 526.6,185.4 528.4,187.5 C 530.2,189.6 531.9,191.7 533.6,193.9 C 535.3,196.0 536.9,198.2 538.6,200.3 C 540.2,202.5 541.7,204.7 543.2,206.9 C 544.8,209.1 546.2,211.2 547.7,213.4 C 549.1,215.6 550.6,217.8 552.0,219.9 C 553.4,222.1 554.7,224.2 556.1,226.3 C 557.5,228.4 558.9,230.5 560.2,232.6 C 561.6,234.6 563.0,236.6 564.3,238.6 C 565.7,240.6 567.1,242.5 568.5,244.4 C 570.0,246.4 571.4,248.2 572.9,250.1 C 574.3,251.9 575.8,253.7 577.3,255.5 C 578.9,257.2 580.4,259.0 582.0,260.7 C 583.6,262.4 585.2,264.1 586.9,265.8 C 588.5,267.5 590.2,269.1 591.9,270.8 C 593.6,272.5 595.4,274.2 597.1,275.9 C 598.8,277.6 600.6,279.2 602.3,281.0 C 604.1,282.7 605.8,284.4 607.6,286.2 C 609.3,288.0 611.0,289.7 612.7,291.6 C 614.4,293.4 616.1,295.3 617.8,297.2 C 619.4,299.1 621.0,301.0 622.6,303.0 C 624.2,305.0 625.7,307.0 627.2,309.1 C 628.7,311.1 630.1,313.2 631.5,315.4 C 632.9,317.5 634.2,319.7 635.5,321.9 C 636.8,324.1 638.1,326.3 639.3,328.6 C 640.5,330.8 641.6,333.1 642.8,335.4 C 643.9,337.8 645.0,340.1 646.0,342.5 C 647.0,344.8 648.0,347.2 649.0,349.7 C 649.9,352.1 650.8,354.5 651.7,357.0 C 652.6,359.4 653.4,361.9 654.2,364.4 C 655.0,366.9 655.8,369.4 656.5,372.0 C 657.2,374.5 657.8,377.0 658.4,379.6 C 659.0,382.2 659.5,384.8 660.0,387.4 C 660.5,390.0 660.9,392.6 661.2,395.2 C 661.5,397.8 661.7,400.5 661.9,403.1 Z"/>
    <path d="M 697.1,398.4 C 697.3,401.5 697.3,404.7 697.1,407.8 C 697.0,410.9 696.7,414.1 696.3,417.2 C 695.8,420.3 695.2,423.4 694.5,426.4 C 693.8,429.5 692.9,432.5 691.9,435.5 C 690.8,438.5 689.7,441.5 688.4,444.4 C 687.2,447.3 685.8,450.2 684.3,453.0 C 682.8,455.8 681.2,458.6 679.6,461.3 C 677.9,464.1 676.1,466.7 674.4,469.4 C 672.6,472.0 670.7,474.5 668.8,477.1 C 666.9,479.6 665.0,482.1 663.1,484.5 C 661.1,487.0 659.2,489.4 657.2,491.7 C 655.3,494.1 653.3,496.4 651.4,498.7 C 649.4,501.0 647.5,503.3 645.5,505.5 C 643.6,507.8 641.7,510.0 639.8,512.2 C 637.9,514.4 636.1,516.6 634.2,518.8 C 632.4,520.9 630.6,523.1 628.8,525.3 C 627.0,527.4 625.3,529.6 623.6,531.8 C 621.8,533.9 620.1,536.1 618.5,538.3 C 616.8,540.5 615.2,542.7 613.6,544.9 C 612.0,547.1 610.4,549.3 608.9,551.6 C 607.3,553.8 605.8,556.1 604.3,558.4 C 602.8,560.7 601.4,563.1 600.0,565.5 C 598.6,567.9 597.2,570.3 595.9,572.8 C 594.5,575.3 593.2,577.8 591.9,580.5 C 590.6,583.1 589.4,585.7 588.1,588.5 C 586.9,591.3 585.7,594.1 584.5,597.0 C 583.3,599.9 582.1,602.8 581.0,605.9 C 579.8,608.9 578.6,612.1 577.4,615.3 C 576.3,618.5 575.1,621.7 573.8,625.1 C 572.6,628.4 571.4,631.8 570.1,635.2 C 568.8,638.7 567.5,642.2 566.1,645.7 C 564.7,649.2 563.2,652.8 561.7,656.3 C 560.2,659.9 558.6,663.4 556.9,667.0 C 555.1,670.5 553.4,674.0 551.5,677.5 C 549.6,680.9 547.6,684.4 545.4,687.7 C 543.3,691.0 541.1,694.3 538.8,697.5 C 536.4,700.6 534.0,703.7 531.4,706.6 C 528.9,709.6 526.2,712.4 523.4,715.1 C 520.7,717.8 517.8,720.4 514.8,722.8 C 511.9,725.2 508.8,727.5 505.6,729.6 C 502.5,731.7 499.3,733.7 496.0,735.5 C 492.7,737.3 489.3,739.0 485.9,740.6 C 482.5,742.1 479.0,743.6 475.5,744.9 C 472.0,746.1 468.4,747.3 464.8,748.4 C 461.2,749.4 457.6,750.3 453.9,751.2 C 450.3,752.0 446.6,752.7 442.9,753.4 C 439.2,754.0 435.5,754.5 431.7,755.0 C 428.0,755.4 424.3,755.8 420.5,756.1 C 416.8,756.4 413.1,756.6 409.3,756.8 C 405.5,756.9 401.8,756.9 398.0,756.9 C 394.3,756.9 390.5,756.8 386.8,756.6 C 383.0,756.4 379.3,756.2 375.6,755.8 C 371.8,755.5 368.1,755.1 364.4,754.5 C 360.7,754.0 357.0,753.4 353.3,752.7 C 349.6,752.0 345.9,751.2 342.3,750.3 C 338.7,749.4 335.1,748.4 331.5,747.3 C 327.9,746.2 324.4,745.0 320.9,743.7 C 317.3,742.4 313.9,741.1 310.4,739.6 C 307.0,738.1 303.6,736.6 300.3,735.0 C 296.9,733.4 293.6,731.7 290.3,729.9 C 287.1,728.1 283.9,726.3 280.7,724.4 C 277.5,722.5 274.4,720.5 271.3,718.5 C 268.2,716.5 265.2,714.5 262.2,712.3 C 259.2,710.2 256.2,708.1 253.4,705.9 C 250.5,703.7 247.6,701.4 244.8,699.2 C 242.0,696.9 239.2,694.5 236.5,692.2 C 233.8,689.8 231.2,687.4 228.6,684.9 C 226.0,682.4 223.5,679.9 221.0,677.3 C 218.6,674.8 216.2,672.1 213.8,669.5 C 211.5,666.8 209.3,664.0 207.1,661.2 C 204.9,658.4 202.9,655.5 200.9,652.6 C 198.9,649.6 197.0,646.6 195.2,643.5 C 193.5,640.5 191.8,637.3 190.2,634.1 C 188.7,630.9 187.2,627.7 185.9,624.3 C 184.5,621.0 183.3,617.6 182.2,614.2 C 181.1,610.8 180.1,607.4 179.2,603.9 C 178.4,600.4 177.6,596.8 177.0,593.3 C 176.3,589.8 175.8,586.2 175.3,582.7 C 174.8,579.1 174.5,575.6 174.2,572.0 C 173.9,568.5 173.8,564.9 173.6,561.4 C 173.5,557.9 173.5,554.5 173.5,551.0 C 173.5,547.6 173.5,544.2 173.6,540.8 C 173.7,537.4 173.9,534.1 174.1,530.9 C 174.3,527.6 174.5,524.4 174.7,521.2 C 175.0,518.0 175.2,514.9 175.5,511.8 C 175.8,508.7 176.1,505.7 176.4,502.7 C 176.7,499.7 177.1,496.8 177.4,493.9 C 177.8,491.0 178.2,488.1 178.6,485.3 C 178.9,482.5 179.3,479.7 179.8,477.0 C 180.2,474.3 180.6,471.6 181.1,468.9 C 181.5,466.2 182.0,463.6 182.5,461.0 C 182.9,458.4 183.4,455.9 183.9,453.4 C 184.4,450.9 184.9,448.4 185.4,445.9 C 185.9,443.5 186.3,441.1 186.8,438.7 C 187.2,436.3 187.7,434.0 188.1,431.7 C 188.5,429.3 188.8,427.1 189.1,424.8 C 189.4,422.5 189.6,420.3 189.8,418.1 C 189.9,415.9 190.0,413.7 190.0,411.5 C 190.0,409.3 189.8,407.1 189.6,405.0 C 189.4,402.8 189.0,400.6 188.6,398.4 C 188.1,396.2 187.6,394.0 186.8,391.8 C 186.1,389.5 185.3,387.3 184.4,385.0 C 183.4,382.7 182.3,380.3 181.2,377.9 C 180.0,375.5 178.7,373.0 177.3,370.5 C 175.9,368.0 174.4,365.4 172.8,362.7 C 171.3,360.1 169.6,357.3 167.9,354.5 C 166.2,351.7 164.4,348.8 162.7,345.8 C 160.9,342.8 159.0,339.7 157.2,336.6 C 155.4,333.4 153.6,330.2 151.8,326.9 C 150.0,323.6 148.2,320.2 146.5,316.7 C 144.8,313.2 143.1,309.7 141.5,306.1 C 139.9,302.4 138.4,298.8 136.9,295.0 C 135.5,291.3 134.1,287.5 132.8,283.6 C 131.6,279.8 130.4,275.9 129.3,272.0 C 128.3,268.0 127.3,264.1 126.5,260.1 C 125.7,256.1 125.0,252.0 124.4,248.0 C 123.8,243.9 123.4,239.9 123.0,235.8 C 122.7,231.7 122.5,227.6 122.5,223.5 C 122.4,219.5 122.5,215.4 122.8,211.3 C 123.0,207.3 123.4,203.2 123.9,199.2 C 124.4,195.2 125.1,191.2 125.9,187.3 C 126.7,183.4 127.7,179.5 128.8,175.7 C 130.0,171.9 131.2,168.1 132.7,164.5 C 134.1,160.8 135.7,157.2 137.5,153.7 C 139.3,150.3 141.2,146.9 143.3,143.6 C 145.3,140.4 147.6,137.2 149.9,134.2 C 152.3,131.2 154.8,128.3 157.5,125.5 C 160.1,122.8 162.9,120.2 165.8,117.7 C 168.7,115.2 171.7,112.9 174.9,110.7 C 178.0,108.5 181.2,106.4 184.5,104.5 C 187.8,102.6 191.2,100.8 194.7,99.2 C 198.1,97.5 201.7,96.0 205.2,94.6 C 208.8,93.1 212.4,91.8 216.0,90.6 C 219.6,89.4 223.3,88.2 226.9,87.2 C 230.6,86.1 234.3,85.1 237.9,84.2 C 241.6,83.2 245.3,82.3 248.9,81.5 C 252.6,80.6 256.2,79.8 259.8,79.0 C 263.5,78.2 267.1,77.4 270.7,76.7 C 274.3,75.9 277.8,75.2 281.4,74.4 C 285.0,73.7 288.5,73.0 292.1,72.3 C 295.6,71.6 299.1,70.9 302.7,70.2 C 306.2,69.5 309.7,68.8 313.3,68.2 C 316.8,67.6 320.3,67.0 323.8,66.4 C 327.4,65.9 330.9,65.3 334.4,64.9 C 338.0,64.5 341.5,64.1 345.0,63.7 C 348.6,63.4 352.1,63.2 355.7,63.0 C 359.2,62.8 362.8,62.8 366.3,62.8 C 369.9,62.8 373.4,62.9 376.9,63.1 C 380.5,63.3 384.0,63.6 387.5,64.0 C 391.0,64.4 394.6,64.9 398.0,65.5 C 401.5,66.1 405.0,66.7 408.4,67.5 C 411.9,68.3 415.3,69.2 418.7,70.1 C 422.1,71.1 425.5,72.1 428.8,73.2 C 432.1,74.3 435.4,75.5 438.7,76.7 C 441.9,77.9 445.2,79.3 448.4,80.6 C 451.6,82.0 454.7,83.4 457.8,84.9 C 461.0,86.4 464.0,87.9 467.1,89.5 C 470.1,91.1 473.1,92.7 476.1,94.4 C 479.0,96.1 482.0,97.9 484.8,99.6 C 487.7,101.4 490.5,103.3 493.3,105.2 C 496.1,107.1 498.8,109.0 501.5,111.0 C 504.2,113.0 506.8,115.1 509.4,117.2 C 511.9,119.3 514.4,121.5 516.9,123.7 C 519.4,126.0 521.7,128.2 524.1,130.6 C 526.4,132.9 528.7,135.3 530.9,137.7 C 533.1,140.1 535.3,142.5 537.3,145.0 C 539.4,147.5 541.5,150.0 543.5,152.5 C 545.4,155.0 547.4,157.6 549.2,160.1 C 551.1,162.7 553.0,165.2 554.8,167.8 C 556.6,170.3 558.3,172.9 560.1,175.4 C 561.8,177.9 563.6,180.4 565.3,182.8 C 567.0,185.3 568.7,187.7 570.4,190.1 C 572.1,192.5 573.8,194.8 575.5,197.2 C 577.2,199.5 578.9,201.7 580.6,204.0 C 582.3,206.2 584.1,208.4 585.9,210.6 C 587.6,212.8 589.4,214.9 591.2,217.0 C 593.0,219.1 594.9,221.2 596.7,223.2 C 598.6,225.3 600.5,227.4 602.3,229.4 C 604.2,231.4 606.1,233.5 608.0,235.5 C 609.9,237.6 611.8,239.6 613.7,241.7 C 615.6,243.8 617.6,245.8 619.5,247.9 C 621.3,250.0 623.2,252.2 625.1,254.3 C 626.9,256.5 628.8,258.7 630.6,260.9 C 632.4,263.1 634.2,265.3 636.0,267.6 C 637.8,269.9 639.5,272.2 641.2,274.5 C 642.9,276.8 644.6,279.2 646.2,281.6 C 647.9,284.0 649.5,286.4 651.1,288.9 C 652.7,291.3 654.3,293.8 655.9,296.3 C 657.4,298.8 659.0,301.4 660.5,303.9 C 662.0,306.5 663.5,309.1 665.0,311.7 C 666.5,314.3 668.0,316.9 669.5,319.5 C 670.9,322.2 672.4,324.9 673.8,327.6 C 675.3,330.3 676.7,333.0 678.0,335.8 C 679.4,338.6 680.8,341.4 682.1,344.2 C 683.4,347.1 684.7,349.9 685.9,352.8 C 687.1,355.7 688.2,358.7 689.3,361.6 C 690.3,364.6 691.3,367.6 692.2,370.6 C 693.1,373.6 693.9,376.7 694.6,379.7 C 695.3,382.8 695.8,385.9 696.2,389.0 C 696.7,392.1 697.0,395.3 697.1,398.4 Z"/>
    <path d="M 735.8,390.2 C 735.5,393.8 735.1,397.3 734.6,400.9 C 734.2,404.4 733.6,407.9 732.9,411.4 C 732.2,414.9 731.5,418.4 730.6,421.9 C 729.8,425.3 728.8,428.8 727.8,432.2 C 726.8,435.6 725.8,439.0 724.6,442.3 C 723.5,445.7 722.3,449.0 721.0,452.3 C 719.7,455.6 718.4,458.8 717.0,462.0 C 715.5,465.3 714.1,468.4 712.5,471.6 C 711.0,474.7 709.4,477.8 707.7,480.9 C 706.0,483.9 704.2,486.9 702.4,489.9 C 700.6,492.9 698.7,495.8 696.7,498.6 C 694.8,501.5 692.8,504.3 690.7,507.1 C 688.6,509.8 686.5,512.5 684.3,515.1 C 682.1,517.8 679.9,520.4 677.7,522.9 C 675.4,525.5 673.1,528.0 670.8,530.4 C 668.5,532.9 666.2,535.3 663.9,537.7 C 661.6,540.1 659.3,542.5 657.0,544.8 C 654.8,547.2 652.5,549.5 650.3,551.9 C 648.1,554.2 645.9,556.5 643.9,558.9 C 641.8,561.3 639.7,563.7 637.8,566.1 C 635.8,568.6 633.9,571.1 632.1,573.6 C 630.3,576.2 628.5,578.8 626.9,581.5 C 625.2,584.2 623.6,587.0 622.1,589.9 C 620.6,592.7 619.1,595.7 617.7,598.8 C 616.3,601.8 614.9,605.0 613.6,608.2 C 612.3,611.5 611.0,614.8 609.8,618.3 C 608.5,621.7 607.2,625.2 606.0,628.8 C 604.7,632.4 603.4,636.1 602.1,639.8 C 600.8,643.6 599.5,647.4 598.1,651.2 C 596.7,655.1 595.3,659.0 593.7,662.9 C 592.2,666.8 590.6,670.8 588.9,674.7 C 587.3,678.6 585.5,682.6 583.6,686.5 C 581.7,690.4 579.8,694.3 577.7,698.1 C 575.6,702.0 573.5,705.8 571.2,709.6 C 568.9,713.3 566.5,717.0 564.0,720.7 C 561.5,724.3 558.9,727.9 556.1,731.3 C 553.4,734.8 550.6,738.3 547.7,741.6 C 544.7,744.9 541.7,748.1 538.6,751.3 C 535.4,754.4 532.2,757.4 528.9,760.4 C 525.6,763.3 522.1,766.1 518.6,768.8 C 515.1,771.6 511.6,774.2 507.9,776.6 C 504.2,779.1 500.5,781.5 496.7,783.7 C 492.8,785.9 488.9,788.0 485.0,790.0 C 481.0,791.9 477.0,793.7 472.9,795.4 C 468.8,797.0 464.7,798.5 460.5,799.9 C 456.3,801.2 452.1,802.4 447.8,803.4 C 443.5,804.4 439.2,805.2 434.9,805.8 C 430.6,806.5 426.2,807.0 421.9,807.3 C 417.5,807.6 413.1,807.7 408.7,807.6 C 404.4,807.6 400.0,807.4 395.6,807.0 C 391.3,806.7 386.9,806.1 382.6,805.4 C 378.2,804.8 373.9,803.9 369.6,803.0 C 365.4,802.1 361.1,801.0 356.9,799.8 C 352.7,798.7 348.5,797.4 344.4,796.1 C 340.2,794.7 336.1,793.3 332.0,791.8 C 327.9,790.3 323.9,788.8 319.9,787.2 C 315.9,785.6 311.9,784.0 308.0,782.3 C 304.0,780.6 300.1,779.0 296.2,777.3 C 292.4,775.6 288.5,773.8 284.7,772.1 C 280.8,770.4 277.0,768.6 273.3,766.8 C 269.5,765.1 265.7,763.3 262.0,761.4 C 258.2,759.6 254.5,757.7 250.9,755.8 C 247.2,753.9 243.5,752.0 239.9,750.0 C 236.3,748.0 232.8,745.9 229.3,743.7 C 225.8,741.6 222.3,739.4 218.9,737.1 C 215.5,734.7 212.2,732.3 208.9,729.8 C 205.7,727.3 202.5,724.7 199.4,722.0 C 196.3,719.3 193.3,716.4 190.5,713.5 C 187.6,710.6 184.8,707.5 182.1,704.3 C 179.5,701.2 176.9,697.9 174.5,694.5 C 172.1,691.2 169.8,687.7 167.6,684.2 C 165.4,680.6 163.4,677.0 161.5,673.2 C 159.6,669.5 157.8,665.7 156.1,661.9 C 154.4,658.1 152.9,654.2 151.4,650.2 C 150.0,646.3 148.7,642.3 147.5,638.3 C 146.3,634.4 145.2,630.3 144.2,626.3 C 143.2,622.3 142.3,618.3 141.5,614.2 C 140.7,610.2 140.0,606.2 139.4,602.2 C 138.8,598.2 138.3,594.2 137.8,590.2 C 137.4,586.2 137.1,582.2 136.8,578.3 C 136.5,574.3 136.3,570.4 136.2,566.5 C 136.1,562.6 136.1,558.7 136.1,554.9 C 136.2,551.1 136.3,547.2 136.5,543.5 C 136.7,539.7 137.0,535.9 137.4,532.2 C 137.7,528.5 138.1,524.8 138.6,521.2 C 139.1,517.5 139.7,513.9 140.3,510.4 C 140.9,506.8 141.6,503.3 142.3,499.8 C 143.1,496.4 143.8,493.0 144.6,489.6 C 145.4,486.2 146.2,482.9 147.1,479.7 C 147.9,476.5 148.7,473.3 149.5,470.2 C 150.3,467.1 151.1,464.0 151.9,461.0 C 152.6,458.0 153.3,455.1 154.0,452.3 C 154.6,449.4 155.2,446.6 155.7,443.8 C 156.2,441.1 156.7,438.4 157.0,435.7 C 157.3,433.1 157.5,430.5 157.6,427.9 C 157.8,425.3 157.8,422.8 157.6,420.3 C 157.5,417.8 157.3,415.3 157.0,412.8 C 156.6,410.3 156.2,407.8 155.6,405.3 C 155.0,402.8 154.3,400.3 153.6,397.8 C 152.8,395.3 151.9,392.8 150.9,390.2 C 150.0,387.7 148.9,385.1 147.8,382.4 C 146.7,379.8 145.5,377.1 144.2,374.4 C 143.0,371.7 141.6,368.9 140.3,366.1 C 138.9,363.3 137.5,360.4 136.1,357.4 C 134.7,354.5 133.2,351.5 131.7,348.4 C 130.2,345.3 128.7,342.2 127.2,339.0 C 125.6,335.8 124.1,332.5 122.5,329.2 C 121.0,325.8 119.4,322.4 117.8,318.9 C 116.3,315.4 114.7,311.8 113.1,308.1 C 111.5,304.5 109.9,300.7 108.4,296.9 C 106.8,293.0 105.2,289.1 103.7,285.1 C 102.1,281.1 100.6,277.0 99.1,272.8 C 97.6,268.6 96.1,264.4 94.7,260.0 C 93.3,255.7 91.9,251.2 90.6,246.7 C 89.3,242.2 88.1,237.6 86.9,232.9 C 85.8,228.3 84.7,223.6 83.8,218.8 C 82.9,214.1 82.1,209.2 81.4,204.4 C 80.8,199.6 80.3,194.7 79.9,189.9 C 79.6,185.0 79.4,180.1 79.4,175.3 C 79.4,170.5 79.6,165.7 80.0,160.9 C 80.5,156.2 81.1,151.5 81.9,146.9 C 82.7,142.3 83.8,137.7 85.0,133.3 C 86.3,128.8 87.8,124.5 89.4,120.3 C 91.1,116.1 93.0,112.0 95.1,108.0 C 97.2,104.1 99.5,100.3 102.0,96.6 C 104.5,92.9 107.2,89.4 110.0,86.1 C 112.8,82.7 115.8,79.5 118.9,76.4 C 122.1,73.3 125.4,70.4 128.7,67.6 C 132.1,64.8 135.7,62.2 139.2,59.7 C 142.8,57.2 146.5,54.8 150.3,52.6 C 154.1,50.3 157.9,48.2 161.8,46.2 C 165.7,44.2 169.7,42.3 173.6,40.4 C 177.6,38.6 181.7,36.9 185.7,35.3 C 189.8,33.7 193.9,32.2 198.0,30.7 C 202.1,29.3 206.2,27.9 210.3,26.6 C 214.5,25.3 218.6,24.1 222.8,23.0 C 227.0,21.8 231.1,20.8 235.3,19.8 C 239.5,18.8 243.7,17.9 247.9,17.1 C 252.1,16.2 256.3,15.5 260.5,14.8 C 264.6,14.1 268.8,13.5 273.0,12.9 C 277.2,12.4 281.4,11.9 285.6,11.5 C 289.8,11.1 293.9,10.7 298.1,10.5 C 302.3,10.2 306.4,10.0 310.6,9.8 C 314.7,9.6 318.9,9.5 323.0,9.4 C 327.1,9.3 331.2,9.3 335.3,9.3 C 339.4,9.3 343.5,9.4 347.5,9.5 C 351.6,9.5 355.6,9.6 359.7,9.8 C 363.7,9.9 367.7,10.1 371.7,10.3 C 375.7,10.5 379.7,10.7 383.7,11.0 C 387.7,11.2 391.7,11.5 395.6,11.8 C 399.6,12.2 403.5,12.5 407.5,13.0 C 411.4,13.4 415.3,13.9 419.3,14.4 C 423.2,15.0 427.1,15.6 431.0,16.3 C 434.8,17.0 438.7,17.8 442.6,18.7 C 446.4,19.6 450.2,20.6 454.0,21.7 C 457.8,22.8 461.5,24.1 465.2,25.5 C 468.9,26.8 472.6,28.3 476.1,30.0 C 479.7,31.6 483.3,33.4 486.7,35.3 C 490.2,37.2 493.6,39.3 496.9,41.5 C 500.3,43.7 503.5,46.0 506.7,48.4 C 509.8,50.9 512.9,53.4 515.9,56.1 C 518.9,58.7 521.8,61.5 524.6,64.3 C 527.5,67.2 530.2,70.1 532.9,73.1 C 535.5,76.0 538.1,79.1 540.6,82.1 C 543.1,85.2 545.5,88.3 547.9,91.3 C 550.3,94.4 552.6,97.5 554.8,100.6 C 557.1,103.7 559.3,106.7 561.5,109.8 C 563.7,112.8 565.8,115.8 567.9,118.7 C 570.0,121.7 572.1,124.6 574.2,127.4 C 576.3,130.3 578.4,133.1 580.4,135.8 C 582.5,138.6 584.6,141.3 586.7,143.9 C 588.7,146.6 590.8,149.2 592.9,151.8 C 595.0,154.4 597.0,156.9 599.1,159.4 C 601.2,161.9 603.3,164.4 605.4,166.8 C 607.5,169.3 609.6,171.7 611.7,174.2 C 613.8,176.6 615.9,179.0 618.0,181.4 C 620.1,183.8 622.2,186.2 624.3,188.6 C 626.3,191.1 628.4,193.5 630.5,195.9 C 632.6,198.3 634.7,200.8 636.7,203.2 C 638.8,205.6 640.9,208.1 642.9,210.6 C 645.0,213.0 647.0,215.5 649.1,218.0 C 651.2,220.4 653.2,222.9 655.3,225.4 C 657.4,227.9 659.4,230.4 661.5,233.0 C 663.6,235.5 665.7,238.0 667.8,240.6 C 669.9,243.1 672.0,245.7 674.2,248.3 C 676.3,250.9 678.5,253.5 680.6,256.1 C 682.8,258.7 684.9,261.4 687.1,264.1 C 689.2,266.8 691.4,269.5 693.5,272.3 C 695.7,275.0 697.8,277.8 699.9,280.7 C 702.0,283.5 704.1,286.4 706.1,289.4 C 708.1,292.3 710.1,295.3 711.9,298.3 C 713.8,301.4 715.7,304.5 717.4,307.6 C 719.1,310.8 720.8,314.0 722.3,317.2 C 723.8,320.4 725.3,323.7 726.6,327.1 C 727.9,330.4 729.1,333.8 730.1,337.2 C 731.2,340.7 732.1,344.1 732.9,347.6 C 733.6,351.1 734.3,354.6 734.8,358.2 C 735.3,361.7 735.6,365.3 735.9,368.8 C 736.1,372.4 736.2,376.0 736.2,379.5 C 736.2,383.1 736.0,386.7 735.8,390.2 Z"/>
  </g>
</svg>