<svg width="433" height="163" viewBox="0 0 433 163" fill="none" xmlns="http://www.w3.org/2000/svg">
<path opacity="0.28" d="M69.7283 19.0087C97.5808 15.7637 128.528 35.2335 137.812 66.0607C147.096 96.8879 133.17 129.338 103.77 142.317C75.9177 155.297 38.7811 148.807 17.1181 127.715C-4.54491 106.623 -4.54491 69.3057 10.9287 44.9684C26.4023 20.6312 41.8758 22.2536 69.7283 19.0087Z" fill="#00C278"/>
<path opacity="0.52" d="M79.0125 43.3459C99.1626 40 119.244 53.0809 122.339 75.7956C125.433 98.5104 113.054 119.603 92.9387 126.093C72.8231 132.583 51.16 122.848 41.8759 105C32.5917 87.153 37.2338 64.4382 52.7074 53.0809C63.5389 44.9684 69.6626 44.5 79.0125 43.3459Z" fill="#00C278"/>
<path opacity="0.7" d="M83.6546 69.3056C96.6626 66.5 108.412 72.5506 109.96 88.7754C111.507 105 100.676 116.358 86.7494 117.98C72.8231 119.603 60.4443 109.868 58.8969 95.2654C57.3495 80.663 65.9169 73.1315 83.6546 69.3056Z" fill="#00C278" fill-opacity="0.8"/>
<path d="M86.7821 74.6665C94.6626 73.5 100.825 76.8486 101.699 86.2115C102.572 95.5745 99.1428 100.73 91.2821 101.666C83.4214 102.603 74.6555 97.0931 73.7821 88.6665C72.9087 80.2399 76.7821 75.6665 86.7821 74.6665Z" fill="#00C278"/>
<path d="M170.943 128L171.063 41.6H185.703V94.4L209.403 63.2H227.463L202.323 95.6L229.623 128H210.483L185.703 96.8V128H170.943ZM257.081 129.8C250.601 129.8 244.941 128.34 240.101 125.42C235.261 122.5 231.501 118.48 228.821 113.36C226.181 108.2 224.861 102.28 224.861 95.6C224.861 88.8 226.221 82.84 228.941 77.72C231.661 72.6 235.441 68.6 240.281 65.72C245.121 62.84 250.721 61.4 257.081 61.4C263.601 61.4 269.281 62.86 274.121 65.78C278.961 68.7 282.721 72.74 285.401 77.9C288.081 83.02 289.421 88.92 289.421 95.6C289.421 102.32 288.061 108.26 285.341 113.42C282.661 118.54 278.901 122.56 274.061 125.48C269.221 128.36 263.561 129.8 257.081 129.8ZM257.081 116.24C262.841 116.24 267.121 114.32 269.921 110.48C272.721 106.64 274.121 101.68 274.121 95.6C274.121 89.32 272.701 84.32 269.861 80.6C267.021 76.84 262.761 74.96 257.081 74.96C253.201 74.96 250.001 75.84 247.481 77.6C245.001 79.32 243.161 81.74 241.961 84.86C240.761 87.94 240.161 91.52 240.161 95.6C240.161 101.88 241.581 106.9 244.421 110.66C247.301 114.38 251.521 116.24 257.081 116.24ZM341.461 128V96.8C341.461 94.76 341.321 92.5 341.041 90.02C340.761 87.54 340.101 85.16 339.061 82.88C338.061 80.56 336.541 78.66 334.501 77.18C332.501 75.7 329.781 74.96 326.341 74.96C324.501 74.96 322.681 75.26 320.881 75.86C319.081 76.46 317.441 77.5 315.961 78.98C314.521 80.42 313.361 82.42 312.481 84.98C311.601 87.5 311.161 90.74 311.161 94.7L302.581 91.04C302.581 85.52 303.641 80.52 305.761 76.04C307.921 71.56 311.081 68 315.241 65.36C319.401 62.68 324.521 61.34 330.601 61.34C335.401 61.34 339.361 62.14 342.481 63.74C345.601 65.34 348.081 67.38 349.921 69.86C351.761 72.34 353.121 74.98 354.001 77.78C354.881 80.58 355.441 83.24 355.681 85.76C355.961 88.24 356.101 90.26 356.101 91.82V128H341.461ZM296.521 128V41.6H309.421V87.08H311.161V128H296.521ZM394.378 129.8C387.898 129.8 382.238 128.34 377.398 125.42C372.558 122.5 368.798 118.48 366.118 113.36C363.478 108.2 362.158 102.28 362.158 95.6C362.158 88.8 363.518 82.84 366.238 77.72C368.958 72.6 372.738 68.6 377.578 65.72C382.418 62.84 388.018 61.4 394.378 61.4C400.898 61.4 406.578 62.86 411.418 65.78C416.258 68.7 420.018 72.74 422.698 77.9C425.378 83.02 426.718 88.92 426.718 95.6C426.718 102.32 425.358 108.26 422.638 113.42C419.958 118.54 416.198 122.56 411.358 125.48C406.518 128.36 400.858 129.8 394.378 129.8ZM394.378 116.24C400.138 116.24 404.418 114.32 407.218 110.48C410.018 106.64 411.418 101.68 411.418 95.6C411.418 89.32 409.998 84.32 407.158 80.6C404.318 76.84 400.058 74.96 394.378 74.96C390.498 74.96 387.298 75.84 384.778 77.6C382.298 79.32 380.458 81.74 379.258 84.86C378.058 87.94 377.458 91.52 377.458 95.6C377.458 101.88 378.878 106.9 381.718 110.66C384.598 114.38 388.818 116.24 394.378 116.24Z" fill="#1A2332"/>
</svg>
