<svg width="433" height="146" viewBox="0 0 433 146" fill="none" xmlns="http://www.w3.org/2000/svg">
<path opacity="0.28" d="M69.7283 2.00867C97.5808 -1.2363 128.528 18.2335 137.812 49.0607C147.096 79.8879 133.17 112.338 103.77 125.317C75.9177 138.297 38.7811 131.807 17.1181 110.715C-4.54491 89.6228 -4.54491 52.3057 10.9287 27.9684C26.4023 3.63115 41.8758 5.25364 69.7283 2.00867Z" fill="#00E58A"/>
<path opacity="0.52" d="M79.0125 26.3459C99.1626 23 119.244 36.0809 122.339 58.7956C125.433 81.5104 113.054 102.603 92.9387 109.093C72.8231 115.583 51.16 105.848 41.8759 88.0003C32.5917 70.153 37.2338 47.4382 52.7074 36.0809C63.5389 27.9684 69.6626 27.5 79.0125 26.3459Z" fill="#00E58A"/>
<path opacity="0.7" d="M83.6546 52.3056C96.6626 49.5 108.412 55.5506 109.96 71.7754C111.507 88.0003 100.676 99.3577 86.7494 100.98C72.8231 102.603 60.4443 92.8677 58.8969 78.2654C57.3495 63.663 65.9169 56.1315 83.6546 52.3056Z" fill="#00E58A"/>
<path d="M86.7821 57.6665C94.6626 56.5 100.825 59.8486 101.699 69.2115C102.572 78.5745 99.1428 83.7302 91.2821 84.6665C83.4214 85.6028 74.6555 80.0931 73.7821 71.6665C72.9087 63.2399 76.7821 58.6665 86.7821 57.6665Z" fill="#00E58A"/>
<path d="M170.943 111L171.063 24.6H185.703V77.4L209.403 46.2H227.463L202.323 78.6L229.623 111H210.483L185.703 79.8V111H170.943ZM257.081 112.8C250.601 112.8 244.941 111.34 240.101 108.42C235.261 105.5 231.501 101.48 228.821 96.36C226.181 91.2 224.861 85.28 224.861 78.6C224.861 71.8 226.221 65.84 228.941 60.72C231.661 55.6 235.441 51.6 240.281 48.72C245.121 45.84 250.721 44.4 257.081 44.4C263.601 44.4 269.281 45.86 274.121 48.78C278.961 51.7 282.721 55.74 285.401 60.9C288.081 66.02 289.421 71.92 289.421 78.6C289.421 85.32 288.061 91.26 285.341 96.42C282.661 101.54 278.901 105.56 274.061 108.48C269.221 111.36 263.561 112.8 257.081 112.8ZM257.081 99.24C262.841 99.24 267.121 97.32 269.921 93.48C272.721 89.64 274.121 84.68 274.121 78.6C274.121 72.32 272.701 67.32 269.861 63.6C267.021 59.84 262.761 57.96 257.081 57.96C253.201 57.96 250.001 58.84 247.481 60.6C245.001 62.32 243.161 64.74 241.961 67.86C240.761 70.94 240.161 74.52 240.161 78.6C240.161 84.88 241.581 89.9 244.421 93.66C247.301 97.38 251.521 99.24 257.081 99.24ZM341.461 111V79.8C341.461 77.76 341.321 75.5 341.041 73.02C340.761 70.54 340.101 68.16 339.061 65.88C338.061 63.56 336.541 61.66 334.501 60.18C332.501 58.7 329.781 57.96 326.341 57.96C324.501 57.96 322.681 58.26 320.881 58.86C319.081 59.46 317.441 60.5 315.961 61.98C314.521 63.42 313.361 65.42 312.481 67.98C311.601 70.5 311.161 73.74 311.161 77.7L302.581 74.04C302.581 68.52 303.641 63.52 305.761 59.04C307.921 54.56 311.081 51 315.241 48.36C319.401 45.68 324.521 44.34 330.601 44.34C335.401 44.34 339.361 45.14 342.481 46.74C345.601 48.34 348.081 50.38 349.921 52.86C351.761 55.34 353.121 57.98 354.001 60.78C354.881 63.58 355.441 66.24 355.681 68.76C355.961 71.24 356.101 73.26 356.101 74.82V111H341.461ZM296.521 111V24.6H309.421V70.08H311.161V111H296.521ZM394.378 112.8C387.898 112.8 382.238 111.34 377.398 108.42C372.558 105.5 368.798 101.48 366.118 96.36C363.478 91.2 362.158 85.28 362.158 78.6C362.158 71.8 363.518 65.84 366.238 60.72C368.958 55.6 372.738 51.6 377.578 48.72C382.418 45.84 388.018 44.4 394.378 44.4C400.898 44.4 406.578 45.86 411.418 48.78C416.258 51.7 420.018 55.74 422.698 60.9C425.378 66.02 426.718 71.92 426.718 78.6C426.718 85.32 425.358 91.26 422.638 96.42C419.958 101.54 416.198 105.56 411.358 108.48C406.518 111.36 400.858 112.8 394.378 112.8ZM394.378 99.24C400.138 99.24 404.418 97.32 407.218 93.48C410.018 89.64 411.418 84.68 411.418 78.6C411.418 72.32 409.998 67.32 407.158 63.6C404.318 59.84 400.058 57.96 394.378 57.96C390.498 57.96 387.298 58.84 384.778 60.6C382.298 62.32 380.458 64.74 379.258 67.86C378.058 70.94 377.458 74.52 377.458 78.6C377.458 84.88 378.878 89.9 381.718 93.66C384.598 97.38 388.818 99.24 394.378 99.24Z" fill="white"/>
</svg>
